font.ufo
<glyph name="j" format="1">
	<unicode hex="006A"/>
	<advance width="252"/>
	<outline>
		<contour>
			<point x="-42" y="-206" type="curve" smooth="yes"/>
			<point x="56" y="-206"/>
			<point x="102" y="-135"/>
			<point x="123" y="-38" type="curve" smooth="yes"/>
			<point x="229" y="491" type="line"/>
			<point x="122" y="491" type="line"/>
			<point x="16" y="-36" type="line" smooth="yes"/>
			<point x="3" y="-92"/>
			<point x="-14" y="-120"/>
			<point x="-50" y="-120" type="curve" smooth="yes"/>
			<point x="-68" y="-120"/>
			<point x="-81" y="-116"/>
			<point x="-94" y="-108" type="curve"/>
			<point x="-128" y="-186" type="line"/>
			<point x="-100" y="-200"/>
			<point x="-75" y="-206"/>
		</contour>
		<contour>
			<point x="202" y="578" type="curve" smooth="yes"/>
			<point x="241" y="578"/>
			<point x="274" y="608"/>
			<point x="274" y="648" type="curve" smooth="yes"/>
			<point x="274" y="684"/>
			<point x="244" y="704"/>
			<point x="212" y="704" type="curve" smooth="yes"/>
			<point x="172" y="704"/>
			<point x="140" y="672"/>
			<point x="140" y="634" type="curve" smooth="yes"/>
			<point x="140" y="598"/>
			<point x="170" y="578"/>
		</contour>
		<contour>
			<point name="aboveLC" x="223" y="710" type="move"/>
		</contour>
		<contour>
			<point name="belowLC" x="-22" y="-235" type="move"/>
		</contour>
	</outline>
</glyph>
<glyph name="registered" format="1">
	<unicode hex="00AE"/>
	<advance width="425"/>
	<outline>
		<contour>
			<point x="245" y="318" type="curve" smooth="yes"/>
			<point x="363" y="318"/>
			<point x="449" y="425"/>
			<point x="449" y="539" type="curve" smooth="yes"/>
			<point x="448" y="640"/>
			<point x="371" y="712"/>
			<point x="281" y="712" type="curve" smooth="yes"/>
			<point x="161" y="712"/>
			<point x="77" y="604"/>
			<point x="77" y="490" type="curve" smooth="yes"/>
			<point x="77" y="389"/>
			<point x="154" y="318"/>
		</contour>
		<contour>
			<point x="248" y="358" type="curve" smooth="yes"/>
			<point x="170" y="358"/>
			<point x="121" y="417"/>
			<point x="121" y="494" type="curve" smooth="yes"/>
			<point x="121" y="589"/>
			<point x="188" y="671"/>
			<point x="278" y="671" type="curve" smooth="yes"/>
			<point x="355" y="671"/>
			<point x="405" y="612"/>
			<point x="405" y="535" type="curve" smooth="yes"/>
			<point x="405" y="440"/>
			<point x="338" y="358"/>
		</contour>
		<contour>
			<point x="173" y="417" type="line"/>
			<point x="219" y="417" type="line"/>
			<point x="233" y="482" type="line"/>
			<point x="263" y="482" type="line"/>
			<point x="283" y="417" type="line"/>
			<point x="330" y="417" type="line"/>
			<point x="304" y="493" type="line"/>
			<point x="334" y="504"/>
			<point x="353" y="529"/>
			<point x="353" y="558" type="curve" smooth="yes"/>
			<point x="353" y="594"/>
			<point x="327" y="616"/>
			<point x="288" y="616" type="curve" smooth="yes"/>
			<point x="214" y="616" type="line"/>
		</contour>
		<contour>
			<point x="240" y="517" type="line"/>
			<point x="252" y="580" type="line"/>
			<point x="273" y="580" type="line" smooth="yes"/>
			<point x="294" y="580"/>
			<point x="303" y="569"/>
			<point x="303" y="553" type="curve" smooth="yes"/>
			<point x="303" y="532"/>
			<point x="287" y="517"/>
			<point x="259" y="517" type="curve" smooth="yes"/>
		</contour>
	</outline>
</glyph>
<glyph name="plusminus" format="1">
	<unicode hex="00B1"/>
	<advance width="494"/>
	<outline>
		<contour>
			<point x="218" y="142" type="line"/>
			<point x="299" y="142" type="line"/>
			<point x="299" y="313" type="line"/>
			<point x="472" y="313" type="line"/>
			<point x="472" y="391" type="line"/>
			<point x="300" y="391" type="line"/>
			<point x="300" y="559" type="line"/>
			<point x="220" y="559" type="line"/>
			<point x="220" y="391" type="line"/>
			<point x="48" y="391" type="line"/>
			<point x="48" y="313" type="line"/>
			<point x="218" y="313" type="line"/>
		</contour>
		<contour>
			<point x="48" y="0" type="line"/>
			<point x="472" y="0" type="line"/>
			<point x="472" y="78" type="line"/>
			<point x="48" y="78" type="line"/>
		</contour>
	</outline>
</glyph>
<glyph name="ae" format="1">
	<unicode hex="00E6"/>
	<advance width="758"/>
	<outline>
		<contour>
			<point x="27" y="109" type="curve" smooth="yes"/>
			<point x="27" y="33"/>
			<point x="84" y="-12"/>
			<point x="156" y="-12" type="curve" smooth="yes"/>
			<point x="228" y="-12"/>
			<point x="289" y="21"/>
			<point x="350" y="76" type="curve"/>
			<point x="376" y="27"/>
			<point x="436" y="-12"/>
			<point x="506" y="-12" type="curve" smooth="yes"/>
			<point x="573" y="-12"/>
			<point x="629" y="12"/>
			<point x="667" y="40" type="curve"/>
			<point x="628" y="109" type="line"/>
			<point x="600" y="89"/>
			<point x="562" y="70"/>
			<point x="528" y="70" type="curve" smooth="yes"/>
			<point x="454" y="70"/>
			<point x="406" y="126"/>
			<point x="418" y="218" type="curve"/>
			<point x="705" y="218" type="line"/>
			<point x="712" y="234"/>
			<point x="726" y="279"/>
			<point x="726" y="322" type="curve" smooth="yes"/>
			<point x="726" y="424"/>
			<point x="684" y="503"/>
			<point x="570" y="503" type="curve" smooth="yes"/>
			<point x="514" y="503"/>
			<point x="457" y="473"/>
			<point x="413" y="422" type="curve"/>
			<point x="397" y="477"/>
			<point x="353" y="503"/>
			<point x="290" y="503" type="curve" smooth="yes"/>
			<point x="228" y="503"/>
			<point x="163" y="482"/>
			<point x="108" y="453" type="curve"/>
			<point x="134" y="378" type="line"/>
			<point x="181" y="402"/>
			<point x="226" y="418"/>
			<point x="266" y="418" type="curve" smooth="yes"/>
			<point x="317" y="418"/>
			<point x="341" y="392"/>
			<point x="341" y="338" type="curve" smooth="yes"/>
			<point x="341" y="328"/>
			<point x="340" y="319"/>
			<point x="338" y="306" type="curve"/>
			<point x="160" y="300"/>
			<point x="27" y="251"/>
		</contour>
		<contour>
			<point x="427" y="286" type="line"/>
			<point x="450" y="370"/>
			<point x="506" y="420"/>
			<point x="557" y="420" type="curve" smooth="yes"/>
			<point x="617" y="420"/>
			<point x="637" y="377"/>
			<point x="637" y="329" type="curve" smooth="yes"/>
			<point x="637" y="313"/>
			<point x="635" y="302"/>
			<point x="632" y="286" type="curve"/>
		</contour>
		<contour>
			<point x="324" y="238" type="curve"/>
			<point x="319" y="202"/>
			<point x="319" y="177"/>
			<point x="324" y="144" type="curve"/>
			<point x="279" y="95"/>
			<point x="233" y="72"/>
			<point x="198" y="72" type="curve" smooth="yes"/>
			<point x="159" y="72"/>
			<point x="132" y="93"/>
			<point x="132" y="131" type="curve" smooth="yes"/>
			<point x="132" y="196"/>
			<point x="200" y="235"/>
		</contour>
	</outline>
</glyph>
<glyph name="Hbar" format="1">
	<unicode hex="0126"/>
	<advance width="650"/>
	<outline>
		<contour>
			<point x="73" y="491" type="line"/>
			<point x="698" y="491" type="line"/>
			<point x="709" y="547" type="line"/>
			<point x="158" y="547" type="line"/>
			<point x="84" y="543" type="line"/>
		</contour>
		<component base="H" xOffset="6"/>
	</outline>
</glyph>
<glyph name="ringhalfleftmod" format="1">
	<unicode hex="02BF"/>
	<advance width="160"/>
	<outline>
		<contour>
			<point x="181" y="547" type="curve"/>
			<point x="190" y="590" type="line"/>
			<point x="154" y="590"/>
			<point x="140" y="609"/>
			<point x="140" y="634" type="curve" smooth="yes"/>
			<point x="140" y="666"/>
			<point x="164" y="692"/>
			<point x="211" y="694" type="curve"/>
			<point x="220" y="738" type="line"/>
			<point x="132" y="738"/>
			<point x="84" y="690"/>
			<point x="84" y="627" type="curve" smooth="yes"/>
			<point x="84" y="580"/>
			<point x="114" y="544"/>
		</contour>
	</outline>
</glyph>
<glyph name="verticallinemod" format="1">
	<unicode hex="02C8"/>
	<advance width="124"/>
	<outline>
		<contour>
			<point x="85" y="548" type="line"/>
			<point x="158" y="548" type="line"/>
			<point x="203" y="740" type="line"/>
			<point x="114" y="740" type="line"/>
		</contour>
	</outline>
</glyph>
<glyph name="brevecmb" format="1">
	<unicode hex="0306"/>
	<outline>
		<contour>
			<point x="114" y="571" type="curve" smooth="yes"/>
			<point x="226" y="571"/>
			<point x="287" y="644"/>
			<point x="305" y="726" type="curve"/>
			<point x="239" y="737" type="line"/>
			<point x="223" y="690"/>
			<point x="187" y="645"/>
			<point x="128" y="645" type="curve" smooth="yes"/>
			<point x="70" y="645"/>
			<point x="47" y="690"/>
			<point x="50" y="737" type="curve"/>
			<point x="-21" y="726" type="line"/>
			<point x="-30" y="644"/>
			<point x="5" y="571"/>
		</contour>
		<contour>
			<point name="_aboveLC" x="110" y="514" type="move"/>
		</contour>
	</outline>
</glyph>
<glyph name="macronbelowcmb" format="1">
	<unicode hex="0331"/>
	<outline>
		<component base="macroncmb" xOffset="-156" yOffset="-776"/>
		<contour>
			<point name="_belowLC" x="-6" y="-30" type="move"/>
		</contour>
	</outline>
</glyph>
<glyph name="emdash" format="1">
	<unicode hex="2014"/>
	<advance width="770"/>
	<outline>
		<contour>
			<point x="35" y="216" type="line"/>
			<point x="721" y="216" type="line"/>
			<point x="736" y="288" type="line"/>
			<point x="49" y="288" type="line"/>
		</contour>
	</outline>
</glyph>
<glyph name="bullet" format="1">
	<unicode hex="2022"/>
	<advance width="313"/>
	<outline>
		<contour>
			<point x="146" y="136" type="curve" smooth="yes"/>
			<point x="225" y="136"/>
			<point x="276" y="208"/>
			<point x="276" y="278" type="curve" smooth="yes"/>
			<point x="276" y="344"/>
			<point x="230" y="390"/>
			<point x="170" y="390" type="curve" smooth="yes"/>
			<point x="90" y="390"/>
			<point x="40" y="317"/>
			<point x="40" y="248" type="curve" smooth="yes"/>
			<point x="40" y="182"/>
			<point x="85" y="136"/>
		</contour>
	</outline>
</glyph>
<glyph name="colonmonetary" format="1">
	<unicode hex="20A1"/>
	<advance width="494"/>
	<outline>
		<contour>
			<point x="258" y="-12" type="curve" smooth="yes"/>
			<point x="322" y="-12"/>
			<point x="383" y="12"/>
			<point x="442" y="64" type="curve"/>
			<point x="391" y="128" type="line"/>
			<point x="359" y="98"/>
			<point x="321" y="75"/>
			<point x="280" y="75" type="curve" smooth="yes"/>
			<point x="206" y="75"/>
			<point x="162" y="139"/>
			<point x="162" y="242" type="curve" smooth="yes"/>
			<point x="162" y="424"/>
			<point x="246" y="567"/>
			<point x="358" y="567" type="curve" smooth="yes"/>
			<point x="409" y="567"/>
			<point x="436" y="540"/>
			<point x="461" y="494" type="curve"/>
			<point x="536" y="543" type="line"/>
			<point x="502" y="605"/>
			<point x="453" y="654"/>
			<point x="368" y="654" type="curve" smooth="yes"/>
			<point x="202" y="654"/>
			<point x="59" y="484"/>
			<point x="59" y="234" type="curve" smooth="yes"/>
			<point x="59" y="80"/>
			<point x="134" y="-12"/>
		</contour>
		<contour>
			<point x="102" y="-110" type="line"/>
			<point x="144" y="-110" type="line"/>
			<point x="413" y="752" type="line"/>
			<point x="372" y="752" type="line"/>
		</contour>
		<contour>
			<point x="192" y="-110" type="line"/>
			<point x="234" y="-110" type="line"/>
			<point x="503" y="752" type="line"/>
			<point x="462" y="752" type="line"/>
		</contour>
	</outline>
</glyph>
<glyph name="rupeeindian" format="1">
	<unicode hex="20B9"/>
	<advance width="494"/>
	<outline>
		<contour>
			<point x="65" y="236" type="line"/>
			<point x="134" y="236" type="line" smooth="yes"/>
			<point x="277" y="236"/>
			<point x="418" y="315"/>
			<point x="418" y="480" type="curve" smooth="yes"/>
			<point x="418" y="525"/>
			<point x="401" y="562"/>
			<point x="371" y="584" type="curve"/>
			<point x="504" y="584" type="line"/>
			<point x="517" y="642" type="line"/>
			<point x="146" y="642" type="line"/>
			<point x="128" y="555" type="line"/>
			<point x="191" y="555" type="line" smooth="yes"/>
			<point x="266" y="555"/>
			<point x="312" y="534"/>
			<point x="312" y="470" type="curve" smooth="yes"/>
			<point x="312" y="375"/>
			<point x="239" y="322"/>
			<point x="134" y="322" type="curve" smooth="yes"/>
			<point x="82" y="322" type="line"/>
		</contour>
		<contour>
			<point x="103" y="428" type="line"/>
			<point x="474" y="428" type="line"/>
			<point x="486" y="486" type="line"/>
			<point x="184" y="486" type="line"/>
			<point x="114" y="481" type="line"/>
		</contour>
		<contour>
			<point x="252" y="0" type="line"/>
			<point x="366" y="0" type="line"/>
			<point x="243" y="310" type="line"/>
			<point x="159" y="257" type="line"/>
		</contour>
	</outline>
</glyph>
<glyph name="arrowdown" format="1">
	<unicode hex="2193"/>
	<advance width="593"/>
	<outline>
		<contour>
			<point x="294" y="-27" type="line"/>
			<point x="299" y="-27" type="line"/>
			<point x="564" y="237" type="line"/>
			<point x="507" y="288" type="line"/>
			<point x="340" y="118" type="line"/>
			<point x="340" y="528" type="line"/>
			<point x="253" y="528" type="line"/>
			<point x="253" y="118" type="line"/>
			<point x="86" y="288" type="line"/>
			<point x="28" y="237" type="line"/>
		</contour>
	</outline>
</glyph>
<glyph name="partialdiff" format="1">
	<unicode hex="2202"/>
	<advance width="542"/>
	<outline>
		<contour>
			<point x="191" y="-11" type="curve" smooth="yes"/>
			<point x="384" y="-11"/>
			<point x="516" y="236"/>
			<point x="516" y="454" type="curve" smooth="yes"/>
			<point x="516" y="585"/>
			<point x="450" y="668"/>
			<point x="326" y="668" type="curve" smooth="yes"/>
			<point x="270" y="668"/>
			<point x="220" y="646"/>
			<point x="175" y="613" type="curve"/>
			<point x="220" y="547" type="line"/>
			<point x="244" y="566"/>
			<point x="279" y="582"/>
			<point x="311" y="582" type="curve" smooth="yes"/>
			<point x="382" y="582"/>
			<point x="413" y="526"/>
			<point x="413" y="445" type="curve" smooth="yes"/>
			<point x="413" y="290"/>
			<point x="327" y="77"/>
			<point x="208" y="76" type="curve" smooth="yes"/>
			<point x="155" y="76"/>
			<point x="126" y="119"/>
			<point x="125" y="162" type="curve" smooth="yes"/>
			<point x="125" y="241"/>
			<point x="177" y="326"/>
			<point x="260" y="326" type="curve" smooth="yes"/>
			<point x="321" y="326"/>
			<point x="355" y="283"/>
			<point x="376" y="238" type="curve"/>
			<point x="404" y="316" type="line"/>
			<point x="373" y="374"/>
			<point x="324" y="410"/>
			<point x="257" y="410" type="curve" smooth="yes"/>
			<point x="118" y="410"/>
			<point x="26" y="274"/>
			<point x="26" y="150" type="curve" smooth="yes"/>
			<point x="26" y="50"/>
			<point x="102" y="-11"/>
		</contour>
	</outline>
</glyph>
<glyph name="trianglewhiteup" format="1">
	<unicode hex="25B3"/>
	<advance width="886"/>
	<outline>
		<contour>
			<point x="66" y="-60" type="line"/>
			<point x="854" y="-60" type="line"/>
			<point x="854" y="-58" type="line"/>
			<point x="462" y="756" type="line"/>
			<point x="458" y="756" type="line"/>
			<point x="66" y="-58" type="line"/>
		</contour>
		<contour>
			<point x="195" y="17" type="line"/>
			<point x="460" y="585" type="line"/>
			<point x="725" y="17" type="line"/>
		</contour>
	</outline>
</glyph>
<glyph name="trianglewhitedown" format="1">
	<unicode hex="25BD"/>
	<advance width="886"/>
	<outline>
		<contour>
			<point x="854" y="736" type="line"/>
			<point x="66" y="736" type="line"/>
			<point x="66" y="734" type="line"/>
			<point x="458" y="-80" type="line"/>
			<point x="462" y="-80" type="line"/>
			<point x="854" y="734" type="line"/>
		</contour>
		<contour>
			<point x="725" y="659" type="line"/>
			<point x="460" y="91" type="line"/>
			<point x="195" y="659" type="line"/>
		</contour>
	</outline>
</glyph>
<glyph name="checkedbox" format="1">
	<unicode hex="2611"/>
	<advance width="770"/>
	<outline>
		<contour>
			<point x="252" y="106" type="curve"/>
			<point x="358" y="118" type="line"/>
			<point x="483" y="391"/>
			<point x="662" y="605"/>
			<point x="828" y="743" type="curve"/>
			<point x="772" y="803" type="line"/>
			<point x="604" y="656"/>
			<point x="428" y="424"/>
			<point x="317" y="189" type="curve"/>
			<point x="313" y="189" type="line"/>
			<point x="302" y="271"/>
			<point x="281" y="346"/>
			<point x="250" y="426" type="curve"/>
			<point x="172" y="385" type="line"/>
			<point x="212" y="298"/>
			<point x="237" y="210"/>
		</contour>
		<component base="checkbox"/>
	</outline>
</glyph>
<glyph name="B" format="1">
  <advance width="594"/>
  <outline>
    <contour>
      <point x="346" y="682" type="move" name="aboveUC"/>
    </contour>
    <contour>
      <point x="259" y="-22" type="move" name="belowLC"/>
    </contour>
    <contour>
      <point x="32" y="0" type="line"/>
      <point x="255" y="0" type="line" smooth="yes"/>
      <point x="410" y="0"/>
      <point x="532" y="62"/>
      <point x="532" y="212" type="curve" smooth="yes"/>
      <point x="532" y="282"/>
      <point x="486" y="323"/>
      <point x="416" y="340" type="curve"/>
      <point x="417" y="344" type="line"/>
      <point x="496" y="364"/>
      <point x="561" y="425"/>
      <point x="561" y="507" type="curve" smooth="yes"/>
      <point x="561" y="606"/>
      <point x="478" y="654"/>
      <point x="350" y="654" type="curve" smooth="yes"/>
      <point x="162" y="654" type="line"/>
    </contour>
    <contour>
      <point x="215" y="380" type="line"/>
      <point x="254" y="570" type="line"/>
      <point x="328" y="570" type="line" smooth="yes"/>
      <point x="412" y="570"/>
      <point x="451" y="541"/>
      <point x="451" y="490" type="curve" smooth="yes"/>
      <point x="451" y="424"/>
      <point x="402" y="380"/>
      <point x="295" y="380" type="curve" smooth="yes"/>
    </contour>
    <contour>
      <point x="156" y="84" type="line"/>
      <point x="200" y="304" type="line"/>
      <point x="301" y="304" type="line" smooth="yes"/>
      <point x="384" y="304"/>
      <point x="428" y="267"/>
      <point x="428" y="207" type="curve" smooth="yes"/>
      <point x="428" y="123"/>
      <point x="363" y="84"/>
      <point x="255" y="84" type="curve" smooth="yes"/>
    </contour>
  </outline>
</glyph>
<glyph name="D" format="1">
  <advance width="604"/>
  <outline>
    <contour>
      <point x="394" y="682" type="move" name="aboveUC"/>
    </contour>
    <contour>
      <point x="274" y="-22" type="move" name="belowLC"/>
    </contour>
    <contour>
      <point x="32" y="0" type="line"/>
      <point x="222" y="0" type="line" smooth="yes"/>
      <point x="437" y="0"/>
      <point x="578" y="150"/>
      <point x="578" y="398" type="curve" smooth="yes"/>
      <point x="578" y="564"/>
      <point x="477" y="654"/>
      <point x="295" y="654" type="curve" smooth="yes"/>
      <point x="162" y="654" type="line"/>
    </contour>
    <contour>
      <point x="157" y="87" type="line"/>
      <point x="252" y="567" type="line"/>
      <point x="292" y="567" type="line" smooth="yes"/>
      <point x="403" y="567"/>
      <point x="468" y="507"/>
      <point x="468" y="391" type="curve" smooth="yes"/>
      <point x="468" y="198"/>
      <point x="367" y="87"/>
      <point x="220" y="87" type="curve" smooth="yes"/>
    </contour>
  </outline>
</glyph>
<glyph name="Delta.math" format="1">
  <advance width="590"/>
  <outline>
    <contour>
      <point x="-14" y="0" type="line"/>
      <point x="505" y="0" type="line"/>
      <point x="517" y="64" type="line"/>
      <point x="444" y="654" type="line"/>
      <point x="315" y="654" type="line"/>
      <point x="-1" y="64" type="line"/>
    </contour>
    <contour>
      <point x="264" y="365" type="line"/>
      <point x="298" y="433"/>
      <point x="327" y="497"/>
      <point x="358" y="568" type="curve"/>
      <point x="362" y="568" type="line"/>
      <point x="366" y="497"/>
      <point x="371" y="432"/>
      <point x="375" y="365" type="curve" smooth="yes"/>
      <point x="402" y="91" type="line"/>
      <point x="120" y="91" type="line"/>
    </contour>
  </outline>
</glyph>
<glyph name="E" format="1">
  <advance width="515"/>
  <outline>
    <contour>
      <point x="32" y="0" type="line"/>
      <point x="415" y="0" type="line"/>
      <point x="433" y="91" type="line"/>
      <point x="157" y="91" type="line"/>
      <point x="199" y="296" type="line"/>
      <point x="425" y="296" type="line"/>
      <point x="443" y="387" type="line"/>
      <point x="216" y="387" type="line"/>
      <point x="251" y="563" type="line"/>
      <point x="519" y="563" type="line"/>
      <point x="537" y="654" type="line"/>
      <point x="162" y="654" type="line"/>
    </contour>
    <contour>
      <point x="373" y="682" type="move" name="aboveUC"/>
    </contour>
    <contour>
      <point x="341" y="0" type="move" name="ogonekUC"/>
    </contour>
    <contour>
      <point x="244" y="-22" type="move" name="belowLC"/>
    </contour>
  </outline>
</glyph>
<glyph name="Eogonek" format="1">
  <advance width="515"/>
  <outline>
    <contour>
      <point x="32" y="0" type="line"/>
      <point x="317" y="0" type="line"/>
      <point x="282" y="-23"/>
      <point x="222" y="-81"/>
      <point x="222" y="-144" type="curve" smooth="yes"/>
      <point x="222" y="-190"/>
      <point x="258" y="-216"/>
      <point x="308" y="-216" type="curve" smooth="yes"/>
      <point x="336" y="-216"/>
      <point x="372" y="-206"/>
      <point x="398" y="-190" type="curve"/>
      <point x="376" y="-135" type="line"/>
      <point x="364" y="-142"/>
      <point x="355" y="-145"/>
      <point x="344" y="-145" type="curve" smooth="yes"/>
      <point x="325" y="-145"/>
      <point x="309" y="-132"/>
      <point x="309" y="-110" type="curve" smooth="yes"/>
      <point x="309" y="-73"/>
      <point x="354" y="-8"/>
      <point x="415" y="0" type="curve"/>
      <point x="433" y="91" type="line"/>
      <point x="157" y="91" type="line"/>
      <point x="199" y="296" type="line"/>
      <point x="425" y="296" type="line"/>
      <point x="443" y="387" type="line"/>
      <point x="216" y="387" type="line"/>
      <point x="251" y="563" type="line"/>
      <point x="519" y="563" type="line"/>
      <point x="537" y="654" type="line"/>
      <point x="162" y="654" type="line"/>
    </contour>
    <contour>
      <point x="373" y="682" type="move" name="aboveUC"/>
    </contour>
  </outline>
</glyph>
<glyph name="Eth" format="1">
  <advance width="622"/>
  <outline>
    <contour>
      <point x="42" y="315" type="line"/>
      <point x="356" y="315" type="line"/>
      <point x="368" y="371" type="line"/>
      <point x="125" y="371" type="line"/>
      <point x="53" y="367" type="line"/>
    </contour>
    <component base="D" xOffset="18"/>
  </outline>
</glyph>
<glyph name="Euro" format="1">
  <advance width="494"/>
  <outline>
    <contour>
      <point x="280" y="-12" type="curve" smooth="yes"/>
      <point x="341" y="-12"/>
      <point x="400" y="12"/>
      <point x="458" y="64" type="curve"/>
      <point x="406" y="128" type="line"/>
      <point x="376" y="98"/>
      <point x="341" y="75"/>
      <point x="301" y="75" type="curve" smooth="yes"/>
      <point x="227" y="75"/>
      <point x="185" y="140"/>
      <point x="187" y="254" type="curve" smooth="yes"/>
      <point x="190" y="424"/>
      <point x="267" y="567"/>
      <point x="377" y="567" type="curve" smooth="yes"/>
      <point x="417" y="567"/>
      <point x="438" y="543"/>
      <point x="456" y="506" type="curve"/>
      <point x="534" y="557" type="line"/>
      <point x="504" y="612"/>
      <point x="461" y="654"/>
      <point x="388" y="654" type="curve" smooth="yes"/>
      <point x="224" y="654"/>
      <point x="83" y="484"/>
      <point x="80" y="247" type="curve" smooth="yes"/>
      <point x="78" y="80"/>
      <point x="155" y="-12"/>
    </contour>
    <contour>
      <point x="18" y="232" type="line"/>
      <point x="368" y="232" type="line"/>
      <point x="380" y="290" type="line"/>
      <point x="98" y="290" type="line"/>
      <point x="30" y="284" type="line"/>
    </contour>
    <contour>
      <point x="42" y="352" type="line"/>
      <point x="430" y="352" type="line"/>
      <point x="442" y="409" type="line"/>
      <point x="122" y="409" type="line"/>
      <point x="54" y="404" type="line"/>
    </contour>
  </outline>
</glyph>
<glyph name="F" format="1">
  <advance width="489"/>
  <outline>
    <contour>
      <point x="373" y="682" type="move" name="aboveUC"/>
    </contour>
    <contour>
      <point x="92" y="-22" type="move" name="belowLC"/>
    </contour>
    <contour>
      <point x="32" y="0" type="line"/>
      <point x="140" y="0" type="line"/>
      <point x="196" y="279" type="line"/>
      <point x="422" y="279" type="line"/>
      <point x="440" y="370" type="line"/>
      <point x="213" y="370" type="line"/>
      <point x="251" y="563" type="line"/>
      <point x="519" y="563" type="line"/>
      <point x="537" y="654" type="line"/>
      <point x="162" y="654" type="line"/>
    </contour>
  </outline>
</glyph>
<glyph name="G" format="1">
  <advance width="600"/>
  <outline>
    <contour>
      <point x="307" y="-12" type="curve" smooth="yes"/>
      <point x="386" y="-12"/>
      <point x="454" y="16"/>
      <point x="502" y="55" type="curve"/>
      <point x="561" y="353" type="line"/>
      <point x="344" y="353" type="line"/>
      <point x="327" y="265" type="line"/>
      <point x="448" y="265" type="line"/>
      <point x="416" y="111" type="line"/>
      <point x="394" y="93"/>
      <point x="362" y="80"/>
      <point x="325" y="80" type="curve" smooth="yes"/>
      <point x="211" y="80"/>
      <point x="167" y="157"/>
      <point x="167" y="265" type="curve" smooth="yes"/>
      <point x="167" y="417"/>
      <point x="262" y="573"/>
      <point x="404" y="573" type="curve" smooth="yes"/>
      <point x="452" y="573"/>
      <point x="484" y="549"/>
      <point x="509" y="509" type="curve"/>
      <point x="583" y="566" type="line"/>
      <point x="548" y="626"/>
      <point x="491" y="666"/>
      <point x="410" y="666" type="curve" smooth="yes"/>
      <point x="200" y="666"/>
      <point x="57" y="474"/>
      <point x="57" y="257" type="curve" smooth="yes"/>
      <point x="57" y="91"/>
      <point x="148" y="-12"/>
    </contour>
    <contour>
      <point x="429" y="682" type="move" name="aboveUC"/>
    </contour>
    <contour>
      <point x="308" y="-22" type="move" name="belowLC"/>
    </contour>
  </outline>
</glyph>
<glyph name="Germandbls" format="1">
  <advance width="652"/>
  <outline>
    <contour>
      <point x="406" y="-12" type="curve" smooth="yes"/>
      <point x="526" y="-12"/>
      <point x="609" y="75"/>
      <point x="609" y="186" type="curve" smooth="yes"/>
      <point x="609" y="262"/>
      <point x="553" y="322"/>
      <point x="463" y="356" type="curve"/>
      <point x="612" y="487" type="line"/>
      <point x="595" y="617"/>
      <point x="506" y="672"/>
      <point x="391" y="672" type="curve" smooth="yes"/>
      <point x="231" y="672"/>
      <point x="145" y="568"/>
      <point x="118" y="433" type="curve" smooth="yes"/>
      <point x="32" y="0" type="line"/>
      <point x="140" y="0" type="line"/>
      <point x="220" y="408" type="line" smooth="yes"/>
      <point x="243" y="523"/>
      <point x="304" y="585"/>
      <point x="384" y="585" type="curve" smooth="yes"/>
      <point x="444" y="585"/>
      <point x="487" y="557"/>
      <point x="506" y="501" type="curve"/>
      <point x="357" y="367" type="line"/>
      <point x="351" y="302" type="line"/>
      <point x="458" y="273"/>
      <point x="498" y="224"/>
      <point x="498" y="179" type="curve" smooth="yes"/>
      <point x="498" y="121"/>
      <point x="453" y="75"/>
      <point x="399" y="75" type="curve" smooth="yes"/>
      <point x="349" y="75"/>
      <point x="315" y="102"/>
      <point x="290" y="136" type="curve"/>
      <point x="227" y="70" type="line"/>
      <point x="271" y="16"/>
      <point x="335" y="-12"/>
    </contour>
  </outline>
</glyph>
<glyph name="I" format="1">
  <advance width="273"/>
  <outline>
    <contour>
      <point x="230" y="682" type="move" name="aboveUC"/>
    </contour>
    <contour>
      <point x="83" y="0" type="move" name="ogonekUC"/>
    </contour>
    <contour>
      <point x="91" y="-25" type="move" name="belowLC"/>
    </contour>
    <contour>
      <point x="32" y="0" type="line"/>
      <point x="140" y="0" type="line"/>
      <point x="270" y="654" type="line"/>
      <point x="162" y="654" type="line"/>
    </contour>
  </outline>
</glyph>
<glyph name="I.alt" format="1">
  <advance width="345"/>
  <outline>
    <contour>
      <point x="266" y="682" type="move" name="aboveUC"/>
    </contour>
    <contour>
      <point x="120" y="0" type="move" name="ogonekUC"/>
    </contour>
    <contour>
      <point x="128" y="-25" type="move" name="belowLC"/>
    </contour>
    <contour>
      <point x="-7" y="0" type="line"/>
      <point x="251" y="0" type="line"/>
      <point x="270" y="91" type="line"/>
      <point x="193" y="91" type="line"/>
      <point x="289" y="563" type="line"/>
      <point x="363" y="563" type="line"/>
      <point x="382" y="654" type="line"/>
      <point x="125" y="654" type="line"/>
      <point x="106" y="563" type="line"/>
      <point x="181" y="563" type="line"/>
      <point x="85" y="91" type="line"/>
      <point x="12" y="91" type="line"/>
    </contour>
  </outline>
</glyph>
<glyph name="Iogonek.alt" format="1">
  <advance width="345"/>
  <outline>
    <contour>
      <point x="266" y="682" type="move" name="aboveUC"/>
    </contour>
    <contour>
      <point x="84" y="-216" type="curve" smooth="yes"/>
      <point x="111" y="-216"/>
      <point x="150" y="-205"/>
      <point x="174" y="-188" type="curve"/>
      <point x="152" y="-135" type="line"/>
      <point x="141" y="-142"/>
      <point x="132" y="-145"/>
      <point x="121" y="-145" type="curve" smooth="yes"/>
      <point x="102" y="-145"/>
      <point x="86" y="-132"/>
      <point x="86" y="-110" type="curve" smooth="yes"/>
      <point x="86" y="-75"/>
      <point x="119" y="-28"/>
      <point x="176" y="0" type="curve"/>
      <point x="251" y="0" type="line"/>
      <point x="270" y="91" type="line"/>
      <point x="193" y="91" type="line"/>
      <point x="289" y="563" type="line"/>
      <point x="363" y="563" type="line"/>
      <point x="382" y="654" type="line"/>
      <point x="125" y="654" type="line"/>
      <point x="106" y="563" type="line"/>
      <point x="181" y="563" type="line"/>
      <point x="85" y="91" type="line"/>
      <point x="12" y="91" type="line"/>
      <point x="-7" y="0" type="line"/>
      <point x="92" y="0" type="line"/>
      <point x="59" y="-23"/>
      <point x="-1" y="-81"/>
      <point x="-1" y="-144" type="curve" smooth="yes"/>
      <point x="-1" y="-190"/>
      <point x="34" y="-216"/>
    </contour>
  </outline>
</glyph>
<glyph name="J" format="1">
  <advance width="474"/>
  <outline>
    <contour>
      <point x="435" y="682" type="move" name="aboveUC"/>
    </contour>
    <contour>
      <point x="151" y="-30" type="move" name="belowLC"/>
    </contour>
    <contour>
      <point x="168" y="-12" type="curve" smooth="yes"/>
      <point x="294" y="-12"/>
      <point x="363" y="78"/>
      <point x="385" y="194" type="curve" smooth="yes"/>
      <point x="477" y="654" type="line"/>
      <point x="369" y="654" type="line"/>
      <point x="281" y="211" type="line" smooth="yes"/>
      <point x="264" y="127"/>
      <point x="227" y="81"/>
      <point x="168" y="81" type="curve" smooth="yes"/>
      <point x="118" y="81"/>
      <point x="82" y="110"/>
      <point x="63" y="151" type="curve"/>
      <point x="-5" y="88" type="line"/>
      <point x="28" y="26"/>
      <point x="91" y="-12"/>
    </contour>
  </outline>
</glyph>
<glyph name="K" format="1">
  <advance width="582"/>
  <outline>
    <contour>
      <point x="32" y="0" type="line"/>
      <point x="140" y="0" type="line"/>
      <point x="181" y="206" type="line"/>
      <point x="299" y="326" type="line"/>
      <point x="414" y="0" type="line"/>
      <point x="526" y="0" type="line"/>
      <point x="379" y="394" type="line"/>
      <point x="620" y="654" type="line"/>
      <point x="501" y="654" type="line"/>
      <point x="215" y="358" type="line"/>
      <point x="211" y="358" type="line"/>
      <point x="270" y="654" type="line"/>
      <point x="162" y="654" type="line"/>
    </contour>
    <contour>
      <point x="412" y="682" type="move" name="aboveUC"/>
    </contour>
    <contour>
      <point x="284" y="-22" type="move" name="belowLC"/>
    </contour>
  </outline>
</glyph>
<glyph name="L" format="1">
  <advance width="481"/>
  <outline>
    <contour>
      <point x="240" y="682" type="move" name="aboveUC"/>
    </contour>
    <contour>
      <point x="231" y="-22" type="move" name="belowLC"/>
    </contour>
    <contour>
      <point x="32" y="0" type="line"/>
      <point x="401" y="0" type="line"/>
      <point x="419" y="91" type="line"/>
      <point x="158" y="91" type="line"/>
      <point x="270" y="654" type="line"/>
      <point x="162" y="654" type="line"/>
    </contour>
  </outline>
</glyph>
<glyph name="Lslash" format="1">
  <advance width="481"/>
  <outline>
    <contour>
      <point x="13" y="190" type="line"/>
      <point x="104" y="235" type="line"/>
      <point x="180" y="269" type="line"/>
      <point x="407" y="380" type="line"/>
      <point x="380" y="451" type="line"/>
      <point x="198" y="360" type="line"/>
      <point x="122" y="326" type="line"/>
      <point x="-13" y="260" type="line"/>
    </contour>
    <component base="L"/>
  </outline>
</glyph>
<glyph name="Ohorn" format="1">
  <advance width="647"/>
  <outline>
    <contour>
      <point x="414" y="682" type="move" name="aboveUC"/>
    </contour>
    <contour>
      <point x="290" y="-22" type="move" name="belowLC"/>
    </contour>
    <contour>
      <point x="551" y="593" type="line"/>
      <point x="631" y="607"/>
      <point x="680" y="655"/>
      <point x="680" y="716" type="curve" smooth="yes"/>
      <point x="680" y="734"/>
      <point x="676" y="751"/>
      <point x="668" y="770" type="curve"/>
      <point x="587" y="744" type="line"/>
      <point x="591" y="731"/>
      <point x="593" y="720"/>
      <point x="593" y="709" type="curve" smooth="yes"/>
      <point x="593" y="670"/>
      <point x="556" y="639"/>
      <point x="500" y="636" type="curve"/>
    </contour>
    <component base="O"/>
  </outline>
</glyph>
<glyph name="Oslash" format="1">
  <advance width="647"/>
  <outline>
    <contour>
      <point x="426" y="682" type="move" name="aboveUC"/>
    </contour>
    <contour>
      <point x="44" y="-35" type="line"/>
      <point x="692" y="647" type="line"/>
      <point x="644" y="692" type="line"/>
      <point x="-6" y="10" type="line"/>
    </contour>
    <component base="O"/>
  </outline>
</glyph>
<glyph name="S" format="1">
  <advance width="518"/>
  <outline>
    <contour>
      <point x="234" y="-12" type="curve" smooth="yes"/>
      <point x="376" y="-12"/>
      <point x="472" y="77"/>
      <point x="472" y="194" type="curve" smooth="yes"/>
      <point x="472" y="269"/>
      <point x="440" y="312"/>
      <point x="377" y="349" type="curve" smooth="yes"/>
      <point x="307" y="391" type="line" smooth="yes"/>
      <point x="257" y="421"/>
      <point x="224" y="443"/>
      <point x="224" y="485" type="curve" smooth="yes"/>
      <point x="224" y="530"/>
      <point x="261" y="573"/>
      <point x="324" y="573" type="curve" smooth="yes"/>
      <point x="378" y="573"/>
      <point x="420" y="544"/>
      <point x="453" y="507" type="curve"/>
      <point x="522" y="570" type="line"/>
      <point x="476" y="627"/>
      <point x="408" y="666"/>
      <point x="330" y="666" type="curve" smooth="yes"/>
      <point x="207" y="666"/>
      <point x="113" y="579"/>
      <point x="113" y="474" type="curve" smooth="yes"/>
      <point x="113" y="397"/>
      <point x="155" y="350"/>
      <point x="212" y="315" type="curve" smooth="yes"/>
      <point x="281" y="273" type="line" smooth="yes"/>
      <point x="329" y="244"/>
      <point x="360" y="220"/>
      <point x="360" y="179" type="curve" smooth="yes"/>
      <point x="360" y="118"/>
      <point x="311" y="80"/>
      <point x="243" y="80" type="curve" smooth="yes"/>
      <point x="179" y="80"/>
      <point x="124" y="114"/>
      <point x="86" y="167" type="curve"/>
      <point x="8" y="107" type="line"/>
      <point x="67" y="24"/>
      <point x="147" y="-12"/>
    </contour>
    <contour>
      <point x="366" y="687" type="move" name="aboveUC"/>
    </contour>
    <contour>
      <point x="240" y="0" type="move" name="baseLC"/>
    </contour>
    <contour>
      <point x="234" y="-30" type="move" name="belowLC"/>
    </contour>
  </outline>
</glyph>
<glyph name="T" format="1">
  <advance width="521"/>
  <outline>
    <contour>
      <point x="157" y="0" type="line"/>
      <point x="265" y="0" type="line"/>
      <point x="377" y="562" type="line"/>
      <point x="558" y="562" type="line"/>
      <point x="576" y="654" type="line"/>
      <point x="106" y="654" type="line"/>
      <point x="88" y="562" type="line"/>
      <point x="269" y="562" type="line"/>
    </contour>
    <contour>
      <point x="355" y="682" type="move" name="aboveUC"/>
    </contour>
    <contour>
      <point x="219" y="0" type="move" name="baseLC"/>
    </contour>
    <contour>
      <point x="213" y="-22" type="move" name="belowLC"/>
    </contour>
  </outline>
</glyph>
<glyph name="Thorn" format="1">
  <advance width="579"/>
  <outline>
    <contour>
      <point x="32" y="0" type="line"/>
      <point x="138" y="0" type="line"/>
      <point x="166" y="141" type="line"/>
      <point x="259" y="141" type="line" smooth="yes"/>
      <point x="424" y="141"/>
      <point x="554" y="212"/>
      <point x="554" y="384" type="curve" smooth="yes"/>
      <point x="554" y="503"/>
      <point x="469" y="550"/>
      <point x="350" y="550" type="curve" smooth="yes"/>
      <point x="249" y="550" type="line"/>
      <point x="270" y="660" type="line"/>
      <point x="162" y="660" type="line"/>
    </contour>
    <contour>
      <point x="184" y="227" type="line"/>
      <point x="231" y="464" type="line"/>
      <point x="324" y="464" type="line" smooth="yes"/>
      <point x="403" y="464"/>
      <point x="447" y="436"/>
      <point x="447" y="368" type="curve" smooth="yes"/>
      <point x="447" y="276"/>
      <point x="384" y="227"/>
      <point x="267" y="227" type="curve" smooth="yes"/>
    </contour>
  </outline>
</glyph>
<glyph name="U" format="1">
  <advance width="630"/>
  <outline>
    <contour>
      <point x="414" y="682" type="move" name="aboveUC"/>
    </contour>
    <contour>
      <point x="600" y="664" type="move" name="hornLC"/>
    </contour>
    <contour>
      <point x="282" y="0" type="move" name="ogonekUC"/>
    </contour>
    <contour>
      <point x="273" y="-22" type="move" name="belowLC"/>
    </contour>
    <contour>
      <point x="89" y="304" type="line"/>
      <point x="83" y="271"/>
      <point x="77" y="234"/>
      <point x="77" y="205" type="curve" smooth="yes"/>
      <point x="77" y="60"/>
      <point x="153" y="-12"/>
      <point x="297" y="-12" type="curve" smooth="yes"/>
      <point x="426" y="-12"/>
      <point x="514" y="69"/>
      <point x="553" y="264" type="curve" smooth="yes"/>
      <point x="632" y="654" type="line"/>
      <point x="526" y="654" type="line"/>
      <point x="448" y="264" type="line" smooth="yes"/>
      <point x="422" y="132"/>
      <point x="370" y="81"/>
      <point x="301" y="81" type="curve" smooth="yes"/>
      <point x="219" y="81"/>
      <point x="185" y="127"/>
      <point x="185" y="211" type="curve" smooth="yes"/>
      <point x="185" y="235"/>
      <point x="188" y="260"/>
      <point x="194" y="288" type="curve" smooth="yes"/>
      <point x="267" y="654" type="line"/>
      <point x="159" y="654" type="line"/>
    </contour>
  </outline>
</glyph>
<glyph name="Uhorn" format="1">
  <advance width="648"/>
  <outline>
    <contour>
      <point x="415" y="682" type="move" name="aboveUC"/>
    </contour>
    <contour>
      <point x="279" y="-22" type="move" name="belowLC"/>
    </contour>
    <contour>
      <point x="619" y="608" type="line"/>
      <point x="716" y="625"/>
      <point x="758" y="675"/>
      <point x="758" y="734" type="curve" smooth="yes"/>
      <point x="758" y="752"/>
      <point x="755" y="769"/>
      <point x="746" y="788" type="curve"/>
      <point x="665" y="761" type="line"/>
      <point x="670" y="748"/>
      <point x="672" y="738"/>
      <point x="672" y="726" type="curve" smooth="yes"/>
      <point x="672" y="689"/>
      <point x="635" y="658"/>
      <point x="583" y="654" type="curve"/>
    </contour>
    <component base="U"/>
  </outline>
</glyph>
<glyph name="Uogonek" format="1">
  <advance width="630"/>
  <outline>
    <contour>
      <point x="414" y="682" type="move" name="aboveUC"/>
    </contour>
    <contour>
      <point x="632" y="654" type="line"/>
      <point x="526" y="654" type="line"/>
      <point x="448" y="264" type="line" smooth="yes"/>
      <point x="422" y="132"/>
      <point x="370" y="81"/>
      <point x="301" y="81" type="curve" smooth="yes"/>
      <point x="219" y="81"/>
      <point x="185" y="127"/>
      <point x="185" y="211" type="curve" smooth="yes"/>
      <point x="185" y="235"/>
      <point x="188" y="260"/>
      <point x="194" y="288" type="curve" smooth="yes"/>
      <point x="267" y="654" type="line"/>
      <point x="159" y="654" type="line"/>
      <point x="89" y="304" type="line" smooth="yes"/>
      <point x="83" y="271"/>
      <point x="77" y="234"/>
      <point x="77" y="205" type="curve" smooth="yes"/>
      <point x="77" y="79"/>
      <point x="137" y="8"/>
      <point x="249" y="-8" type="curve"/>
      <point x="210" y="-36"/>
      <point x="163" y="-91"/>
      <point x="163" y="-144" type="curve" smooth="yes"/>
      <point x="163" y="-190"/>
      <point x="198" y="-216"/>
      <point x="248" y="-216" type="curve" smooth="yes"/>
      <point x="276" y="-216"/>
      <point x="313" y="-206"/>
      <point x="338" y="-190" type="curve"/>
      <point x="316" y="-135" type="line"/>
      <point x="305" y="-142"/>
      <point x="296" y="-145"/>
      <point x="285" y="-145" type="curve" smooth="yes"/>
      <point x="266" y="-145"/>
      <point x="250" y="-132"/>
      <point x="250" y="-110" type="curve" smooth="yes"/>
      <point x="250" y="-77"/>
      <point x="280" y="-32"/>
      <point x="353" y="-7" type="curve" smooth="yes"/>
      <point x="460" y="32"/>
      <point x="522" y="98"/>
      <point x="553" y="264" type="curve" smooth="yes"/>
    </contour>
  </outline>
</glyph>
<glyph name="V" format="1">
  <advance width="526"/>
  <outline>
    <contour>
      <point x="364" y="682" type="move" name="aboveUC"/>
    </contour>
    <contour>
      <point x="223" y="-30" type="move" name="belowLC"/>
    </contour>
    <contour>
      <point x="138" y="0" type="line"/>
      <point x="268" y="0" type="line"/>
      <point x="607" y="654" type="line"/>
      <point x="490" y="654" type="line"/>
      <point x="326" y="312" type="line" smooth="yes"/>
      <point x="294" y="242"/>
      <point x="261" y="169"/>
      <point x="229" y="99" type="curve"/>
      <point x="225" y="99" type="line"/>
      <point x="223" y="170"/>
      <point x="218" y="242"/>
      <point x="214" y="312" type="curve" smooth="yes"/>
      <point x="192" y="654" type="line"/>
      <point x="80" y="654" type="line"/>
    </contour>
  </outline>
</glyph>
<glyph name="W" format="1">
  <advance width="775"/>
  <outline>
    <contour>
      <point x="483" y="682" type="move" name="aboveUC"/>
    </contour>
    <contour>
      <point x="333" y="-30" type="move" name="belowLC"/>
    </contour>
    <contour>
      <point x="86" y="0" type="line"/>
      <point x="220" y="0" type="line"/>
      <point x="373" y="356" type="line" smooth="yes"/>
      <point x="394" y="407"/>
      <point x="416" y="458"/>
      <point x="434" y="509" type="curve"/>
      <point x="438" y="509" type="line"/>
      <point x="435" y="458"/>
      <point x="432" y="401"/>
      <point x="432" y="356" type="curve" smooth="yes"/>
      <point x="434" y="0" type="line"/>
      <point x="570" y="0" type="line"/>
      <point x="832" y="654" type="line"/>
      <point x="728" y="654" type="line"/>
      <point x="602" y="318" type="line" smooth="yes"/>
      <point x="577" y="249"/>
      <point x="549" y="177"/>
      <point x="524" y="106" type="curve"/>
      <point x="520" y="106" type="line"/>
      <point x="522" y="177"/>
      <point x="523" y="249"/>
      <point x="523" y="318" type="curve" smooth="yes"/>
      <point x="517" y="654" type="line"/>
      <point x="424" y="654" type="line"/>
      <point x="275" y="318" type="line" smooth="yes"/>
      <point x="247" y="249"/>
      <point x="215" y="177"/>
      <point x="186" y="106" type="curve"/>
      <point x="182" y="106" type="line"/>
      <point x="188" y="177"/>
      <point x="192" y="248"/>
      <point x="197" y="318" type="curve" smooth="yes"/>
      <point x="212" y="654" type="line"/>
      <point x="102" y="654" type="line"/>
    </contour>
  </outline>
</glyph>
<glyph name="X" format="1">
  <advance width="524"/>
  <outline>
    <contour>
      <point x="360" y="682" type="move" name="aboveUC"/>
    </contour>
    <contour>
      <point x="276" y="-30" type="move" name="belowLC"/>
    </contour>
    <contour>
      <point x="-36" y="0" type="line"/>
      <point x="79" y="0" type="line"/>
      <point x="188" y="160" type="line" smooth="yes"/>
      <point x="209" y="194"/>
      <point x="232" y="229"/>
      <point x="257" y="266" type="curve"/>
      <point x="260" y="266" type="line"/>
      <point x="270" y="229"/>
      <point x="279" y="196"/>
      <point x="289" y="163" type="curve" smooth="yes"/>
      <point x="337" y="0" type="line"/>
      <point x="456" y="0" type="line"/>
      <point x="342" y="332" type="line"/>
      <point x="576" y="654" type="line"/>
      <point x="461" y="654" type="line"/>
      <point x="362" y="504" type="line" smooth="yes"/>
      <point x="343" y="474"/>
      <point x="320" y="440"/>
      <point x="298" y="404" type="curve"/>
      <point x="294" y="404" type="line"/>
      <point x="284" y="441"/>
      <point x="277" y="472"/>
      <point x="269" y="502" type="curve" smooth="yes"/>
      <point x="225" y="654" type="line"/>
      <point x="106" y="654" type="line"/>
      <point x="211" y="338" type="line"/>
    </contour>
  </outline>
</glyph>
<glyph name="Z" format="1">
  <advance width="519"/>
  <outline>
    <contour>
      <point x="362" y="682" type="move" name="aboveUC"/>
    </contour>
    <contour>
      <point x="214" y="-30" type="move" name="belowLC"/>
    </contour>
    <contour>
      <point x="-3" y="0" type="line"/>
      <point x="435" y="0" type="line"/>
      <point x="454" y="91" type="line"/>
      <point x="148" y="91" type="line"/>
      <point x="535" y="589" type="line"/>
      <point x="548" y="654" type="line"/>
      <point x="141" y="654" type="line"/>
      <point x="123" y="563" type="line"/>
      <point x="401" y="563" type="line"/>
      <point x="11" y="65" type="line"/>
    </contour>
  </outline>
</glyph>
<glyph name="a.supa" format="1">
  <advance width="339"/>
  <outline>
    <contour>
      <point x="56" y="337" type="curve" smooth="yes"/>
      <point x="56" y="287"/>
      <point x="92" y="256"/>
      <point x="138" y="256" type="curve" smooth="yes"/>
      <point x="173" y="256"/>
      <point x="211" y="276"/>
      <point x="235" y="300" type="curve"/>
      <point x="239" y="300" type="line"/>
      <point x="238" y="264" type="line"/>
      <point x="300" y="264" type="line"/>
      <point x="336" y="448" type="line" smooth="yes"/>
      <point x="339" y="464"/>
      <point x="342" y="481"/>
      <point x="342" y="494" type="curve" smooth="yes"/>
      <point x="342" y="566"/>
      <point x="302" y="597"/>
      <point x="232" y="597" type="curve" smooth="yes"/>
      <point x="190" y="597"/>
      <point x="146" y="583"/>
      <point x="108" y="564" type="curve"/>
      <point x="132" y="511" type="line"/>
      <point x="164" y="526"/>
      <point x="188" y="536"/>
      <point x="215" y="536" type="curve" smooth="yes"/>
      <point x="249" y="536"/>
      <point x="265" y="520"/>
      <point x="265" y="486" type="curve" smooth="yes"/>
      <point x="265" y="480"/>
      <point x="264" y="476"/>
      <point x="263" y="468" type="curve"/>
      <point x="146" y="464"/>
      <point x="56" y="430"/>
    </contour>
    <contour>
      <point x="254" y="420" type="curve"/>
      <point x="240" y="351" type="line"/>
      <point x="217" y="330"/>
      <point x="194" y="315"/>
      <point x="170" y="315" type="curve" smooth="yes"/>
      <point x="147" y="315"/>
      <point x="131" y="327"/>
      <point x="131" y="352" type="curve" smooth="yes"/>
      <point x="131" y="393"/>
      <point x="175" y="417"/>
    </contour>
  </outline>
</glyph>
<glyph name="a.sups" format="1">
  <advance width="360"/>
  <outline>
    <contour>
      <point x="81" y="496" type="curve" smooth="yes"/>
      <point x="81" y="419"/>
      <point x="118" y="377"/>
      <point x="175" y="377" type="curve" smooth="yes"/>
      <point x="213" y="377"/>
      <point x="252" y="397"/>
      <point x="282" y="430" type="curve"/>
      <point x="286" y="430" type="line"/>
      <point x="282" y="385" type="line"/>
      <point x="345" y="385" type="line"/>
      <point x="409" y="710" type="line"/>
      <point x="347" y="710" type="line"/>
      <point x="333" y="673" type="line"/>
      <point x="329" y="673" type="line"/>
      <point x="314" y="702"/>
      <point x="288" y="718"/>
      <point x="258" y="718" type="curve" smooth="yes"/>
      <point x="167" y="718"/>
      <point x="81" y="620"/>
    </contour>
    <contour>
      <point x="205" y="440" type="curve" smooth="yes"/>
      <point x="179" y="440"/>
      <point x="160" y="461"/>
      <point x="160" y="506" type="curve" smooth="yes"/>
      <point x="160" y="587"/>
      <point x="211" y="655"/>
      <point x="262" y="655" type="curve" smooth="yes"/>
      <point x="281" y="655"/>
      <point x="300" y="644"/>
      <point x="313" y="617" type="curve"/>
      <point x="290" y="495" type="line"/>
      <point x="264" y="458"/>
      <point x="232" y="440"/>
    </contour>
  </outline>
</glyph>
<glyph name="acutecmb.cap" format="1">
  <advance width="0"/>
  <outline>
    <contour>
      <point x="136" y="682" type="move" name="_aboveUC"/>
    </contour>
    <contour>
      <point x="104" y="692" type="line"/>
      <point x="282" y="794" type="line"/>
      <point x="224" y="864" type="line"/>
      <point x="56" y="747" type="line"/>
    </contour>
  </outline>
</glyph>
<glyph name="acutecmb" format="1">
  <advance width="0"/>
  <outline>
    <contour>
      <point x="110" y="514" type="move" name="_aboveLC"/>
    </contour>
    <contour>
      <point x="91" y="579" type="line"/>
      <point x="285" y="717" type="line"/>
      <point x="220" y="800" type="line"/>
      <point x="43" y="640" type="line"/>
    </contour>
  </outline>
</glyph>
<glyph name="acutecmb.cap" format="1">
  <advance width="0"/>
  <outline>
    <contour>
      <point x="136" y="682" type="move" name="_aboveUC"/>
    </contour>
    <contour>
      <point x="102" y="694" type="line"/>
      <point x="290" y="796" type="line"/>
      <point x="240" y="876" type="line"/>
      <point x="60" y="756" type="line"/>
    </contour>
  </outline>
</glyph>
<glyph name="aogonek.alt" format="1">
	<advance width="503"/>
	<outline>
		<contour>
			<point x="301" y="4" type="line"/>
			<point x="259" y="-22"/>
			<point x="199" y="-76"/>
			<point x="199" y="-138" type="curve" smooth="yes"/>
			<point x="199" y="-184"/>
			<point x="233" y="-208"/>
			<point x="280" y="-208" type="curve" smooth="yes"/>
			<point x="308" y="-208"/>
			<point x="344" y="-195"/>
			<point x="370" y="-178" type="curve"/>
			<point x="350" y="-130" type="line"/>
			<point x="338" y="-137"/>
			<point x="328" y="-141"/>
			<point x="315" y="-141" type="curve" smooth="yes"/>
			<point x="296" y="-141"/>
			<point x="280" y="-129"/>
			<point x="280" y="-108" type="curve" smooth="yes"/>
			<point x="280" y="-65"/>
			<point x="321" y="-26"/>
			<point x="388" y="0" type="curve"/>
			<point x="443" y="280" type="line"/>
			<point x="448" y="304"/>
			<point x="451" y="329"/>
			<point x="451" y="350" type="curve" smooth="yes"/>
			<point x="451" y="456"/>
			<point x="392" y="503"/>
			<point x="290" y="503" type="curve" smooth="yes"/>
			<point x="228" y="503"/>
			<point x="161" y="482"/>
			<point x="106" y="453" type="curve"/>
			<point x="140" y="378" type="line"/>
			<point x="187" y="403"/>
			<point x="226" y="418"/>
			<point x="268" y="418" type="curve" smooth="yes"/>
			<point x="318" y="418"/>
			<point x="345" y="398"/>
			<point x="345" y="339" type="curve" smooth="yes"/>
			<point x="345" y="329"/>
			<point x="344" y="320"/>
			<point x="341" y="306" type="curve"/>
			<point x="160" y="301"/>
			<point x="27" y="251"/>
			<point x="27" y="109" type="curve" smooth="yes"/>
			<point x="27" y="33"/>
			<point x="83" y="-12"/>
			<point x="150" y="-12" type="curve" smooth="yes"/>
			<point x="203" y="-12"/>
			<point x="260" y="18"/>
			<point x="299" y="54" type="curve"/>
			<point x="302" y="54" type="line"/>
		</contour>
		<contour>
			<point x="328" y="238" type="curve"/>
			<point x="305" y="125" type="line"/>
			<point x="267" y="91"/>
			<point x="233" y="72"/>
			<point x="198" y="72" type="curve" smooth="yes"/>
			<point x="159" y="72"/>
			<point x="132" y="91"/>
			<point x="132" y="131" type="curve" smooth="yes"/>
			<point x="132" y="196"/>
			<point x="200" y="235"/>
		</contour>
		<contour>
			<point name="aboveLC" x="305" y="514" type="move"/>
		</contour>
	</outline>
</glyph>
<glyph name="aogonek" format="1">
  <advance width="544"/>
  <outline>
    <contour>
      <point x="315" y="-208" type="curve" smooth="yes"/>
      <point x="343" y="-208"/>
      <point x="380" y="-195"/>
      <point x="405" y="-178" type="curve"/>
      <point x="385" y="-130" type="line"/>
      <point x="374" y="-137"/>
      <point x="363" y="-141"/>
      <point x="350" y="-141" type="curve" smooth="yes"/>
      <point x="331" y="-141"/>
      <point x="315" y="-129"/>
      <point x="315" y="-108" type="curve" smooth="yes"/>
      <point x="315" y="-65"/>
      <point x="356" y="-26"/>
      <point x="423" y="0" type="curve"/>
      <point x="521" y="491" type="line"/>
      <point x="435" y="491" type="line"/>
      <point x="414" y="433" type="line"/>
      <point x="412" y="433" type="line"/>
      <point x="391" y="475"/>
      <point x="347" y="503"/>
      <point x="299" y="503" type="curve" smooth="yes"/>
      <point x="163" y="503"/>
      <point x="35" y="355"/>
      <point x="35" y="167" type="curve" smooth="yes"/>
      <point x="35" y="52"/>
      <point x="89" y="-12"/>
      <point x="175" y="-12" type="curve" smooth="yes"/>
      <point x="231" y="-12"/>
      <point x="292" y="21"/>
      <point x="338" y="69" type="curve"/>
      <point x="340" y="69" type="line"/>
      <point x="336" y="4" type="line"/>
      <point x="294" y="-22"/>
      <point x="234" y="-76"/>
      <point x="234" y="-138" type="curve" smooth="yes"/>
      <point x="234" y="-184"/>
      <point x="268" y="-208"/>
    </contour>
    <contour>
      <point x="219" y="76" type="curve" smooth="yes"/>
      <point x="174" y="76"/>
      <point x="146" y="110"/>
      <point x="146" y="182" type="curve" smooth="yes"/>
      <point x="146" y="308"/>
      <point x="222" y="415"/>
      <point x="305" y="415" type="curve" smooth="yes"/>
      <point x="335" y="415"/>
      <point x="366" y="398"/>
      <point x="388" y="356" type="curve"/>
      <point x="348" y="159" type="line"/>
      <point x="308" y="100"/>
      <point x="257" y="76"/>
    </contour>
    <contour>
      <point x="319" y="514" type="move" name="aboveLC"/>
    </contour>
  </outline>
</glyph>
<glyph name="arrowright" format="1">
  <advance width="592"/>
  <outline>
    <contour>
      <point x="310" y="-17" type="line"/>
      <point x="574" y="248" type="line"/>
      <point x="574" y="253" type="line"/>
      <point x="310" y="519" type="line"/>
      <point x="259" y="461" type="line"/>
      <point x="429" y="294" type="line"/>
      <point x="19" y="294" type="line"/>
      <point x="19" y="207" type="line"/>
      <point x="429" y="207" type="line"/>
      <point x="259" y="40" type="line"/>
    </contour>
  </outline>
</glyph>
<glyph name="arrowup" format="1">
  <advance width="593"/>
  <outline>
    <contour>
      <point x="253" y="-27" type="line"/>
      <point x="340" y="-27" type="line"/>
      <point x="340" y="384" type="line"/>
      <point x="507" y="213" type="line"/>
      <point x="564" y="264" type="line"/>
      <point x="299" y="528" type="line"/>
      <point x="294" y="528" type="line"/>
      <point x="28" y="264" type="line"/>
      <point x="86" y="213" type="line"/>
      <point x="253" y="384" type="line"/>
    </contour>
  </outline>
</glyph>
<glyph name="asciicircum" format="1">
  <advance width="493"/>
  <outline>
    <contour>
      <point x="78" y="279" type="line"/>
      <point x="167" y="279" type="line"/>
      <point x="222" y="435" type="line"/>
      <point x="267" y="569" type="line"/>
      <point x="270" y="569" type="line"/>
      <point x="315" y="435" type="line"/>
      <point x="370" y="279" type="line"/>
      <point x="458" y="279" type="line"/>
      <point x="310" y="670" type="line"/>
      <point x="225" y="670" type="line"/>
    </contour>
  </outline>
</glyph>
<glyph name="asciitilde" format="1">
  <advance width="494"/>
  <outline>
    <contour>
      <point x="337" y="253" type="curve" smooth="yes"/>
      <point x="382" y="253"/>
      <point x="430" y="280"/>
      <point x="468" y="349" type="curve"/>
      <point x="412" y="386" type="line"/>
      <point x="391" y="346"/>
      <point x="368" y="328"/>
      <point x="341" y="328" type="curve" smooth="yes"/>
      <point x="288" y="328"/>
      <point x="247" y="409"/>
      <point x="173" y="409" type="curve" smooth="yes"/>
      <point x="128" y="409"/>
      <point x="80" y="382"/>
      <point x="42" y="313" type="curve"/>
      <point x="98" y="276" type="line"/>
      <point x="119" y="316"/>
      <point x="142" y="334"/>
      <point x="169" y="334" type="curve" smooth="yes"/>
      <point x="222" y="334"/>
      <point x="263" y="253"/>
    </contour>
  </outline>
</glyph>
<glyph name="asterisk" format="1">
  <advance width="421"/>
  <outline>
    <contour>
      <point x="174" y="399" type="line"/>
      <point x="258" y="478" type="line"/>
      <point x="315" y="387" type="line"/>
      <point x="367" y="417" type="line"/>
      <point x="329" y="519" type="line"/>
      <point x="436" y="554" type="line"/>
      <point x="427" y="610" type="line"/>
      <point x="319" y="596" type="line"/>
      <point x="327" y="709" type="line"/>
      <point x="269" y="713" type="line"/>
      <point x="240" y="603" type="line"/>
      <point x="138" y="636" type="line"/>
      <point x="113" y="584" type="line"/>
      <point x="204" y="532" type="line"/>
      <point x="132" y="438" type="line"/>
    </contour>
  </outline>
</glyph>
<glyph name="b.sups" format="1">
  <advance width="365"/>
  <outline>
    <contour>
      <point x="111" y="264" type="line"/>
      <point x="126" y="301" type="line"/>
      <point x="130" y="301" type="line"/>
      <point x="144" y="272"/>
      <point x="170" y="256"/>
      <point x="200" y="256" type="curve" smooth="yes"/>
      <point x="291" y="256"/>
      <point x="377" y="354"/>
      <point x="377" y="478" type="curve" smooth="yes"/>
      <point x="377" y="555"/>
      <point x="340" y="598"/>
      <point x="283" y="598" type="curve" smooth="yes"/>
      <point x="246" y="598"/>
      <point x="211" y="579"/>
      <point x="183" y="554" type="curve"/>
      <point x="180" y="554" type="line"/>
      <point x="198" y="619" type="line"/>
      <point x="220" y="730" type="line"/>
      <point x="142" y="730" type="line"/>
      <point x="49" y="264" type="line"/>
    </contour>
    <contour>
      <point x="254" y="534" type="curve" smooth="yes"/>
      <point x="279" y="534"/>
      <point x="298" y="514"/>
      <point x="298" y="468" type="curve" smooth="yes"/>
      <point x="298" y="387"/>
      <point x="247" y="320"/>
      <point x="196" y="320" type="curve" smooth="yes"/>
      <point x="178" y="320"/>
      <point x="159" y="330"/>
      <point x="146" y="357" type="curve"/>
      <point x="170" y="486" type="line"/>
      <point x="196" y="520"/>
      <point x="227" y="534"/>
    </contour>
  </outline>
</glyph>
<glyph name="backslash" format="1">
  <advance width="334"/>
  <outline>
    <contour>
      <point x="182" y="-160" type="line"/>
      <point x="254" y="-160" type="line"/>
      <point x="157" y="710" type="line"/>
      <point x="86" y="710" type="line"/>
    </contour>
  </outline>
</glyph>
<glyph name="bar" format="1">
  <advance width="243"/>
  <outline>
    <contour>
      <point x="92" y="-250" type="line"/>
      <point x="161" y="-250" type="line"/>
      <point x="161" y="750" type="line"/>
      <point x="92" y="750" type="line"/>
    </contour>
  </outline>
</glyph>
<glyph name="braceleft" format="1">
  <advance width="309"/>
  <outline>
    <contour>
      <point x="138" y="-152" type="curve" smooth="yes"/>
      <point x="191" y="-152" type="line"/>
      <point x="203" y="-93" type="line"/>
      <point x="183" y="-93" type="line" smooth="yes"/>
      <point x="145" y="-93"/>
      <point x="134" y="-79"/>
      <point x="134" y="-49" type="curve" smooth="yes"/>
      <point x="134" y="10"/>
      <point x="183" y="138"/>
      <point x="183" y="207" type="curve" smooth="yes"/>
      <point x="183" y="242"/>
      <point x="168" y="263"/>
      <point x="133" y="273" type="curve"/>
      <point x="134" y="277" type="line"/>
      <point x="183" y="289"/>
      <point x="210" y="322"/>
      <point x="225" y="393" type="curve" smooth="yes"/>
      <point x="236" y="453"/>
      <point x="243" y="509"/>
      <point x="254" y="564" type="curve" smooth="yes"/>
      <point x="265" y="624"/>
      <point x="282" y="649"/>
      <point x="329" y="649" type="curve" smooth="yes"/>
      <point x="351" y="649" type="line"/>
      <point x="364" y="708" type="line"/>
      <point x="309" y="708" type="line" smooth="yes"/>
      <point x="225" y="708"/>
      <point x="190" y="675"/>
      <point x="169" y="569" type="curve" smooth="yes"/>
      <point x="155" y="500"/>
      <point x="153" y="452"/>
      <point x="141" y="389" type="curve" smooth="yes"/>
      <point x="134" y="352"/>
      <point x="111" y="312"/>
      <point x="43" y="310" type="curve"/>
      <point x="29" y="246" type="line"/>
      <point x="85" y="244"/>
      <point x="99" y="216"/>
      <point x="99" y="188" type="curve" smooth="yes"/>
      <point x="99" y="135"/>
      <point x="46" y="8"/>
      <point x="46" y="-68" type="curve" smooth="yes"/>
      <point x="46" y="-125"/>
      <point x="72" y="-152"/>
    </contour>
  </outline>
</glyph>
<glyph name="braceright" format="1">
  <advance width="312"/>
  <outline>
    <contour>
      <point x="-45" y="-152" type="line"/>
      <point x="10" y="-152" type="line" smooth="yes"/>
      <point x="93" y="-152"/>
      <point x="129" y="-120"/>
      <point x="150" y="-14" type="curve" smooth="yes"/>
      <point x="164" y="55"/>
      <point x="166" y="104"/>
      <point x="178" y="167" type="curve" smooth="yes"/>
      <point x="185" y="204"/>
      <point x="208" y="244"/>
      <point x="276" y="246" type="curve"/>
      <point x="290" y="310" type="line"/>
      <point x="234" y="312"/>
      <point x="220" y="340"/>
      <point x="220" y="367" type="curve" smooth="yes"/>
      <point x="220" y="421"/>
      <point x="273" y="548"/>
      <point x="273" y="624" type="curve" smooth="yes"/>
      <point x="273" y="680"/>
      <point x="247" y="708"/>
      <point x="181" y="708" type="curve" smooth="yes"/>
      <point x="128" y="708" type="line"/>
      <point x="116" y="649" type="line"/>
      <point x="136" y="649" type="line" smooth="yes"/>
      <point x="174" y="649"/>
      <point x="185" y="635"/>
      <point x="185" y="604" type="curve" smooth="yes"/>
      <point x="185" y="545"/>
      <point x="136" y="417"/>
      <point x="136" y="349" type="curve" smooth="yes"/>
      <point x="136" y="314"/>
      <point x="150" y="293"/>
      <point x="186" y="283" type="curve"/>
      <point x="185" y="279" type="line"/>
      <point x="136" y="267"/>
      <point x="109" y="234"/>
      <point x="94" y="162" type="curve" smooth="yes"/>
      <point x="83" y="102"/>
      <point x="76" y="46"/>
      <point x="65" y="-9" type="curve" smooth="yes"/>
      <point x="54" y="-69"/>
      <point x="37" y="-93"/>
      <point x="-10" y="-93" type="curve" smooth="yes"/>
      <point x="-32" y="-93" type="line"/>
    </contour>
  </outline>
</glyph>
<glyph name="brackhalfbotleft" format="1">
  <advance width="311"/>
  <outline>
    <contour>
      <point x="2" y="-152" type="line"/>
      <point x="188" y="-152" type="line"/>
      <point x="200" y="-93" type="line"/>
      <point x="95" y="-93" type="line"/>
      <point x="169" y="278" type="line"/>
      <point x="88" y="278" type="line"/>
    </contour>
  </outline>
</glyph>
<glyph name="brackhalfbotright" format="1">
  <advance width="312"/>
  <outline>
    <contour>
      <point x="-39" y="-152" type="line"/>
      <point x="147" y="-152" type="line"/>
      <point x="233" y="278" type="line"/>
      <point x="151" y="278" type="line"/>
      <point x="78" y="-93" type="line"/>
      <point x="-28" y="-93" type="line"/>
    </contour>
  </outline>
</glyph>
<glyph name="brackhalftopleft" format="1">
  <advance width="311"/>
  <outline>
    <contour>
      <point x="88" y="278" type="line"/>
      <point x="170" y="278" type="line"/>
      <point x="244" y="649" type="line"/>
      <point x="349" y="649" type="line"/>
      <point x="360" y="708" type="line"/>
      <point x="174" y="708" type="line"/>
    </contour>
  </outline>
</glyph>
<glyph name="breveacute.cap" format="1">
  <advance width="0"/>
  <outline>
    <contour>
      <point x="106" y="682" type="move" name="_aboveUC"/>
    </contour>
    <contour>
      <point x="60" y="840" type="line"/>
      <point x="115" y="804" type="line"/>
      <point x="244" y="915" type="line"/>
      <point x="173" y="958" type="line"/>
    </contour>
    <contour>
      <point x="95" y="700" type="curve" smooth="yes"/>
      <point x="184" y="700"/>
      <point x="241" y="749"/>
      <point x="261" y="824" type="curve"/>
      <point x="205" y="833" type="line"/>
      <point x="188" y="791"/>
      <point x="153" y="763"/>
      <point x="106" y="763" type="curve" smooth="yes"/>
      <point x="59" y="763"/>
      <point x="35" y="790"/>
      <point x="34" y="833" type="curve"/>
      <point x="-27" y="824" type="line"/>
      <point x="-32" y="750"/>
      <point x="6" y="700"/>
    </contour>
  </outline>
</glyph>
<glyph name="breveacute" format="1">
  <advance width="0"/>
  <outline>
    <contour>
      <point x="110" y="514" type="move" name="_aboveLC"/>
    </contour>
    <contour>
      <point x="114" y="571" type="curve" smooth="yes"/>
      <point x="226" y="571"/>
      <point x="287" y="644"/>
      <point x="305" y="726" type="curve"/>
      <point x="245" y="737" type="line"/>
      <point x="228" y="686"/>
      <point x="189" y="639"/>
      <point x="127" y="639" type="curve" smooth="yes"/>
      <point x="65" y="639"/>
      <point x="41" y="686"/>
      <point x="44" y="737" type="curve"/>
      <point x="-21" y="726" type="line"/>
      <point x="-30" y="644"/>
      <point x="5" y="571"/>
    </contour>
    <contour>
      <point x="140" y="706" type="line"/>
      <point x="270" y="808" type="line"/>
      <point x="210" y="866" type="line"/>
      <point x="96" y="747" type="line"/>
    </contour>
  </outline>
</glyph>
<glyph name="breveacute.cap" format="1">
  <advance width="0"/>
  <outline>
    <contour>
      <point x="136" y="682" type="move" name="_aboveUC"/>
    </contour>
    <contour>
      <point x="123" y="701" type="curve" smooth="yes"/>
      <point x="220" y="701"/>
      <point x="280" y="754"/>
      <point x="302" y="834" type="curve"/>
      <point x="245" y="845" type="line"/>
      <point x="226" y="797"/>
      <point x="189" y="764"/>
      <point x="135" y="764" type="curve" smooth="yes"/>
      <point x="81" y="764"/>
      <point x="55" y="797"/>
      <point x="54" y="845" type="curve"/>
      <point x="-8" y="834" type="line"/>
      <point x="-12" y="754"/>
      <point x="28" y="701"/>
    </contour>
    <contour>
      <point x="146" y="816" type="line"/>
      <point x="277" y="923" type="line"/>
      <point x="214" y="975" type="line"/>
      <point x="96" y="858" type="line"/>
    </contour>
  </outline>
</glyph>
<glyph name="brevecmb.cap" format="1">
  <advance width="0"/>
  <outline>
    <contour>
      <point x="136" y="682" type="move" name="_aboveUC"/>
    </contour>
    <contour>
      <point x="124" y="700" type="curve" smooth="yes"/>
      <point x="213" y="700"/>
      <point x="269" y="750"/>
      <point x="290" y="825" type="curve"/>
      <point x="228" y="835" type="line"/>
      <point x="212" y="797"/>
      <point x="180" y="770"/>
      <point x="136" y="770" type="curve" smooth="yes"/>
      <point x="92" y="770"/>
      <point x="68" y="796"/>
      <point x="68" y="835" type="curve"/>
      <point x="2" y="825" type="line"/>
      <point x="-3" y="751"/>
      <point x="35" y="700"/>
    </contour>
  </outline>
</glyph>
<glyph name="brevecmb.cap" format="1">
  <advance width="0"/>
  <outline>
    <contour>
      <point x="136" y="682" type="move" name="_aboveUC"/>
    </contour>
    <contour>
      <point x="123" y="701" type="curve" smooth="yes"/>
      <point x="220" y="701"/>
      <point x="280" y="754"/>
      <point x="302" y="834" type="curve"/>
      <point x="239" y="845" type="line"/>
      <point x="221" y="801"/>
      <point x="187" y="770"/>
      <point x="136" y="770" type="curve" smooth="yes"/>
      <point x="86" y="770"/>
      <point x="60" y="801"/>
      <point x="60" y="845" type="curve"/>
      <point x="-8" y="834" type="line"/>
      <point x="-12" y="754"/>
      <point x="28" y="701"/>
    </contour>
  </outline>
</glyph>
<glyph name="brevegrave.cap" format="1">
  <advance width="0"/>
  <outline>
    <contour>
      <point x="136" y="682" type="move" name="_aboveUC"/>
    </contour>
    <contour>
      <point x="123" y="701" type="curve" smooth="yes"/>
      <point x="220" y="701"/>
      <point x="280" y="754"/>
      <point x="302" y="834" type="curve"/>
      <point x="245" y="845" type="line"/>
      <point x="226" y="797"/>
      <point x="189" y="764"/>
      <point x="135" y="764" type="curve" smooth="yes"/>
      <point x="81" y="764"/>
      <point x="55" y="797"/>
      <point x="54" y="845" type="curve"/>
      <point x="-8" y="834" type="line"/>
      <point x="-12" y="754"/>
      <point x="28" y="701"/>
    </contour>
    <contour>
      <point x="141" y="811" type="line"/>
      <point x="203" y="844" type="line"/>
      <point x="130" y="976" type="line"/>
      <point x="51" y="937" type="line"/>
    </contour>
  </outline>
</glyph>
<glyph name="brevegrave" format="1">
	<outline>
		<contour>
			<point x="114" y="571" type="curve" smooth="yes"/>
			<point x="226" y="571"/>
			<point x="287" y="644"/>
			<point x="305" y="726" type="curve"/>
			<point x="245" y="737" type="line"/>
			<point x="228" y="686"/>
			<point x="189" y="639"/>
			<point x="127" y="639" type="curve" smooth="yes"/>
			<point x="65" y="639"/>
			<point x="41" y="686"/>
			<point x="44" y="737" type="curve"/>
			<point x="-21" y="726" type="line"/>
			<point x="-30" y="644"/>
			<point x="5" y="571"/>
		</contour>
		<contour>
			<point x="136" y="701" type="line"/>
			<point x="193" y="732" type="line"/>
			<point x="123" y="868" type="line"/>
			<point x="46" y="822" type="line"/>
		</contour>
		<contour>
			<point name="_aboveLC" x="110" y="514" type="move"/>
		</contour>
	</outline>
</glyph>
<glyph name="brevehoi.cap" format="1">
  <outline>
    <contour>
      <point x="122" y="701" type="curve" smooth="yes"/>
      <point x="219" y="701"/>
      <point x="279" y="754"/>
      <point x="303" y="834" type="curve"/>
      <point x="245" y="845" type="line"/>
      <point x="226" y="797"/>
      <point x="188" y="764"/>
      <point x="135" y="764" type="curve" smooth="yes"/>
      <point x="81" y="764"/>
      <point x="54" y="797"/>
      <point x="54" y="845" type="curve"/>
      <point x="-7" y="834" type="line"/>
      <point x="-13" y="754"/>
      <point x="27" y="701"/>
    </contour>
    <contour>
      <point x="114" y="803" type="line"/>
      <point x="172" y="810"/>
      <point x="224" y="831"/>
      <point x="235" y="886" type="curve" smooth="yes"/>
      <point x="243" y="932"/>
      <point x="209" y="960"/>
      <point x="116" y="963" type="curve"/>
      <point x="95" y="912" type="line"/>
      <point x="144" y="908"/>
      <point x="160" y="898"/>
      <point x="156" y="876" type="curve" smooth="yes"/>
      <point x="152" y="857"/>
      <point x="134" y="849"/>
      <point x="111" y="844" type="curve"/>
    </contour>
    <contour>
      <point x="135" y="682" type="move" name="_aboveUC"/>
    </contour>
  </outline>
</glyph>
<glyph name="brevehoi" format="1">
  <advance width="0"/>
  <outline>
    <contour>
      <point x="93" y="514" type="move" name="_aboveLC"/>
    </contour>
    <contour>
      <point x="83" y="693" type="line"/>
      <point x="146" y="701"/>
      <point x="194" y="719"/>
      <point x="201" y="779" type="curve" smooth="yes"/>
      <point x="207" y="826"/>
      <point x="179" y="861"/>
      <point x="85" y="871" type="curve"/>
      <point x="64" y="809" type="line"/>
      <point x="113" y="802"/>
      <point x="126" y="791"/>
      <point x="123" y="772" type="curve" smooth="yes"/>
      <point x="122" y="751"/>
      <point x="108" y="742"/>
      <point x="80" y="734" type="curve"/>
    </contour>
    <contour>
      <point x="96" y="574" type="curve" smooth="yes"/>
      <point x="198" y="574"/>
      <point x="252" y="638"/>
      <point x="270" y="715" type="curve"/>
      <point x="212" y="725" type="line"/>
      <point x="195" y="677"/>
      <point x="160" y="641"/>
      <point x="108" y="641" type="curve" smooth="yes"/>
      <point x="56" y="641"/>
      <point x="35" y="676"/>
      <point x="37" y="725" type="curve"/>
      <point x="-26" y="715" type="line"/>
      <point x="-36" y="638"/>
      <point x="-4" y="574"/>
    </contour>
  </outline>
</glyph>
<glyph name="brevehoi.cap" format="1">
  <advance width="0"/>
  <outline>
    <contour>
      <point x="135" y="682" type="move" name="_aboveUC"/>
    </contour>
    <contour>
      <point x="122" y="701" type="curve" smooth="yes"/>
      <point x="219" y="701"/>
      <point x="279" y="754"/>
      <point x="303" y="834" type="curve"/>
      <point x="245" y="845" type="line"/>
      <point x="226" y="797"/>
      <point x="188" y="764"/>
      <point x="135" y="764" type="curve" smooth="yes"/>
      <point x="81" y="764"/>
      <point x="54" y="797"/>
      <point x="54" y="845" type="curve"/>
      <point x="-7" y="834" type="line"/>
      <point x="-13" y="754"/>
      <point x="27" y="701"/>
    </contour>
    <contour>
      <point x="114" y="803" type="line"/>
      <point x="172" y="810"/>
      <point x="224" y="831"/>
      <point x="235" y="886" type="curve" smooth="yes"/>
      <point x="243" y="932"/>
      <point x="209" y="960"/>
      <point x="116" y="963" type="curve"/>
      <point x="95" y="912" type="line"/>
      <point x="144" y="908"/>
      <point x="160" y="898"/>
      <point x="156" y="876" type="curve" smooth="yes"/>
      <point x="152" y="857"/>
      <point x="134" y="849"/>
      <point x="111" y="844" type="curve"/>
    </contour>
  </outline>
</glyph>
<glyph name="brevetilde.cap" format="1">
  <outline>
    <contour>
      <point x="126" y="705" type="curve" smooth="yes"/>
      <point x="222" y="705"/>
      <point x="277" y="752"/>
      <point x="296" y="814" type="curve"/>
      <point x="239" y="824" type="line"/>
      <point x="225" y="792"/>
      <point x="194" y="763"/>
      <point x="137" y="763" type="curve" smooth="yes"/>
      <point x="79" y="763"/>
      <point x="58" y="792"/>
      <point x="56" y="824" type="curve"/>
      <point x="-4" y="814" type="line"/>
      <point x="-8" y="752"/>
      <point x="30" y="705"/>
    </contour>
    <contour>
      <point x="215" y="845" type="curve" smooth="yes"/>
      <point x="270" y="845"/>
      <point x="304" y="882"/>
      <point x="318" y="946" type="curve"/>
      <point x="262" y="953" type="line"/>
      <point x="254" y="925"/>
      <point x="241" y="910"/>
      <point x="220" y="910" type="curve" smooth="yes"/>
      <point x="186" y="910"/>
      <point x="168" y="957"/>
      <point x="108" y="957" type="curve" smooth="yes"/>
      <point x="53" y="957"/>
      <point x="19" y="920"/>
      <point x="4" y="856" type="curve"/>
      <point x="61" y="849" type="line"/>
      <point x="70" y="877"/>
      <point x="82" y="892"/>
      <point x="103" y="892" type="curve" smooth="yes"/>
      <point x="137" y="892"/>
      <point x="156" y="845"/>
    </contour>
    <contour>
      <point x="136" y="682" type="move" name="_aboveUC"/>
    </contour>
  </outline>
</glyph>
<glyph name="brevetilde" format="1">
  <outline>
    <contour>
      <point x="115" y="571" type="curve" smooth="yes"/>
      <point x="216" y="571"/>
      <point x="268" y="626"/>
      <point x="284" y="682" type="curve"/>
      <point x="226" y="692" type="line"/>
      <point x="215" y="662"/>
      <point x="183" y="632"/>
      <point x="126" y="632" type="curve" smooth="yes"/>
      <point x="69" y="632"/>
      <point x="48" y="662"/>
      <point x="47" y="692" type="curve"/>
      <point x="-14" y="682" type="line"/>
      <point x="-19" y="626"/>
      <point x="14" y="571"/>
    </contour>
    <contour>
      <point x="202" y="712" type="curve" smooth="yes"/>
      <point x="253" y="712"/>
      <point x="289" y="748"/>
      <point x="307" y="812" type="curve"/>
      <point x="247" y="818" type="line"/>
      <point x="236" y="790"/>
      <point x="225" y="778"/>
      <point x="207" y="778" type="curve" smooth="yes"/>
      <point x="173" y="778"/>
      <point x="155" y="820"/>
      <point x="98" y="820" type="curve" smooth="yes"/>
      <point x="46" y="820"/>
      <point x="11" y="784"/>
      <point x="-6" y="720" type="curve"/>
      <point x="54" y="714" type="line"/>
      <point x="64" y="742"/>
      <point x="75" y="754"/>
      <point x="92" y="754" type="curve" smooth="yes"/>
      <point x="126" y="754"/>
      <point x="145" y="712"/>
    </contour>
    <contour>
      <point x="110" y="514" type="move" name="_aboveLC"/>
    </contour>
  </outline>
</glyph>
<glyph name="brokenbar" format="1">
  <advance width="243"/>
  <outline>
    <contour>
      <point x="92" y="299" type="line"/>
      <point x="161" y="299" type="line"/>
      <point x="161" y="750" type="line"/>
      <point x="92" y="750" type="line"/>
    </contour>
    <contour>
      <point x="92" y="-250" type="line"/>
      <point x="161" y="-250" type="line"/>
      <point x="161" y="209" type="line"/>
      <point x="92" y="209" type="line"/>
    </contour>
  </outline>
</glyph>
<glyph name="bstroke" format="1">
  <advance width="533"/>
  <outline>
    <contour>
      <point x="111" y="0" type="line"/>
      <point x="132" y="57" type="line"/>
      <point x="134" y="57" type="line"/>
      <point x="156" y="15"/>
      <point x="196" y="-12"/>
      <point x="245" y="-12" type="curve" smooth="yes"/>
      <point x="380" y="-12"/>
      <point x="504" y="132"/>
      <point x="504" y="314" type="curve" smooth="yes"/>
      <point x="504" y="423"/>
      <point x="451" y="483"/>
      <point x="364" y="483" type="curve" smooth="yes"/>
      <point x="310" y="483"/>
      <point x="256" y="455"/>
      <point x="210" y="418" type="curve"/>
      <point x="208" y="418" type="line"/>
      <point x="232" y="512" type="line"/>
      <point x="271" y="706" type="line"/>
      <point x="164" y="706" type="line"/>
      <point x="22" y="0" type="line"/>
    </contour>
    <contour>
      <point x="320" y="395" type="curve" smooth="yes"/>
      <point x="365" y="395"/>
      <point x="394" y="364"/>
      <point x="394" y="300" type="curve" smooth="yes"/>
      <point x="394" y="179"/>
      <point x="321" y="76"/>
      <point x="238" y="76" type="curve" smooth="yes"/>
      <point x="207" y="76"/>
      <point x="178" y="94"/>
      <point x="157" y="136" type="curve"/>
      <point x="195" y="324" type="line"/>
      <point x="232" y="372"/>
      <point x="282" y="395"/>
    </contour>
    <contour>
      <point x="66" y="565" type="line"/>
      <point x="410" y="565" type="line"/>
      <point x="422" y="621" type="line"/>
      <point x="150" y="621" type="line"/>
      <point x="76" y="616" type="line"/>
    </contour>
  </outline>
</glyph>
<glyph name="c.sups" format="1">
  <advance width="294"/>
  <outline>
    <contour>
      <point x="184" y="256" type="curve" smooth="yes"/>
      <point x="227" y="256"/>
      <point x="264" y="273"/>
      <point x="284" y="290" type="curve"/>
      <point x="259" y="339" type="line"/>
      <point x="242" y="329"/>
      <point x="224" y="318"/>
      <point x="200" y="318" type="curve" smooth="yes"/>
      <point x="164" y="318"/>
      <point x="134" y="343"/>
      <point x="134" y="395" type="curve" smooth="yes"/>
      <point x="134" y="462"/>
      <point x="179" y="535"/>
      <point x="240" y="535" type="curve" smooth="yes"/>
      <point x="261" y="535"/>
      <point x="275" y="528"/>
      <point x="289" y="511" type="curve"/>
      <point x="334" y="558" type="line"/>
      <point x="314" y="580"/>
      <point x="283" y="598"/>
      <point x="244" y="598" type="curve" smooth="yes"/>
      <point x="135" y="598"/>
      <point x="56" y="494"/>
      <point x="56" y="386" type="curve" smooth="yes"/>
      <point x="56" y="305"/>
      <point x="111" y="256"/>
    </contour>
  </outline>
</glyph>
<glyph name="caron.alt" format="1">
	<outline>
		<contour>
			<point x="21" y="548" type="line"/>
			<point x="70" y="548" type="line"/>
			<point x="119" y="702" type="line"/>
			<point x="132" y="765" type="line"/>
			<point x="61" y="765" type="line"/>
		</contour>
	</outline>
</glyph>
<glyph name="caroncmb.cap" format="1">
  <advance width="0"/>
  <outline>
    <contour>
      <point x="136" y="682" type="move" name="_aboveUC"/>
    </contour>
    <contour>
      <point x="60" y="704" type="line"/>
      <point x="182" y="704" type="line"/>
      <point x="290" y="811" type="line"/>
      <point x="238" y="837" type="line"/>
      <point x="132" y="759" type="line"/>
      <point x="128" y="759" type="line"/>
      <point x="52" y="837" type="line"/>
      <point x="-7" y="811" type="line"/>
    </contour>
  </outline>
</glyph>
<glyph name="caroncmb" format="1">
  <advance width="0"/>
  <outline>
    <contour>
      <point x="110" y="514" type="move" name="_aboveLC"/>
    </contour>
    <contour>
      <point x="48" y="577" type="line"/>
      <point x="164" y="577" type="line"/>
      <point x="299" y="710" type="line"/>
      <point x="259" y="754" type="line"/>
      <point x="115" y="649" type="line"/>
      <point x="111" y="649" type="line"/>
      <point x="10" y="754" type="line"/>
      <point x="-40" y="713" type="line"/>
    </contour>
  </outline>
</glyph>
<glyph name="caroncmb.cap" format="1">
  <advance width="0"/>
  <outline>
    <contour>
      <point x="136" y="682" type="move" name="_aboveUC"/>
    </contour>
    <contour>
      <point x="58" y="704" type="line"/>
      <point x="182" y="704" type="line"/>
      <point x="299" y="812" type="line"/>
      <point x="254" y="848" type="line"/>
      <point x="127" y="760" type="line"/>
      <point x="123" y="760" type="line"/>
      <point x="35" y="848" type="line"/>
      <point x="-18" y="816" type="line"/>
    </contour>
  </outline>
</glyph>
<glyph name="cedi" format="1">
  <advance width="494"/>
  <outline>
    <contour>
      <point x="258" y="-12" type="curve" smooth="yes"/>
      <point x="320" y="-12"/>
      <point x="379" y="12"/>
      <point x="436" y="64" type="curve"/>
      <point x="385" y="128" type="line"/>
      <point x="354" y="98"/>
      <point x="320" y="75"/>
      <point x="280" y="75" type="curve" smooth="yes"/>
      <point x="206" y="75"/>
      <point x="166" y="139"/>
      <point x="166" y="242" type="curve" smooth="yes"/>
      <point x="166" y="424"/>
      <point x="246" y="567"/>
      <point x="358" y="567" type="curve" smooth="yes"/>
      <point x="403" y="567"/>
      <point x="427" y="542"/>
      <point x="449" y="500" type="curve"/>
      <point x="524" y="549" type="line"/>
      <point x="492" y="607"/>
      <point x="447" y="654"/>
      <point x="368" y="654" type="curve" smooth="yes"/>
      <point x="202" y="654"/>
      <point x="59" y="484"/>
      <point x="59" y="234" type="curve" smooth="yes"/>
      <point x="59" y="80"/>
      <point x="134" y="-12"/>
    </contour>
    <contour>
      <point x="197" y="-110" type="line"/>
      <point x="260" y="-110" type="line"/>
      <point x="431" y="745" type="line"/>
      <point x="368" y="745" type="line"/>
    </contour>
  </outline>
</glyph>
<glyph name="cedillacmb.cap" format="1">
	<outline>
		<component base="cedillacmb"/>
		<contour>
			<point name="_baseLC" x="0" y="0" type="move"/>
		</contour>
	</outline>
</glyph>
<glyph name="cedillacmb" format="1">
  <outline>
    <contour>
      <point x="-139" y="-233" type="line"/>
      <point x="-22" y="-230"/>
      <point x="52" y="-197"/>
      <point x="60" y="-131" type="curve" smooth="yes"/>
      <point x="64" y="-95"/>
      <point x="46" y="-75"/>
      <point x="-2" y="-63" type="curve"/>
      <point x="39" y="3" type="line"/>
      <point x="-31" y="3" type="line"/>
      <point x="-94" y="-92" type="line"/>
      <point x="-40" y="-98"/>
      <point x="-24" y="-112"/>
      <point x="-25" y="-134" type="curve" smooth="yes"/>
      <point x="-29" y="-164"/>
      <point x="-61" y="-180"/>
      <point x="-140" y="-184" type="curve"/>
    </contour>
    <contour>
      <point x="0" y="0" type="move" name="_baseLC"/>
    </contour>
  </outline>
</glyph>
<glyph name="ceilingright" format="1">
  <advance width="312"/>
  <outline>
    <contour>
      <point x="96" y="0" type="line"/>
      <point x="177" y="0" type="line"/>
      <point x="315" y="690" type="line"/>
      <point x="129" y="690" type="line"/>
      <point x="117" y="631" type="line"/>
      <point x="222" y="631" type="line"/>
    </contour>
  </outline>
</glyph>
<glyph name="checkbox" format="1">
  <advance width="769"/>
  <outline>
    <contour>
      <point x="70" y="-10" type="line"/>
      <point x="643" y="-10" type="line"/>
      <point x="699" y="56" type="line"/>
      <point x="699" y="672" type="line"/>
      <point x="136" y="672" type="line"/>
      <point x="70" y="615" type="line"/>
    </contour>
    <contour>
      <point x="118" y="38" type="line"/>
      <point x="118" y="592" type="line"/>
      <point x="621" y="592" type="line"/>
      <point x="621" y="38" type="line"/>
    </contour>
  </outline>
</glyph>
<glyph name="circumflexacute.cap" format="1">
  <advance width="0"/>
  <outline>
    <contour>
      <point x="106" y="682" type="move" name="_aboveUC"/>
    </contour>
    <contour>
      <point x="10" y="692" type="line"/>
      <point x="106" y="763" type="line"/>
      <point x="110" y="763" type="line"/>
      <point x="180" y="692" type="line"/>
      <point x="235" y="718" type="line"/>
      <point x="165" y="819" type="line"/>
      <point x="66" y="819" type="line"/>
      <point x="-40" y="718" type="line"/>
    </contour>
    <contour>
      <point x="236" y="764" type="line"/>
      <point x="344" y="843" type="line"/>
      <point x="306" y="886" type="line"/>
      <point x="202" y="800" type="line"/>
    </contour>
  </outline>
</glyph>
<glyph name="circumflexacute" format="1">
  <outline>
    <contour>
      <point x="14" y="568" type="line"/>
      <point x="132" y="640" type="line"/>
      <point x="136" y="640" type="line"/>
      <point x="223" y="568" type="line"/>
      <point x="267" y="608" type="line"/>
      <point x="186" y="703" type="line"/>
      <point x="94" y="703" type="line"/>
      <point x="-19" y="614" type="line"/>
    </contour>
    <contour>
      <point x="274" y="641" type="line"/>
      <point x="396" y="747" type="line"/>
      <point x="340" y="796" type="line"/>
      <point x="235" y="681" type="line"/>
    </contour>
    <contour>
      <point x="110" y="514" type="move" name="_aboveLC"/>
    </contour>
  </outline>
</glyph>
<glyph name="circumflexbreve.cap" format="1">
  <outline>
    <contour>
      <point x="30" y="692" type="line"/>
      <point x="135" y="762" type="line"/>
      <point x="139" y="762" type="line"/>
      <point x="220" y="692" type="line"/>
      <point x="270" y="725" type="line"/>
      <point x="196" y="814" type="line"/>
      <point x="96" y="814" type="line"/>
      <point x="-8" y="725" type="line"/>
    </contour>
    <contour>
      <point x="152" y="846" type="curve" smooth="yes"/>
      <point x="245" y="846"/>
      <point x="299" y="889"/>
      <point x="316" y="947" type="curve"/>
      <point x="258" y="957" type="line"/>
      <point x="246" y="929"/>
      <point x="218" y="904"/>
      <point x="162" y="904" type="curve" smooth="yes"/>
      <point x="106" y="904"/>
      <point x="86" y="929"/>
      <point x="83" y="957" type="curve"/>
      <point x="24" y="947" type="line"/>
      <point x="21" y="889"/>
      <point x="58" y="846"/>
    </contour>
    <contour>
      <point x="106" y="682" type="move" name="_aboveUC"/>
    </contour>
  </outline>
</glyph>
<glyph name="circumflexbreve" format="1">
  <advance width="0"/>
  <outline>
    <contour>
      <point x="93" y="514" type="move" name="_aboveLC"/>
    </contour>
    <contour>
      <point x="18" y="565" type="line"/>
      <point x="107" y="627" type="line"/>
      <point x="111" y="627" type="line"/>
      <point x="179" y="565" type="line"/>
      <point x="228" y="587" type="line"/>
      <point x="164" y="680" type="line"/>
      <point x="72" y="680" type="line"/>
      <point x="-27" y="587" type="line"/>
    </contour>
    <contour>
      <point x="123" y="710" type="curve" smooth="yes"/>
      <point x="205" y="710"/>
      <point x="244" y="754"/>
      <point x="264" y="804" type="curve"/>
      <point x="220" y="816" type="line"/>
      <point x="203" y="788"/>
      <point x="180" y="766"/>
      <point x="132" y="766" type="curve" smooth="yes"/>
      <point x="85" y="766"/>
      <point x="69" y="788"/>
      <point x="65" y="816" type="curve"/>
      <point x="19" y="804" type="line"/>
      <point x="20" y="754"/>
      <point x="41" y="710"/>
    </contour>
  </outline>
</glyph>
<glyph name="circumflexcmb.cap" format="1">
  <advance width="0"/>
  <outline>
    <contour>
      <point x="136" y="682" type="move" name="_aboveUC"/>
    </contour>
    <contour>
      <point x="30" y="692" type="line"/>
      <point x="135" y="770" type="line"/>
      <point x="139" y="770" type="line"/>
      <point x="215" y="692" type="line"/>
      <point x="275" y="718" type="line"/>
      <point x="208" y="825" type="line"/>
      <point x="85" y="825" type="line"/>
      <point x="-22" y="718" type="line"/>
    </contour>
  </outline>
</glyph>
<glyph name="circumflexcmb" format="1">
  <outline>
    <contour>
      <point x="-9" y="564" type="line"/>
      <point x="136" y="670" type="line"/>
      <point x="140" y="670" type="line"/>
      <point x="240" y="564" type="line"/>
      <point x="290" y="606" type="line"/>
      <point x="203" y="742" type="line"/>
      <point x="86" y="742" type="line"/>
      <point x="-48" y="609" type="line"/>
    </contour>
    <contour>
      <point x="110" y="514" type="move" name="_aboveLC"/>
    </contour>
    <contour>
      <point x="150" y="728" type="move" name="aboveLC"/>
    </contour>
  </outline>
</glyph>
<glyph name="circumflexcmb.cap" format="1">
  <advance width="0"/>
  <outline>
    <contour>
      <point x="136" y="682" type="move" name="_aboveUC"/>
    </contour>
    <contour>
      <point x="15" y="692" type="line"/>
      <point x="142" y="781" type="line"/>
      <point x="146" y="781" type="line"/>
      <point x="234" y="693" type="line"/>
      <point x="288" y="725" type="line"/>
      <point x="211" y="836" type="line"/>
      <point x="87" y="836" type="line"/>
      <point x="-30" y="728" type="line"/>
    </contour>
  </outline>
</glyph>
<glyph name="circumflexgrave.cap" format="1">
  <advance width="0"/>
  <outline>
    <contour>
      <point x="106" y="682" type="move" name="_aboveUC"/>
    </contour>
    <contour>
      <point x="10" y="692" type="line"/>
      <point x="106" y="763" type="line"/>
      <point x="110" y="763" type="line"/>
      <point x="180" y="692" type="line"/>
      <point x="235" y="718" type="line"/>
      <point x="165" y="819" type="line"/>
      <point x="66" y="819" type="line"/>
      <point x="-40" y="718" type="line"/>
    </contour>
    <contour>
      <point x="47" y="761" type="line"/>
      <point x="91" y="791" type="line"/>
      <point x="17" y="888" type="line"/>
      <point x="-34" y="851" type="line"/>
    </contour>
  </outline>
</glyph>
<glyph name="circumflexgrave" format="1">
  <advance width="0"/>
  <outline>
    <contour>
      <point x="93" y="514" type="move" name="_aboveLC"/>
    </contour>
    <contour>
      <point x="9" y="566" type="line"/>
      <point x="109" y="635" type="line"/>
      <point x="113" y="635" type="line"/>
      <point x="186" y="566" type="line"/>
      <point x="236" y="602" type="line"/>
      <point x="167" y="702" type="line"/>
      <point x="78" y="702" type="line"/>
      <point x="-28" y="602" type="line"/>
    </contour>
    <contour>
      <point x="91" y="662" type="line"/>
      <point x="38" y="787" type="line"/>
      <point x="-35" y="758" type="line"/>
      <point x="37" y="636" type="line"/>
    </contour>
  </outline>
</glyph>
<glyph name="circumflexgrave.cap" format="1">
  <advance width="0"/>
  <outline>
    <contour>
      <point x="135" y="682" type="move" name="_aboveUC"/>
    </contour>
    <contour>
      <point x="30" y="692" type="line"/>
      <point x="137" y="762" type="line"/>
      <point x="141" y="762" type="line"/>
      <point x="220" y="692" type="line"/>
      <point x="271" y="724" type="line"/>
      <point x="197" y="820" type="line"/>
      <point x="97" y="820" type="line"/>
      <point x="-12" y="725" type="line"/>
    </contour>
    <contour>
      <point x="1" y="767" type="line"/>
      <point x="44" y="803" type="line"/>
      <point x="-40" y="893" type="line"/>
      <point x="-89" y="849" type="line"/>
    </contour>
  </outline>
</glyph>
<glyph name="circumflexhoi.cap" format="1">
  <outline>
    <contour>
      <point x="30" y="692" type="line"/>
      <point x="137" y="762" type="line"/>
      <point x="141" y="762" type="line"/>
      <point x="220" y="692" type="line"/>
      <point x="271" y="724" type="line"/>
      <point x="197" y="820" type="line"/>
      <point x="97" y="820" type="line"/>
      <point x="-12" y="725" type="line"/>
    </contour>
    <contour>
      <point x="260" y="753" type="line"/>
      <point x="316" y="759"/>
      <point x="368" y="780"/>
      <point x="378" y="835" type="curve" smooth="yes"/>
      <point x="387" y="880"/>
      <point x="352" y="908"/>
      <point x="258" y="912" type="curve"/>
      <point x="239" y="861" type="line"/>
      <point x="289" y="858"/>
      <point x="305" y="848"/>
      <point x="300" y="825" type="curve" smooth="yes"/>
      <point x="297" y="806"/>
      <point x="278" y="798"/>
      <point x="256" y="793" type="curve"/>
    </contour>
    <contour>
      <point x="135" y="682" type="move" name="_aboveUC"/>
    </contour>
  </outline>
</glyph>
<glyph name="circumflexhoi" format="1">
  <advance width="0"/>
  <outline>
    <contour>
      <point x="93" y="514" type="move" name="_aboveLC"/>
    </contour>
    <contour>
      <point x="9" y="566" type="line"/>
      <point x="109" y="635" type="line"/>
      <point x="113" y="635" type="line"/>
      <point x="186" y="566" type="line"/>
      <point x="236" y="602" type="line"/>
      <point x="167" y="702" type="line"/>
      <point x="78" y="702" type="line"/>
      <point x="-28" y="602" type="line"/>
    </contour>
    <contour>
      <point x="226" y="642" type="line"/>
      <point x="291" y="650"/>
      <point x="340" y="669"/>
      <point x="347" y="729" type="curve" smooth="yes"/>
      <point x="352" y="769"/>
      <point x="322" y="799"/>
      <point x="227" y="809" type="curve"/>
      <point x="209" y="760" type="line"/>
      <point x="258" y="753"/>
      <point x="272" y="741"/>
      <point x="269" y="721" type="curve" smooth="yes"/>
      <point x="268" y="701"/>
      <point x="253" y="691"/>
      <point x="223" y="684" type="curve"/>
    </contour>
  </outline>
</glyph>
<glyph name="circumflextilde.cap" format="1">
  <advance width="0"/>
  <outline>
    <contour>
      <point x="106" y="682" type="move" name="_aboveUC"/>
    </contour>
    <contour>
      <point x="8" y="692" type="line"/>
      <point x="104" y="757" type="line"/>
      <point x="108" y="757" type="line"/>
      <point x="179" y="692" type="line"/>
      <point x="235" y="718" type="line"/>
      <point x="164" y="813" type="line"/>
      <point x="65" y="813" type="line"/>
      <point x="-40" y="718" type="line"/>
    </contour>
    <contour>
      <point x="177" y="838" type="curve" smooth="yes"/>
      <point x="227" y="838"/>
      <point x="264" y="875"/>
      <point x="278" y="941" type="curve"/>
      <point x="222" y="947" type="line"/>
      <point x="213" y="918"/>
      <point x="200" y="903"/>
      <point x="181" y="903" type="curve" smooth="yes"/>
      <point x="152" y="903"/>
      <point x="133" y="951"/>
      <point x="84" y="951" type="curve" smooth="yes"/>
      <point x="34" y="951"/>
      <point x="-4" y="915"/>
      <point x="-18" y="848" type="curve"/>
      <point x="38" y="842" type="line"/>
      <point x="48" y="872"/>
      <point x="60" y="886"/>
      <point x="80" y="886" type="curve" smooth="yes"/>
      <point x="109" y="886"/>
      <point x="128" y="838"/>
    </contour>
  </outline>
</glyph>
<glyph name="circumflextilde" format="1">
  <outline>
    <contour>
      <point x="14" y="568" type="line"/>
      <point x="130" y="634" type="line"/>
      <point x="134" y="634" type="line"/>
      <point x="223" y="568" type="line"/>
      <point x="267" y="608" type="line"/>
      <point x="184" y="697" type="line"/>
      <point x="91" y="697" type="line"/>
      <point x="-19" y="614" type="line"/>
    </contour>
    <contour>
      <point x="203" y="713" type="curve" smooth="yes"/>
      <point x="252" y="713"/>
      <point x="284" y="749"/>
      <point x="301" y="813" type="curve"/>
      <point x="247" y="819" type="line"/>
      <point x="237" y="791"/>
      <point x="226" y="779"/>
      <point x="208" y="779" type="curve" smooth="yes"/>
      <point x="174" y="779"/>
      <point x="156" y="821"/>
      <point x="99" y="821" type="curve" smooth="yes"/>
      <point x="50" y="821"/>
      <point x="18" y="785"/>
      <point x="0" y="721" type="curve"/>
      <point x="54" y="715" type="line"/>
      <point x="65" y="743"/>
      <point x="76" y="755"/>
      <point x="93" y="755" type="curve" smooth="yes"/>
      <point x="127" y="755"/>
      <point x="147" y="713"/>
    </contour>
    <contour>
      <point x="110" y="514" type="move" name="_aboveLC"/>
    </contour>
  </outline>
</glyph>
<glyph name="circumflextilde.cap" format="1">
  <advance width="0"/>
  <outline>
    <contour>
      <point x="135" y="682" type="move" name="_aboveUC"/>
    </contour>
    <contour>
      <point x="29" y="692" type="line"/>
      <point x="136" y="756" type="line"/>
      <point x="140" y="756" type="line"/>
      <point x="219" y="692" type="line"/>
      <point x="271" y="724" type="line"/>
      <point x="196" y="814" type="line"/>
      <point x="96" y="814" type="line"/>
      <point x="-12" y="725" type="line"/>
    </contour>
    <contour>
      <point x="212" y="839" type="curve" smooth="yes"/>
      <point x="268" y="839"/>
      <point x="302" y="876"/>
      <point x="316" y="940" type="curve"/>
      <point x="260" y="947" type="line"/>
      <point x="251" y="919"/>
      <point x="238" y="904"/>
      <point x="217" y="904" type="curve" smooth="yes"/>
      <point x="183" y="904"/>
      <point x="166" y="951"/>
      <point x="107" y="951" type="curve" smooth="yes"/>
      <point x="52" y="951"/>
      <point x="17" y="914"/>
      <point x="3" y="850" type="curve"/>
      <point x="60" y="843" type="line"/>
      <point x="68" y="871"/>
      <point x="81" y="886"/>
      <point x="102" y="886" type="curve" smooth="yes"/>
      <point x="136" y="886"/>
      <point x="153" y="839"/>
    </contour>
  </outline>
</glyph>
<glyph name="comma.dnom" format="1">
  <advance width="184"/>
  <outline>
    <contour>
      <point x="-24" y="-121" type="line"/>
      <point x="58" y="-94"/>
      <point x="108" y="-38"/>
      <point x="108" y="38" type="curve" smooth="yes"/>
      <point x="108" y="75"/>
      <point x="88" y="100"/>
      <point x="59" y="100" type="curve" smooth="yes"/>
      <point x="27" y="100"/>
      <point x="0" y="80"/>
      <point x="0" y="44" type="curve" smooth="yes"/>
      <point x="0" y="17"/>
      <point x="20" y="0"/>
      <point x="44" y="0" type="curve" smooth="yes"/>
      <point x="56" y="0"/>
      <point x="65" y="4"/>
      <point x="76" y="12" type="curve"/>
      <point x="55" y="62" type="line"/>
      <point x="46" y="1" type="line"/>
      <point x="40" y="-37"/>
      <point x="11" y="-59"/>
      <point x="-35" y="-76" type="curve"/>
    </contour>
  </outline>
</glyph>
<glyph name="comma" format="1">
  <advance width="267"/>
  <outline>
    <contour>
      <point x="-16" y="-176" type="line"/>
      <point x="99" y="-148"/>
      <point x="174" y="-58"/>
      <point x="174" y="54" type="curve" smooth="yes"/>
      <point x="174" y="105"/>
      <point x="149" y="136"/>
      <point x="104" y="136" type="curve" smooth="yes"/>
      <point x="56" y="136"/>
      <point x="26" y="98"/>
      <point x="26" y="58" type="curve" smooth="yes"/>
      <point x="26" y="21"/>
      <point x="54" y="-2"/>
      <point x="92" y="-2" type="curve" smooth="yes"/>
      <point x="105" y="-2"/>
      <point x="120" y="5"/>
      <point x="131" y="14" type="curve"/>
      <point x="103" y="87" type="line"/>
      <point x="92" y="0" type="line"/>
      <point x="81" y="-49"/>
      <point x="41" y="-92"/>
      <point x="-29" y="-115" type="curve"/>
    </contour>
  </outline>
</glyph>
<glyph name="commabelowcmb.alt" format="1">
  <advance width="0"/>
  <outline>
    <contour>
      <point x="61" y="514" type="move" name="_aboveLC"/>
    </contour>
    <contour>
      <point x="95" y="555" type="curve"/>
      <point x="131" y="595" type="line"/>
      <point x="98" y="604"/>
      <point x="82" y="616"/>
      <point x="87" y="635" type="curve" smooth="yes"/>
      <point x="90" y="663"/>
      <point x="124" y="674"/>
      <point x="193" y="673" type="curve"/>
      <point x="197" y="720" type="line"/>
      <point x="94" y="728"/>
      <point x="18" y="706"/>
      <point x="3" y="642" type="curve" smooth="yes"/>
      <point x="-8" y="601"/>
      <point x="18" y="575"/>
    </contour>
  </outline>
</glyph>
<glyph name="commabelowcmb" format="1">
  <advance width="0"/>
  <outline>
    <contour>
      <point x="-6" y="-30" type="move" name="_belowLC"/>
    </contour>
    <contour>
      <point x="-139" y="-233" type="line"/>
      <point x="-24" y="-230"/>
      <point x="61" y="-196"/>
      <point x="61" y="-124" type="curve" smooth="yes"/>
      <point x="61" y="-87"/>
      <point x="40" y="-61"/>
      <point x="-55" y="-55" type="curve"/>
      <point x="-85" y="-100" type="line"/>
      <point x="-42" y="-102"/>
      <point x="-26" y="-116"/>
      <point x="-26" y="-136" type="curve" smooth="yes"/>
      <point x="-26" y="-162"/>
      <point x="-59" y="-180"/>
      <point x="-138" y="-184" type="curve"/>
    </contour>
  </outline>
</glyph>
<glyph name="commaturnedabovecmb" format="1">
  <outline>
    <contour>
      <point x="107" y="543" type="curve" smooth="yes"/>
      <point x="137" y="543"/>
      <point x="161" y="564"/>
      <point x="161" y="598" type="curve" smooth="yes"/>
      <point x="161" y="622"/>
      <point x="141" y="640"/>
      <point x="120" y="640" type="curve" smooth="yes"/>
      <point x="107" y="640"/>
      <point x="95" y="635"/>
      <point x="83" y="624" type="curve"/>
      <point x="109" y="580" type="line"/>
      <point x="111" y="632" type="line"/>
      <point x="119" y="665"/>
      <point x="141" y="684"/>
      <point x="185" y="701" type="curve"/>
      <point x="175" y="740" type="line"/>
      <point x="93" y="713"/>
      <point x="58" y="661"/>
      <point x="58" y="601" type="curve" smooth="yes"/>
      <point x="58" y="567"/>
      <point x="77" y="543"/>
    </contour>
    <contour>
      <point x="110" y="514" type="move" name="_aboveLC"/>
    </contour>
  </outline>
</glyph>
<glyph name="copyright" format="1">
  <advance width="668"/>
  <outline>
    <contour>
      <point x="298" y="-10" type="curve" smooth="yes"/>
      <point x="516" y="-10"/>
      <point x="666" y="173"/>
      <point x="666" y="377" type="curve" smooth="yes"/>
      <point x="666" y="539"/>
      <point x="556" y="654"/>
      <point x="401" y="654" type="curve" smooth="yes"/>
      <point x="183" y="654"/>
      <point x="33" y="472"/>
      <point x="33" y="268" type="curve" smooth="yes"/>
      <point x="33" y="106"/>
      <point x="143" y="-10"/>
    </contour>
    <contour>
      <point x="302" y="41" type="curve" smooth="yes"/>
      <point x="164" y="41"/>
      <point x="86" y="142"/>
      <point x="86" y="273" type="curve" smooth="yes"/>
      <point x="86" y="444"/>
      <point x="217" y="604"/>
      <point x="397" y="604" type="curve" smooth="yes"/>
      <point x="535" y="604"/>
      <point x="613" y="503"/>
      <point x="613" y="372" type="curve" smooth="yes"/>
      <point x="613" y="201"/>
      <point x="482" y="41"/>
    </contour>
    <contour>
      <point x="328" y="126" type="curve" smooth="yes"/>
      <point x="378" y="126"/>
      <point x="421" y="144"/>
      <point x="462" y="176" type="curve"/>
      <point x="430" y="226" type="line"/>
      <point x="400" y="206"/>
      <point x="377" y="192"/>
      <point x="344" y="192" type="curve" smooth="yes"/>
      <point x="290" y="192"/>
      <point x="256" y="227"/>
      <point x="256" y="290" type="curve" smooth="yes"/>
      <point x="256" y="382"/>
      <point x="324" y="448"/>
      <point x="382" y="448" type="curve" smooth="yes"/>
      <point x="408" y="448"/>
      <point x="426" y="438"/>
      <point x="444" y="417" type="curve"/>
      <point x="492" y="462" type="line"/>
      <point x="471" y="489"/>
      <point x="438" y="514"/>
      <point x="392" y="514" type="curve" smooth="yes"/>
      <point x="292" y="514"/>
      <point x="177" y="424"/>
      <point x="177" y="279" type="curve" smooth="yes"/>
      <point x="177" y="182"/>
      <point x="238" y="126"/>
    </contour>
  </outline>
</glyph>
<glyph name="currency" format="1">
  <advance width="494"/>
  <outline>
    <contour>
      <point x="56" y="104" type="line"/>
      <point x="128" y="167" type="line"/>
      <point x="154" y="146"/>
      <point x="187" y="135"/>
      <point x="227" y="135" type="curve" smooth="yes"/>
      <point x="267" y="135"/>
      <point x="307" y="147"/>
      <point x="341" y="170" type="curve"/>
      <point x="395" y="103" type="line"/>
      <point x="453" y="152" type="line"/>
      <point x="403" y="216" type="line"/>
      <point x="437" y="255"/>
      <point x="459" y="307"/>
      <point x="459" y="366" type="curve" smooth="yes"/>
      <point x="459" y="395"/>
      <point x="454" y="420"/>
      <point x="444" y="441" type="curve"/>
      <point x="513" y="502" type="line"/>
      <point x="466" y="558" type="line"/>
      <point x="393" y="495" type="line"/>
      <point x="367" y="515"/>
      <point x="333" y="526"/>
      <point x="294" y="526" type="curve" smooth="yes"/>
      <point x="255" y="526"/>
      <point x="216" y="514"/>
      <point x="182" y="494" type="curve"/>
      <point x="133" y="557" type="line"/>
      <point x="74" y="507" type="line"/>
      <point x="121" y="448" type="line"/>
      <point x="84" y="408"/>
      <point x="62" y="356"/>
      <point x="62" y="295" type="curve" smooth="yes"/>
      <point x="62" y="266"/>
      <point x="67" y="241"/>
      <point x="77" y="219" type="curve"/>
      <point x="9" y="160" type="line"/>
    </contour>
    <contour>
      <point x="238" y="213" type="curve" smooth="yes"/>
      <point x="189" y="213"/>
      <point x="160" y="246"/>
      <point x="160" y="305" type="curve" smooth="yes"/>
      <point x="160" y="388"/>
      <point x="222" y="449"/>
      <point x="282" y="449" type="curve" smooth="yes"/>
      <point x="332" y="449"/>
      <point x="360" y="416"/>
      <point x="360" y="357" type="curve" smooth="yes"/>
      <point x="360" y="274"/>
      <point x="299" y="213"/>
    </contour>
  </outline>
</glyph>
<glyph name="d.sups" format="1">
  <advance width="372"/>
  <outline>
    <contour>
      <point x="307" y="555" type="line"/>
      <point x="303" y="555" type="line"/>
      <point x="290" y="581"/>
      <point x="264" y="598"/>
      <point x="234" y="598" type="curve" smooth="yes"/>
      <point x="143" y="598"/>
      <point x="57" y="499"/>
      <point x="57" y="376" type="curve" smooth="yes"/>
      <point x="57" y="298"/>
      <point x="94" y="256"/>
      <point x="151" y="256" type="curve" smooth="yes"/>
      <point x="188" y="256"/>
      <point x="227" y="276"/>
      <point x="258" y="309" type="curve"/>
      <point x="262" y="309" type="line"/>
      <point x="258" y="264" type="line"/>
      <point x="320" y="264" type="line"/>
      <point x="412" y="727" type="line"/>
      <point x="335" y="727" type="line"/>
      <point x="314" y="620" type="line"/>
    </contour>
    <contour>
      <point x="180" y="320" type="curve" smooth="yes"/>
      <point x="155" y="320"/>
      <point x="136" y="340"/>
      <point x="136" y="386" type="curve" smooth="yes"/>
      <point x="136" y="466"/>
      <point x="187" y="534"/>
      <point x="238" y="534" type="curve" smooth="yes"/>
      <point x="256" y="534"/>
      <point x="275" y="524"/>
      <point x="288" y="496" type="curve"/>
      <point x="266" y="374" type="line"/>
      <point x="240" y="337"/>
      <point x="207" y="320"/>
    </contour>
  </outline>
</glyph>
<glyph name="dagger" format="1">
  <advance width="462"/>
  <outline>
    <contour>
      <point x="120" y="-80" type="line"/>
      <point x="209" y="-80" type="line"/>
      <point x="313" y="471" type="line"/>
      <point x="456" y="464" type="line"/>
      <point x="473" y="553" type="line"/>
      <point x="327" y="546" type="line"/>
      <point x="367" y="712" type="line"/>
      <point x="278" y="712" type="line"/>
      <point x="251" y="546" type="line"/>
      <point x="109" y="553" type="line"/>
      <point x="91" y="464" type="line"/>
      <point x="238" y="471" type="line"/>
    </contour>
  </outline>
</glyph>
<glyph name="daggerdbl" format="1">
  <advance width="462"/>
  <outline>
    <contour>
      <point x="121" y="-80" type="line"/>
      <point x="210" y="-80" type="line"/>
      <point x="235" y="84" type="line"/>
      <point x="379" y="78" type="line"/>
      <point x="397" y="166" type="line"/>
      <point x="250" y="158" type="line"/>
      <point x="288" y="316" type="line"/>
      <point x="313" y="474" type="line"/>
      <point x="456" y="464" type="line"/>
      <point x="473" y="553" type="line"/>
      <point x="327" y="546" type="line"/>
      <point x="366" y="712" type="line"/>
      <point x="278" y="712" type="line"/>
      <point x="251" y="546" type="line"/>
      <point x="108" y="553" type="line"/>
      <point x="91" y="464" type="line"/>
      <point x="238" y="474" type="line"/>
      <point x="199" y="316" type="line"/>
      <point x="175" y="158" type="line"/>
      <point x="31" y="166" type="line"/>
      <point x="14" y="78" type="line"/>
      <point x="159" y="84" type="line"/>
    </contour>
  </outline>
</glyph>
<glyph name="dblgravecmb.cap" format="1">
  <advance width="0"/>
  <outline>
    <contour>
      <point x="136" y="682" type="move" name="_aboveUC"/>
    </contour>
    <contour>
      <point x="10" y="697" type="line"/>
      <point x="75" y="717" type="line"/>
      <point x="6" y="861" type="line"/>
      <point x="-77" y="831" type="line"/>
    </contour>
    <contour>
      <point x="183" y="697" type="line"/>
      <point x="247" y="717" type="line"/>
      <point x="179" y="861" type="line"/>
      <point x="95" y="831" type="line"/>
    </contour>
  </outline>
</glyph>
<glyph name="dblgravecmb" format="1">
  <advance width="0"/>
  <outline>
    <contour>
      <point x="110" y="514" type="move" name="_aboveLC"/>
    </contour>
    <contour>
      <point x="-13" y="566" type="line"/>
      <point x="54" y="588" type="line"/>
      <point x="-1" y="771" type="line"/>
      <point x="-87" y="741" type="line"/>
    </contour>
    <contour>
      <point x="152" y="566" type="line"/>
      <point x="219" y="588" type="line"/>
      <point x="164" y="771" type="line"/>
      <point x="78" y="741" type="line"/>
    </contour>
  </outline>
</glyph>
<glyph name="dcroat" format="1">
  <advance width="542"/>
  <outline>
    <contour>
      <point x="175" y="-12" type="curve" smooth="yes"/>
      <point x="231" y="-12"/>
      <point x="291" y="20"/>
      <point x="337" y="68" type="curve"/>
      <point x="340" y="68" type="line"/>
      <point x="335" y="0" type="line"/>
      <point x="423" y="0" type="line"/>
      <point x="565" y="706" type="line"/>
      <point x="458" y="706" type="line"/>
      <point x="420" y="512" type="line"/>
      <point x="406" y="418" type="line"/>
      <point x="403" y="418" type="line"/>
      <point x="384" y="457"/>
      <point x="346" y="483"/>
      <point x="298" y="483" type="curve" smooth="yes"/>
      <point x="162" y="483"/>
      <point x="35" y="334"/>
      <point x="35" y="167" type="curve" smooth="yes"/>
      <point x="35" y="52"/>
      <point x="89" y="-12"/>
    </contour>
    <contour>
      <point x="219" y="76" type="curve" smooth="yes"/>
      <point x="174" y="76"/>
      <point x="146" y="110"/>
      <point x="146" y="182" type="curve" smooth="yes"/>
      <point x="146" y="288"/>
      <point x="222" y="395"/>
      <point x="304" y="395" type="curve" smooth="yes"/>
      <point x="334" y="395"/>
      <point x="364" y="377"/>
      <point x="384" y="335" type="curve"/>
      <point x="348" y="159" type="line"/>
      <point x="307" y="100"/>
      <point x="261" y="76"/>
    </contour>
    <contour>
      <point x="281" y="565" type="line"/>
      <point x="532" y="565" type="line"/>
      <point x="605" y="570" type="line"/>
      <point x="617" y="621" type="line"/>
      <point x="292" y="621" type="line"/>
    </contour>
  </outline>
</glyph>
<glyph name="diamondblack" format="1">
  <advance width="886"/>
  <outline>
    <contour>
      <point x="460" y="-80" type="line"/>
      <point x="878" y="338" type="line"/>
      <point x="460" y="756" type="line"/>
      <point x="42" y="338" type="line"/>
    </contour>
  </outline>
</glyph>
<glyph name="dieresisacute.cap" format="1">
  <outline>
    <contour>
      <point x="34" y="708" type="curve" smooth="yes"/>
      <point x="65" y="708"/>
      <point x="90" y="737"/>
      <point x="90" y="767" type="curve" smooth="yes"/>
      <point x="90" y="794"/>
      <point x="71" y="812"/>
      <point x="46" y="812" type="curve" smooth="yes"/>
      <point x="14" y="812"/>
      <point x="-10" y="782"/>
      <point x="-10" y="752" type="curve" smooth="yes"/>
      <point x="-10" y="725"/>
      <point x="8" y="708"/>
    </contour>
    <contour>
      <point x="228" y="708" type="curve" smooth="yes"/>
      <point x="260" y="708"/>
      <point x="284" y="737"/>
      <point x="284" y="767" type="curve" smooth="yes"/>
      <point x="284" y="794"/>
      <point x="266" y="812"/>
      <point x="240" y="812" type="curve" smooth="yes"/>
      <point x="209" y="812"/>
      <point x="184" y="782"/>
      <point x="184" y="752" type="curve" smooth="yes"/>
      <point x="184" y="725"/>
      <point x="203" y="708"/>
    </contour>
    <contour>
      <point x="154" y="828" type="line"/>
      <point x="291" y="935" type="line"/>
      <point x="227" y="987" type="line"/>
      <point x="109" y="864" type="line"/>
    </contour>
    <contour>
      <point x="136" y="682" type="move" name="_aboveUC"/>
    </contour>
  </outline>
</glyph>
<glyph name="dieresisacute" format="1">
  <outline>
    <contour>
      <point x="150" y="712" type="line"/>
      <point x="267" y="814" type="line"/>
      <point x="212" y="862" type="line"/>
      <point x="110" y="746" type="line"/>
    </contour>
    <contour>
      <point x="20" y="580" type="curve" smooth="yes"/>
      <point x="52" y="580"/>
      <point x="78" y="608"/>
      <point x="78" y="642" type="curve" smooth="yes"/>
      <point x="78" y="667"/>
      <point x="61" y="684"/>
      <point x="34" y="684" type="curve" smooth="yes"/>
      <point x="2" y="684"/>
      <point x="-23" y="657"/>
      <point x="-23" y="623" type="curve" smooth="yes"/>
      <point x="-23" y="599"/>
      <point x="-6" y="580"/>
    </contour>
    <contour>
      <point x="217" y="580" type="curve" smooth="yes"/>
      <point x="248" y="580"/>
      <point x="274" y="608"/>
      <point x="274" y="642" type="curve" smooth="yes"/>
      <point x="274" y="667"/>
      <point x="257" y="684"/>
      <point x="231" y="684" type="curve" smooth="yes"/>
      <point x="200" y="684"/>
      <point x="174" y="657"/>
      <point x="174" y="623" type="curve" smooth="yes"/>
      <point x="174" y="599"/>
      <point x="191" y="580"/>
    </contour>
    <contour>
      <point x="110" y="514" type="move" name="_aboveLC"/>
    </contour>
  </outline>
</glyph>
<glyph name="dieresiscaron.cap" format="1">
  <advance width="0"/>
  <outline>
    <contour>
      <point x="136" y="682" type="move" name="_aboveUC"/>
    </contour>
    <contour>
      <point x="34" y="708" type="curve" smooth="yes"/>
      <point x="65" y="708"/>
      <point x="90" y="737"/>
      <point x="90" y="767" type="curve" smooth="yes"/>
      <point x="90" y="794"/>
      <point x="71" y="812"/>
      <point x="46" y="812" type="curve" smooth="yes"/>
      <point x="14" y="812"/>
      <point x="-10" y="782"/>
      <point x="-10" y="752" type="curve" smooth="yes"/>
      <point x="-10" y="725"/>
      <point x="8" y="708"/>
    </contour>
    <contour>
      <point x="228" y="708" type="curve" smooth="yes"/>
      <point x="260" y="708"/>
      <point x="284" y="737"/>
      <point x="284" y="767" type="curve" smooth="yes"/>
      <point x="284" y="794"/>
      <point x="266" y="812"/>
      <point x="240" y="812" type="curve" smooth="yes"/>
      <point x="209" y="812"/>
      <point x="184" y="782"/>
      <point x="184" y="752" type="curve" smooth="yes"/>
      <point x="184" y="725"/>
      <point x="203" y="708"/>
    </contour>
    <contour>
      <point x="103" y="846" type="line"/>
      <point x="203" y="846" type="line"/>
      <point x="311" y="942" type="line"/>
      <point x="269" y="974" type="line"/>
      <point x="163" y="904" type="line"/>
      <point x="159" y="904" type="line"/>
      <point x="80" y="974" type="line"/>
      <point x="29" y="942" type="line"/>
    </contour>
  </outline>
</glyph>
<glyph name="dieresiscaron" format="1">
  <advance width="0"/>
  <outline>
    <contour>
      <point x="64" y="514" type="move" name="_aboveLC"/>
    </contour>
    <contour>
      <point x="28" y="852" type="line"/>
      <point x="-19" y="822" type="line"/>
      <point x="57" y="729" type="line"/>
      <point x="146" y="729" type="line"/>
      <point x="252" y="822" type="line"/>
      <point x="213" y="852" type="line"/>
      <point x="113" y="788" type="line"/>
      <point x="109" y="788" type="line"/>
    </contour>
    <contour>
      <point x="-22" y="580" type="curve" smooth="yes"/>
      <point x="11" y="580"/>
      <point x="36" y="608"/>
      <point x="36" y="642" type="curve" smooth="yes"/>
      <point x="36" y="667"/>
      <point x="19" y="684"/>
      <point x="-8" y="684" type="curve" smooth="yes"/>
      <point x="-39" y="684"/>
      <point x="-65" y="657"/>
      <point x="-65" y="623" type="curve" smooth="yes"/>
      <point x="-65" y="599"/>
      <point x="-48" y="580"/>
    </contour>
    <contour>
      <point x="167" y="580" type="curve" smooth="yes"/>
      <point x="199" y="580"/>
      <point x="224" y="608"/>
      <point x="224" y="642" type="curve" smooth="yes"/>
      <point x="224" y="667"/>
      <point x="207" y="684"/>
      <point x="182" y="684" type="curve" smooth="yes"/>
      <point x="150" y="684"/>
      <point x="124" y="657"/>
      <point x="124" y="623" type="curve" smooth="yes"/>
      <point x="124" y="599"/>
      <point x="142" y="580"/>
    </contour>
  </outline>
</glyph>
<glyph name="dieresiscmb.cap" format="1">
  <advance width="0"/>
  <outline>
    <contour>
      <point x="136" y="682" type="move" name="_aboveUC"/>
    </contour>
    <contour>
      <point x="29" y="708" type="curve" smooth="yes"/>
      <point x="64" y="708"/>
      <point x="91" y="741"/>
      <point x="91" y="773" type="curve" smooth="yes"/>
      <point x="91" y="804"/>
      <point x="69" y="822"/>
      <point x="42" y="822" type="curve" smooth="yes"/>
      <point x="7" y="822"/>
      <point x="-20" y="790"/>
      <point x="-20" y="757" type="curve" smooth="yes"/>
      <point x="-20" y="726"/>
      <point x="1" y="708"/>
    </contour>
    <contour>
      <point x="227" y="708" type="curve" smooth="yes"/>
      <point x="262" y="708"/>
      <point x="289" y="741"/>
      <point x="289" y="773" type="curve" smooth="yes"/>
      <point x="289" y="804"/>
      <point x="267" y="822"/>
      <point x="240" y="822" type="curve" smooth="yes"/>
      <point x="205" y="822"/>
      <point x="178" y="790"/>
      <point x="178" y="757" type="curve" smooth="yes"/>
      <point x="178" y="726"/>
      <point x="199" y="708"/>
    </contour>
  </outline>
</glyph>
<glyph name="dieresiscmb" format="1">
  <outline>
    <contour>
      <point x="20" y="580" type="curve" smooth="yes"/>
      <point x="55" y="580"/>
      <point x="83" y="608"/>
      <point x="83" y="644" type="curve" smooth="yes"/>
      <point x="83" y="676"/>
      <point x="61" y="695"/>
      <point x="33" y="695" type="curve" smooth="yes"/>
      <point x="-2" y="695"/>
      <point x="-30" y="665"/>
      <point x="-30" y="630" type="curve" smooth="yes"/>
      <point x="-30" y="598"/>
      <point x="-9" y="580"/>
    </contour>
    <contour>
      <point x="218" y="580" type="curve" smooth="yes"/>
      <point x="253" y="580"/>
      <point x="281" y="608"/>
      <point x="281" y="644" type="curve" smooth="yes"/>
      <point x="281" y="676"/>
      <point x="260" y="695"/>
      <point x="231" y="695" type="curve" smooth="yes"/>
      <point x="196" y="695"/>
      <point x="168" y="665"/>
      <point x="168" y="630" type="curve" smooth="yes"/>
      <point x="168" y="598"/>
      <point x="189" y="580"/>
    </contour>
    <contour>
      <point x="110" y="514" type="move" name="_aboveLC"/>
    </contour>
    <contour>
      <point x="142" y="710" type="move" name="aboveLC"/>
    </contour>
  </outline>
</glyph>
<glyph name="dieresisgrave.cap" format="1">
  <advance width="0"/>
  <outline>
    <contour>
      <point x="106" y="682" type="move" name="_aboveUC"/>
    </contour>
    <contour>
      <point x="111" y="825" type="line"/>
      <point x="170" y="848" type="line"/>
      <point x="98" y="984" type="line"/>
      <point x="14" y="952" type="line"/>
    </contour>
    <contour>
      <point x="7" y="708" type="curve" smooth="yes"/>
      <point x="41" y="708"/>
      <point x="65" y="738"/>
      <point x="65" y="768" type="curve" smooth="yes"/>
      <point x="65" y="794"/>
      <point x="46" y="812"/>
      <point x="21" y="812" type="curve" smooth="yes"/>
      <point x="-12" y="812"/>
      <point x="-37" y="782"/>
      <point x="-37" y="753" type="curve" smooth="yes"/>
      <point x="-37" y="725"/>
      <point x="-18" y="708"/>
    </contour>
    <contour>
      <point x="195" y="708" type="curve" smooth="yes"/>
      <point x="228" y="708"/>
      <point x="252" y="738"/>
      <point x="252" y="768" type="curve" smooth="yes"/>
      <point x="252" y="794"/>
      <point x="233" y="812"/>
      <point x="208" y="812" type="curve" smooth="yes"/>
      <point x="174" y="812"/>
      <point x="151" y="782"/>
      <point x="151" y="753" type="curve" smooth="yes"/>
      <point x="151" y="725"/>
      <point x="169" y="708"/>
    </contour>
  </outline>
</glyph>
<glyph name="dieresisgrave" format="1">
  <advance width="0"/>
  <outline>
    <contour>
      <point x="64" y="514" type="move" name="_aboveLC"/>
    </contour>
    <contour>
      <point x="91" y="711" type="line"/>
      <point x="143" y="732" type="line"/>
      <point x="88" y="856" type="line"/>
      <point x="15" y="827" type="line"/>
    </contour>
    <contour>
      <point x="-22" y="580" type="curve" smooth="yes"/>
      <point x="11" y="580"/>
      <point x="36" y="608"/>
      <point x="36" y="642" type="curve" smooth="yes"/>
      <point x="36" y="667"/>
      <point x="19" y="684"/>
      <point x="-8" y="684" type="curve" smooth="yes"/>
      <point x="-39" y="684"/>
      <point x="-65" y="657"/>
      <point x="-65" y="623" type="curve" smooth="yes"/>
      <point x="-65" y="599"/>
      <point x="-48" y="580"/>
    </contour>
    <contour>
      <point x="167" y="580" type="curve" smooth="yes"/>
      <point x="199" y="580"/>
      <point x="224" y="608"/>
      <point x="224" y="642" type="curve" smooth="yes"/>
      <point x="224" y="667"/>
      <point x="207" y="684"/>
      <point x="182" y="684" type="curve" smooth="yes"/>
      <point x="150" y="684"/>
      <point x="124" y="657"/>
      <point x="124" y="623" type="curve" smooth="yes"/>
      <point x="124" y="599"/>
      <point x="142" y="580"/>
    </contour>
  </outline>
</glyph>
<glyph name="dieresismacron.cap" format="1">
  <advance width="0"/>
  <outline>
    <contour>
      <point x="136" y="682" type="move" name="_aboveUC"/>
    </contour>
    <contour>
      <point x="39" y="708" type="curve" smooth="yes"/>
      <point x="72" y="708"/>
      <point x="96" y="738"/>
      <point x="96" y="768" type="curve" smooth="yes"/>
      <point x="96" y="794"/>
      <point x="78" y="812"/>
      <point x="52" y="812" type="curve" smooth="yes"/>
      <point x="19" y="812"/>
      <point x="-5" y="782"/>
      <point x="-5" y="753" type="curve" smooth="yes"/>
      <point x="-5" y="725"/>
      <point x="14" y="708"/>
    </contour>
    <contour>
      <point x="26" y="864" type="line"/>
      <point x="290" y="864" type="line"/>
      <point x="302" y="919" type="line"/>
      <point x="37" y="919" type="line"/>
    </contour>
    <contour>
      <point x="226" y="708" type="curve" smooth="yes"/>
      <point x="259" y="708"/>
      <point x="284" y="738"/>
      <point x="284" y="768" type="curve" smooth="yes"/>
      <point x="284" y="794"/>
      <point x="264" y="812"/>
      <point x="240" y="812" type="curve" smooth="yes"/>
      <point x="206" y="812"/>
      <point x="182" y="782"/>
      <point x="182" y="753" type="curve" smooth="yes"/>
      <point x="182" y="725"/>
      <point x="201" y="708"/>
    </contour>
  </outline>
</glyph>
<glyph name="dieresismacron" format="1">
  <advance width="0"/>
  <outline>
    <contour>
      <point x="110" y="514" type="move" name="_aboveLC"/>
    </contour>
    <contour>
      <point x="20" y="580" type="curve" smooth="yes"/>
      <point x="52" y="580"/>
      <point x="78" y="608"/>
      <point x="78" y="642" type="curve" smooth="yes"/>
      <point x="78" y="667"/>
      <point x="61" y="684"/>
      <point x="34" y="684" type="curve" smooth="yes"/>
      <point x="2" y="684"/>
      <point x="-23" y="657"/>
      <point x="-23" y="623" type="curve" smooth="yes"/>
      <point x="-23" y="599"/>
      <point x="-6" y="580"/>
    </contour>
    <contour>
      <point x="217" y="580" type="curve" smooth="yes"/>
      <point x="248" y="580"/>
      <point x="274" y="608"/>
      <point x="274" y="642" type="curve" smooth="yes"/>
      <point x="274" y="667"/>
      <point x="257" y="684"/>
      <point x="231" y="684" type="curve" smooth="yes"/>
      <point x="200" y="684"/>
      <point x="174" y="657"/>
      <point x="174" y="623" type="curve" smooth="yes"/>
      <point x="174" y="599"/>
      <point x="191" y="580"/>
    </contour>
    <contour>
      <point x="16" y="751" type="line"/>
      <point x="284" y="751" type="line"/>
      <point x="296" y="806" type="line"/>
      <point x="28" y="806" type="line"/>
    </contour>
  </outline>
</glyph>
<glyph name="divide" format="1">
  <advance width="494"/>
  <outline>
    <contour>
      <point x="48" y="292" type="line"/>
      <point x="472" y="292" type="line"/>
      <point x="472" y="369" type="line"/>
      <point x="48" y="369" type="line"/>
    </contour>
    <contour>
      <point x="260" y="86" type="curve" smooth="yes"/>
      <point x="296" y="86"/>
      <point x="324" y="112"/>
      <point x="324" y="148" type="curve" smooth="yes"/>
      <point x="324" y="183"/>
      <point x="296" y="210"/>
      <point x="260" y="210" type="curve" smooth="yes"/>
      <point x="224" y="210"/>
      <point x="196" y="183"/>
      <point x="196" y="148" type="curve" smooth="yes"/>
      <point x="196" y="112"/>
      <point x="224" y="86"/>
    </contour>
    <contour>
      <point x="260" y="449" type="curve" smooth="yes"/>
      <point x="296" y="449"/>
      <point x="324" y="476"/>
      <point x="324" y="512" type="curve" smooth="yes"/>
      <point x="324" y="547"/>
      <point x="296" y="573"/>
      <point x="260" y="573" type="curve" smooth="yes"/>
      <point x="224" y="573"/>
      <point x="196" y="547"/>
      <point x="196" y="512" type="curve" smooth="yes"/>
      <point x="196" y="476"/>
      <point x="224" y="449"/>
    </contour>
  </outline>
</glyph>
<glyph name="dollar" format="1">
  <advance width="494"/>
  <outline>
    <contour>
      <point x="207" y="-12" type="curve" smooth="yes"/>
      <point x="336" y="-12"/>
      <point x="421" y="72"/>
      <point x="421" y="186" type="curve" smooth="yes"/>
      <point x="421" y="353"/>
      <point x="214" y="373"/>
      <point x="214" y="482" type="curve" smooth="yes"/>
      <point x="214" y="532"/>
      <point x="251" y="567"/>
      <point x="306" y="567" type="curve" smooth="yes"/>
      <point x="347" y="567"/>
      <point x="386" y="540"/>
      <point x="412" y="503" type="curve"/>
      <point x="481" y="564" type="line"/>
      <point x="438" y="619"/>
      <point x="377" y="654"/>
      <point x="309" y="654" type="curve" smooth="yes"/>
      <point x="190" y="654"/>
      <point x="108" y="577"/>
      <point x="108" y="469" type="curve" smooth="yes"/>
      <point x="108" y="318"/>
      <point x="315" y="298"/>
      <point x="315" y="171" type="curve" smooth="yes"/>
      <point x="315" y="113"/>
      <point x="274" y="75"/>
      <point x="210" y="75" type="curve" smooth="yes"/>
      <point x="154" y="75"/>
      <point x="108" y="111"/>
      <point x="78" y="151" type="curve"/>
      <point x="11" y="85" type="line"/>
      <point x="58" y="29"/>
      <point x="132" y="-12"/>
    </contour>
    <contour>
      <point x="138" y="-110" type="line"/>
      <point x="212" y="-110" type="line"/>
      <point x="240" y="29" type="line"/>
      <point x="166" y="29" type="line"/>
    </contour>
    <contour>
      <point x="282" y="617" type="line"/>
      <point x="356" y="617" type="line"/>
      <point x="382" y="752" type="line"/>
      <point x="308" y="752" type="line"/>
    </contour>
  </outline>
</glyph>
<glyph name="dong" format="1">
  <advance width="494"/>
  <outline>
    <contour>
      <point x="190" y="112" type="curve" smooth="yes"/>
      <point x="232" y="112"/>
      <point x="276" y="134"/>
      <point x="309" y="164" type="curve"/>
      <point x="311" y="164" type="line"/>
      <point x="309" y="122" type="line"/>
      <point x="384" y="122" type="line"/>
      <point x="495" y="675" type="line"/>
      <point x="406" y="675" type="line"/>
      <point x="373" y="512" type="line"/>
      <point x="360" y="435" type="line"/>
      <point x="340" y="462"/>
      <point x="318" y="479"/>
      <point x="274" y="479" type="curve" smooth="yes"/>
      <point x="181" y="479"/>
      <point x="71" y="389"/>
      <point x="71" y="248" type="curve" smooth="yes"/>
      <point x="71" y="165"/>
      <point x="115" y="112"/>
    </contour>
    <contour>
      <point x="223" y="186" type="curve" smooth="yes"/>
      <point x="184" y="186"/>
      <point x="164" y="214"/>
      <point x="164" y="263" type="curve" smooth="yes"/>
      <point x="164" y="349"/>
      <point x="227" y="406"/>
      <point x="280" y="406" type="curve" smooth="yes"/>
      <point x="306" y="406"/>
      <point x="327" y="393"/>
      <point x="344" y="367" type="curve"/>
      <point x="317" y="232" type="line"/>
      <point x="283" y="200"/>
      <point x="255" y="186"/>
    </contour>
    <contour>
      <point x="246" y="553" type="line"/>
      <point x="469" y="553" type="line"/>
      <point x="544" y="558" type="line"/>
      <point x="555" y="611" type="line"/>
      <point x="258" y="611" type="line"/>
    </contour>
    <contour>
      <point x="29" y="0" type="line"/>
      <point x="391" y="0" type="line"/>
      <point x="403" y="57" type="line"/>
      <point x="41" y="57" type="line"/>
    </contour>
  </outline>
</glyph>
<glyph name="dotaccentcmb.cap" format="1">
  <outline>
    <contour>
      <point x="130" y="709" type="curve" smooth="yes"/>
      <point x="170" y="709"/>
      <point x="202" y="738"/>
      <point x="202" y="778" type="curve" smooth="yes"/>
      <point x="202" y="814"/>
      <point x="172" y="835"/>
      <point x="140" y="835" type="curve" smooth="yes"/>
      <point x="101" y="835"/>
      <point x="68" y="803"/>
      <point x="68" y="765" type="curve" smooth="yes"/>
      <point x="68" y="728"/>
      <point x="98" y="709"/>
    </contour>
    <contour>
      <point x="136" y="682" type="move" name="_aboveUC"/>
    </contour>
  </outline>
</glyph>
<glyph name="dotaccentcmb" format="1">
  <advance width="0"/>
  <outline>
    <contour>
      <point x="110" y="514" type="move" name="_aboveLC"/>
    </contour>
    <contour>
      <point x="142" y="710" type="move" name="aboveLC"/>
    </contour>
    <contour>
      <point x="120" y="578" type="curve" smooth="yes"/>
      <point x="160" y="578"/>
      <point x="192" y="608"/>
      <point x="192" y="648" type="curve" smooth="yes"/>
      <point x="192" y="684"/>
      <point x="162" y="704"/>
      <point x="130" y="704" type="curve" smooth="yes"/>
      <point x="91" y="704"/>
      <point x="58" y="672"/>
      <point x="58" y="634" type="curve" smooth="yes"/>
      <point x="58" y="598"/>
      <point x="88" y="578"/>
    </contour>
  </outline>
</glyph>
<glyph name="dotlessi" format="1">
  <advance width="251"/>
  <outline>
    <contour>
      <point x="71" y="0" type="move" name="ogonekLC"/>
    </contour>
    <contour>
      <point x="185" y="514" type="move" name="aboveLC"/>
    </contour>
    <contour>
      <point x="83" y="-22" type="move" name="belowLC"/>
    </contour>
    <contour>
      <point x="22" y="0" type="line"/>
      <point x="130" y="0" type="line"/>
      <point x="228" y="491" type="line"/>
      <point x="121" y="491" type="line"/>
    </contour>
  </outline>
</glyph>
<glyph name="dotlessj" format="1">
  <advance width="252"/>
  <outline>
    <contour>
      <point x="-42" y="-206" type="curve" smooth="yes"/>
      <point x="56" y="-206"/>
      <point x="102" y="-135"/>
      <point x="123" y="-38" type="curve" smooth="yes"/>
      <point x="229" y="491" type="line"/>
      <point x="122" y="491" type="line"/>
      <point x="16" y="-36" type="line" smooth="yes"/>
      <point x="3" y="-92"/>
      <point x="-14" y="-120"/>
      <point x="-50" y="-120" type="curve" smooth="yes"/>
      <point x="-68" y="-120"/>
      <point x="-81" y="-116"/>
      <point x="-94" y="-108" type="curve"/>
      <point x="-128" y="-186" type="line"/>
      <point x="-100" y="-200"/>
      <point x="-75" y="-206"/>
    </contour>
    <contour>
      <point x="183" y="514" type="move" name="aboveLC"/>
    </contour>
  </outline>
</glyph>
<glyph name="e" format="1">
  <advance width="488"/>
  <outline>
    <contour>
      <point x="33" y="196" type="curve" smooth="yes"/>
      <point x="33" y="64"/>
      <point x="113" y="-12"/>
      <point x="230" y="-12" type="curve" smooth="yes"/>
      <point x="300" y="-12"/>
      <point x="358" y="12"/>
      <point x="398" y="40" type="curve"/>
      <point x="358" y="109" type="line"/>
      <point x="331" y="89"/>
      <point x="293" y="70"/>
      <point x="258" y="70" type="curve" smooth="yes"/>
      <point x="184" y="70"/>
      <point x="126" y="114"/>
      <point x="137" y="218" type="curve"/>
      <point x="436" y="218" type="line"/>
      <point x="443" y="234"/>
      <point x="457" y="279"/>
      <point x="457" y="322" type="curve" smooth="yes"/>
      <point x="457" y="424"/>
      <point x="415" y="503"/>
      <point x="301" y="503" type="curve" smooth="yes"/>
      <point x="172" y="503"/>
      <point x="33" y="379"/>
    </contour>
    <contour>
      <point x="146" y="286" type="line"/>
      <point x="170" y="370"/>
      <point x="229" y="420"/>
      <point x="288" y="420" type="curve" smooth="yes"/>
      <point x="348" y="420"/>
      <point x="368" y="377"/>
      <point x="368" y="329" type="curve" smooth="yes"/>
      <point x="368" y="313"/>
      <point x="366" y="299"/>
      <point x="363" y="286" type="curve"/>
    </contour>
    <contour>
      <point x="287" y="0" type="move" name="ogonekLC"/>
    </contour>
    <contour>
      <point x="313" y="514" type="move" name="aboveLC"/>
    </contour>
    <contour>
      <point x="219" y="-22" type="move" name="belowLC"/>
    </contour>
  </outline>
</glyph>
<glyph name="e.sups" format="1">
  <advance width="328"/>
  <outline>
    <contour>
      <point x="56" y="395" type="curve" smooth="yes"/>
      <point x="56" y="307"/>
      <point x="109" y="256"/>
      <point x="189" y="256" type="curve" smooth="yes"/>
      <point x="228" y="256"/>
      <point x="267" y="269"/>
      <point x="299" y="287" type="curve"/>
      <point x="275" y="338" type="line"/>
      <point x="254" y="325"/>
      <point x="233" y="315"/>
      <point x="209" y="315" type="curve" smooth="yes"/>
      <point x="157" y="315"/>
      <point x="125" y="347"/>
      <point x="129" y="406" type="curve"/>
      <point x="327" y="406" type="line"/>
      <point x="333" y="418"/>
      <point x="343" y="447"/>
      <point x="343" y="476" type="curve" smooth="yes"/>
      <point x="343" y="540"/>
      <point x="316" y="598"/>
      <point x="236" y="598" type="curve" smooth="yes"/>
      <point x="149" y="598"/>
      <point x="56" y="515"/>
    </contour>
    <contour>
      <point x="137" y="455" type="line"/>
      <point x="152" y="507"/>
      <point x="192" y="538"/>
      <point x="227" y="538" type="curve" smooth="yes"/>
      <point x="265" y="538"/>
      <point x="278" y="511"/>
      <point x="278" y="480" type="curve" smooth="yes"/>
      <point x="278" y="472"/>
      <point x="278" y="464"/>
      <point x="275" y="455" type="curve"/>
    </contour>
  </outline>
</glyph>
<glyph name="eacute.sups" format="1">
  <advance width="328"/>
  <outline>
    <contour>
      <point x="200" y="805" type="line"/>
      <point x="234" y="764" type="line"/>
      <point x="368" y="855" type="line"/>
      <point x="321" y="912" type="line"/>
    </contour>
    <component base="e.sups"/>
  </outline>
</glyph>
<glyph name="egrave.sups" format="1">
  <advance width="328"/>
  <outline>
    <contour>
      <point x="271" y="759" type="line"/>
      <point x="319" y="793" type="line"/>
      <point x="238" y="917" type="line"/>
      <point x="173" y="870" type="line"/>
    </contour>
    <component base="e.sups"/>
  </outline>
</glyph>
<glyph name="eight" format="1">
  <advance width="494"/>
  <outline>
    <contour>
      <point x="228" y="-12" type="curve" smooth="yes"/>
      <point x="346" y="-12"/>
      <point x="449" y="60"/>
      <point x="449" y="176" type="curve" smooth="yes"/>
      <point x="449" y="242"/>
      <point x="408" y="292"/>
      <point x="367" y="320" type="curve"/>
      <point x="367" y="324" type="line"/>
      <point x="437" y="363"/>
      <point x="485" y="418"/>
      <point x="485" y="500" type="curve" smooth="yes"/>
      <point x="485" y="602"/>
      <point x="402" y="648"/>
      <point x="320" y="648" type="curve" smooth="yes"/>
      <point x="214" y="648"/>
      <point x="123" y="582"/>
      <point x="123" y="470" type="curve" smooth="yes"/>
      <point x="123" y="419"/>
      <point x="142" y="380"/>
      <point x="179" y="343" type="curve"/>
      <point x="179" y="339" type="line"/>
      <point x="102" y="307"/>
      <point x="36" y="246"/>
      <point x="36" y="154" type="curve" smooth="yes"/>
      <point x="36" y="39"/>
      <point x="137" y="-12"/>
    </contour>
    <contour>
      <point x="315" y="355" type="curve"/>
      <point x="254" y="387"/>
      <point x="218" y="417"/>
      <point x="218" y="475" type="curve" smooth="yes"/>
      <point x="218" y="536"/>
      <point x="262" y="571"/>
      <point x="312" y="571" type="curve" smooth="yes"/>
      <point x="361" y="571"/>
      <point x="392" y="537"/>
      <point x="392" y="485" type="curve" smooth="yes"/>
      <point x="392" y="426"/>
      <point x="355" y="384"/>
    </contour>
    <contour>
      <point x="235" y="64" type="curve" smooth="yes"/>
      <point x="176" y="64"/>
      <point x="133" y="105"/>
      <point x="133" y="166" type="curve" smooth="yes"/>
      <point x="133" y="229"/>
      <point x="172" y="273"/>
      <point x="225" y="306" type="curve"/>
      <point x="295" y="267"/>
      <point x="350" y="235"/>
      <point x="350" y="173" type="curve" smooth="yes"/>
      <point x="350" y="102"/>
      <point x="294" y="64"/>
    </contour>
  </outline>
</glyph>
<glyph name="eighthnote" format="1">
  <advance width="499"/>
  <outline>
    <contour>
      <point x="127" y="-26" type="curve" smooth="yes"/>
      <point x="228" y="-26"/>
      <point x="304" y="35"/>
      <point x="304" y="153" type="curve" smooth="yes"/>
      <point x="304" y="542" type="line"/>
      <point x="375" y="519"/>
      <point x="419" y="458"/>
      <point x="419" y="393" type="curve" smooth="yes"/>
      <point x="419" y="359"/>
      <point x="416" y="335"/>
      <point x="406" y="303" type="curve"/>
      <point x="443" y="288" type="line"/>
      <point x="462" y="321"/>
      <point x="482" y="372"/>
      <point x="482" y="423" type="curve" smooth="yes"/>
      <point x="482" y="504"/>
      <point x="454" y="559"/>
      <point x="366" y="623" type="curve" smooth="yes"/>
      <point x="317" y="660"/>
      <point x="309" y="668"/>
      <point x="300" y="694" type="curve"/>
      <point x="240" y="694" type="line"/>
      <point x="240" y="165" type="line"/>
      <point x="232" y="170"/>
      <point x="207" y="177"/>
      <point x="182" y="177" type="curve" smooth="yes"/>
      <point x="93" y="177"/>
      <point x="26" y="119"/>
      <point x="26" y="53" type="curve" smooth="yes"/>
      <point x="26" y="0"/>
      <point x="76" y="-26"/>
    </contour>
  </outline>
</glyph>
<glyph name="eth" format="1">
  <advance width="531"/>
  <outline>
    <contour>
      <point x="220" y="-12" type="curve" smooth="yes"/>
      <point x="392" y="-12"/>
      <point x="482" y="166"/>
      <point x="482" y="352" type="curve" smooth="yes"/>
      <point x="482" y="534"/>
      <point x="390" y="657"/>
      <point x="250" y="735" type="curve"/>
      <point x="201" y="672" type="line"/>
      <point x="323" y="595"/>
      <point x="382" y="501"/>
      <point x="382" y="345" type="curve" smooth="yes"/>
      <point x="382" y="197"/>
      <point x="322" y="75"/>
      <point x="230" y="75" type="curve" smooth="yes"/>
      <point x="169" y="75"/>
      <point x="136" y="126"/>
      <point x="136" y="186" type="curve" smooth="yes"/>
      <point x="136" y="275"/>
      <point x="189" y="368"/>
      <point x="281" y="368" type="curve" smooth="yes"/>
      <point x="329" y="368"/>
      <point x="363" y="333"/>
      <point x="384" y="296" type="curve"/>
      <point x="395" y="357" type="line"/>
      <point x="373" y="417"/>
      <point x="324" y="451"/>
      <point x="268" y="451" type="curve" smooth="yes"/>
      <point x="124" y="451"/>
      <point x="38" y="312"/>
      <point x="38" y="177" type="curve" smooth="yes"/>
      <point x="38" y="64"/>
      <point x="118" y="-12"/>
    </contour>
    <contour>
      <point x="180" y="496" type="line"/>
      <point x="542" y="643" type="line"/>
      <point x="521" y="696" type="line"/>
      <point x="159" y="549" type="line"/>
    </contour>
  </outline>
</glyph>
<glyph name="exclam" format="1">
  <advance width="307"/>
  <outline>
    <contour>
      <point x="109" y="212" type="line"/>
      <point x="181" y="212" type="line"/>
      <point x="265" y="561" type="line"/>
      <point x="289" y="671" type="line"/>
      <point x="182" y="671" type="line"/>
      <point x="165" y="561" type="line"/>
    </contour>
    <contour>
      <point x="104" y="-12" type="curve" smooth="yes"/>
      <point x="152" y="-12"/>
      <point x="186" y="30"/>
      <point x="186" y="73" type="curve" smooth="yes"/>
      <point x="186" y="109"/>
      <point x="163" y="136"/>
      <point x="127" y="136" type="curve" smooth="yes"/>
      <point x="79" y="136"/>
      <point x="44" y="92"/>
      <point x="44" y="50" type="curve" smooth="yes"/>
      <point x="44" y="14"/>
      <point x="68" y="-12"/>
    </contour>
  </outline>
</glyph>
<glyph name="f" format="1">
  <advance width="305"/>
  <outline>
    <contour>
      <point x="58" y="406" type="line"/>
      <point x="121" y="406" type="line"/>
      <point x="40" y="0" type="line"/>
      <point x="147" y="0" type="line"/>
      <point x="227" y="406" type="line"/>
      <point x="321" y="406" type="line"/>
      <point x="338" y="491" type="line"/>
      <point x="245" y="491" type="line"/>
      <point x="257" y="551" type="line" smooth="yes"/>
      <point x="268" y="607"/>
      <point x="293" y="632"/>
      <point x="333" y="632" type="curve" smooth="yes"/>
      <point x="353" y="632"/>
      <point x="372" y="624"/>
      <point x="384" y="617" type="curve"/>
      <point x="420" y="693" type="line"/>
      <point x="392" y="708"/>
      <point x="360" y="718"/>
      <point x="323" y="718" type="curve" smooth="yes"/>
      <point x="225" y="718"/>
      <point x="170" y="648"/>
      <point x="150" y="548" type="curve" smooth="yes"/>
      <point x="139" y="491" type="line"/>
      <point x="74" y="486" type="line"/>
    </contour>
    <contour>
      <point x="318" y="740" type="move" name="aboveLC"/>
    </contour>
    <contour>
      <point x="101" y="-22" type="move" name="belowLC"/>
    </contour>
  </outline>
</glyph>
<glyph name="f.sups" format="1">
  <advance width="209"/>
  <outline>
    <contour>
      <point x="60" y="264" type="line"/>
      <point x="137" y="264" type="line"/>
      <point x="210" y="625" type="line" smooth="yes"/>
      <point x="218" y="662"/>
      <point x="234" y="681"/>
      <point x="260" y="681" type="curve" smooth="yes"/>
      <point x="273" y="681"/>
      <point x="286" y="675"/>
      <point x="294" y="670" type="curve"/>
      <point x="319" y="725" type="line"/>
      <point x="298" y="736"/>
      <point x="277" y="742"/>
      <point x="253" y="742" type="curve" smooth="yes"/>
      <point x="184" y="742"/>
      <point x="146" y="693"/>
      <point x="133" y="626" type="curve" smooth="yes"/>
    </contour>
    <contour>
      <point x="71" y="528" type="line"/>
      <point x="254" y="528" type="line"/>
      <point x="266" y="590" type="line"/>
      <point x="130" y="590" type="line"/>
      <point x="81" y="585" type="line"/>
    </contour>
  </outline>
</glyph>
<glyph name="f_f" format="1">
  <advance width="589"/>
  <outline>
    <contour>
      <point x="40" y="0" type="line"/>
      <point x="147" y="0" type="line"/>
      <point x="255" y="541" type="line" smooth="yes"/>
      <point x="266" y="597"/>
      <point x="293" y="622"/>
      <point x="335" y="622" type="curve" smooth="yes"/>
      <point x="358" y="622"/>
      <point x="376" y="614"/>
      <point x="390" y="607" type="curve"/>
      <point x="426" y="684" type="line"/>
      <point x="396" y="698"/>
      <point x="364" y="708"/>
      <point x="325" y="708" type="curve" smooth="yes"/>
      <point x="225" y="708"/>
      <point x="169" y="638"/>
      <point x="148" y="538" type="curve" smooth="yes"/>
    </contour>
    <contour>
      <point x="325" y="0" type="line"/>
      <point x="432" y="0" type="line"/>
      <point x="543" y="551" type="line" smooth="yes"/>
      <point x="554" y="607"/>
      <point x="578" y="632"/>
      <point x="619" y="632" type="curve" smooth="yes"/>
      <point x="639" y="632"/>
      <point x="657" y="624"/>
      <point x="670" y="617" type="curve"/>
      <point x="705" y="694" type="line"/>
      <point x="677" y="708"/>
      <point x="646" y="718"/>
      <point x="609" y="718" type="curve" smooth="yes"/>
      <point x="511" y="718"/>
      <point x="456" y="648"/>
      <point x="436" y="548" type="curve" smooth="yes"/>
    </contour>
    <contour>
      <point x="58" y="406" type="line"/>
      <point x="606" y="406" type="line"/>
      <point x="623" y="491" type="line"/>
      <point x="144" y="491" type="line"/>
      <point x="74" y="486" type="line"/>
    </contour>
  </outline>
</glyph>
<glyph name="f_t" format="1">
	<advance width="606"/>
	<outline>
		<contour>
			<point x="40" y="0" type="line"/>
			<point x="147" y="0" type="line"/>
			<point x="257" y="551" type="line" smooth="yes"/>
			<point x="268" y="607"/>
			<point x="293" y="632"/>
			<point x="333" y="632" type="curve" smooth="yes"/>
			<point x="353" y="632"/>
			<point x="372" y="624"/>
			<point x="384" y="617" type="curve"/>
			<point x="420" y="694" type="line"/>
			<point x="391" y="708"/>
			<point x="360" y="718"/>
			<point x="323" y="718" type="curve" smooth="yes"/>
			<point x="225" y="718"/>
			<point x="170" y="648"/>
			<point x="150" y="548" type="curve" smooth="yes"/>
		</contour>
		<contour>
			<point x="454" y="-12" type="curve" smooth="yes"/>
			<point x="499" y="-12"/>
			<point x="534" y="0"/>
			<point x="558" y="10" type="curve"/>
			<point x="538" y="86" type="line"/>
			<point x="524" y="79"/>
			<point x="509" y="73"/>
			<point x="492" y="73" type="curve" smooth="yes"/>
			<point x="451" y="73"/>
			<point x="435" y="91"/>
			<point x="435" y="127" type="curve" smooth="yes"/>
			<point x="435" y="139"/>
			<point x="436" y="150"/>
			<point x="438" y="162" type="curve" smooth="yes"/>
			<point x="488" y="406" type="line"/>
			<point x="608" y="406" type="line"/>
			<point x="625" y="491" type="line"/>
			<point x="507" y="491" type="line"/>
			<point x="533" y="623" type="line"/>
			<point x="443" y="623" type="line"/>
			<point x="404" y="491" type="line"/>
			<point x="144" y="491" type="line"/>
			<point x="74" y="486" type="line"/>
			<point x="58" y="406" type="line"/>
			<point x="382" y="406" type="line"/>
			<point x="332" y="166" type="line" smooth="yes"/>
			<point x="328" y="146"/>
			<point x="326" y="128"/>
			<point x="326" y="108" type="curve" smooth="yes"/>
			<point x="326" y="40"/>
			<point x="362" y="-12"/>
		</contour>
	</outline>
</glyph>
<glyph name="fisheye" format="1">
  <advance width="441"/>
  <outline>
    <contour>
      <point x="221" y="72" type="curve" smooth="yes"/>
      <point x="322" y="72"/>
      <point x="404" y="148"/>
      <point x="404" y="263" type="curve" smooth="yes"/>
      <point x="404" y="377"/>
      <point x="322" y="454"/>
      <point x="221" y="454" type="curve" smooth="yes"/>
      <point x="121" y="454"/>
      <point x="39" y="377"/>
      <point x="39" y="263" type="curve" smooth="yes"/>
      <point x="39" y="148"/>
      <point x="121" y="72"/>
    </contour>
    <contour>
      <point x="221" y="130" type="curve" smooth="yes"/>
      <point x="156" y="130"/>
      <point x="100" y="180"/>
      <point x="100" y="263" type="curve" smooth="yes"/>
      <point x="100" y="345"/>
      <point x="156" y="396"/>
      <point x="221" y="396" type="curve" smooth="yes"/>
      <point x="287" y="396"/>
      <point x="342" y="345"/>
      <point x="342" y="263" type="curve" smooth="yes"/>
      <point x="342" y="180"/>
      <point x="287" y="130"/>
    </contour>
    <contour>
      <point x="221" y="200" type="curve" smooth="yes"/>
      <point x="252" y="200"/>
      <point x="280" y="226"/>
      <point x="280" y="263" type="curve" smooth="yes"/>
      <point x="280" y="300"/>
      <point x="252" y="326"/>
      <point x="221" y="326" type="curve" smooth="yes"/>
      <point x="190" y="326"/>
      <point x="162" y="300"/>
      <point x="162" y="263" type="curve" smooth="yes"/>
      <point x="162" y="226"/>
      <point x="190" y="200"/>
    </contour>
  </outline>
</glyph>
<glyph name="five" format="1">
  <advance width="494"/>
  <outline>
    <contour>
      <point x="193" y="-12" type="curve" smooth="yes"/>
      <point x="321" y="-12"/>
      <point x="441" y="84"/>
      <point x="441" y="238" type="curve" smooth="yes"/>
      <point x="441" y="349"/>
      <point x="369" y="406"/>
      <point x="273" y="406" type="curve" smooth="yes"/>
      <point x="245" y="406"/>
      <point x="222" y="400"/>
      <point x="201" y="390" type="curve"/>
      <point x="244" y="546" type="line"/>
      <point x="472" y="546" type="line"/>
      <point x="490" y="636" type="line"/>
      <point x="169" y="636" type="line"/>
      <point x="90" y="328" type="line"/>
      <point x="132" y="294" type="line"/>
      <point x="174" y="317"/>
      <point x="195" y="325"/>
      <point x="232" y="325" type="curve" smooth="yes"/>
      <point x="294" y="325"/>
      <point x="333" y="290"/>
      <point x="333" y="220" type="curve" smooth="yes"/>
      <point x="333" y="131"/>
      <point x="268" y="75"/>
      <point x="196" y="75" type="curve" smooth="yes"/>
      <point x="133" y="75"/>
      <point x="94" y="110"/>
      <point x="63" y="155" type="curve"/>
      <point x="-6" y="99" type="line"/>
      <point x="42" y="29"/>
      <point x="110" y="-12"/>
    </contour>
  </outline>
</glyph>
<glyph name="five.tnum" format="1">
  <advance width="494"/>
  <outline>
    <contour>
      <point x="175" y="-88" type="curve" smooth="yes"/>
      <point x="303" y="-88"/>
      <point x="424" y="9"/>
      <point x="424" y="163" type="curve" smooth="yes"/>
      <point x="424" y="277"/>
      <point x="351" y="337"/>
      <point x="255" y="337" type="curve" smooth="yes"/>
      <point x="228" y="337"/>
      <point x="204" y="331"/>
      <point x="183" y="321" type="curve"/>
      <point x="229" y="485" type="line"/>
      <point x="457" y="485" type="line"/>
      <point x="475" y="576" type="line"/>
      <point x="154" y="576" type="line"/>
      <point x="72" y="259" type="line"/>
      <point x="114" y="225" type="line"/>
      <point x="157" y="247"/>
      <point x="177" y="256"/>
      <point x="214" y="256" type="curve" smooth="yes"/>
      <point x="276" y="256"/>
      <point x="315" y="218"/>
      <point x="315" y="145" type="curve" smooth="yes"/>
      <point x="315" y="56"/>
      <point x="251" y="0"/>
      <point x="179" y="0" type="curve" smooth="yes"/>
      <point x="116" y="0"/>
      <point x="76" y="35"/>
      <point x="46" y="79" type="curve"/>
      <point x="-23" y="24" type="line"/>
      <point x="24" y="-46"/>
      <point x="92" y="-88"/>
    </contour>
  </outline>
</glyph>
<glyph name="floorleft" format="1">
  <advance width="311"/>
  <outline>
    <contour>
      <point x="22" y="-54" type="line"/>
      <point x="208" y="-54" type="line"/>
      <point x="220" y="5" type="line"/>
      <point x="115" y="5" type="line"/>
      <point x="241" y="636" type="line"/>
      <point x="160" y="636" type="line"/>
    </contour>
  </outline>
</glyph>
<glyph name="floorright" format="1">
  <advance width="312"/>
  <outline>
    <contour>
      <point x="-19" y="-54" type="line"/>
      <point x="166" y="-54" type="line"/>
      <point x="304" y="636" type="line"/>
      <point x="222" y="636" type="line"/>
      <point x="97" y="5" type="line"/>
      <point x="-8" y="5" type="line"/>
    </contour>
  </outline>
</glyph>
<glyph name="florin" format="1">
  <advance width="494"/>
  <outline>
    <contour>
      <point x="45" y="-97" type="curve" smooth="yes"/>
      <point x="150" y="-97"/>
      <point x="201" y="-13"/>
      <point x="236" y="97" type="curve" smooth="yes"/>
      <point x="353" y="476" type="line" smooth="yes"/>
      <point x="371" y="533"/>
      <point x="404" y="585"/>
      <point x="450" y="585" type="curve" smooth="yes"/>
      <point x="470" y="585"/>
      <point x="487" y="578"/>
      <point x="502" y="570" type="curve"/>
      <point x="536" y="648" type="line"/>
      <point x="510" y="662"/>
      <point x="479" y="671"/>
      <point x="451" y="671" type="curve" smooth="yes"/>
      <point x="349" y="671"/>
      <point x="288" y="604"/>
      <point x="250" y="478" type="curve" smooth="yes"/>
      <point x="145" y="134" type="line" smooth="yes"/>
      <point x="114" y="32"/>
      <point x="86" y="-11"/>
      <point x="38" y="-11" type="curve" smooth="yes"/>
      <point x="20" y="-11"/>
      <point x="3" y="-5"/>
      <point x="-10" y="4" type="curve"/>
      <point x="-42" y="-73" type="line"/>
      <point x="-17" y="-91"/>
      <point x="15" y="-97"/>
    </contour>
    <contour>
      <point x="126" y="330" type="line"/>
      <point x="426" y="330" type="line"/>
      <point x="442" y="409" type="line"/>
      <point x="212" y="409" type="line"/>
      <point x="142" y="405" type="line"/>
    </contour>
  </outline>
</glyph>
<glyph name="four" format="1">
  <advance width="494"/>
  <outline>
    <contour>
      <point x="341" y="0" type="line"/>
      <point x="374" y="165" type="line"/>
      <point x="452" y="165" type="line"/>
      <point x="468" y="249" type="line"/>
      <point x="390" y="249" type="line"/>
      <point x="468" y="636" type="line"/>
      <point x="343" y="636" type="line"/>
      <point x="22" y="239" type="line"/>
      <point x="8" y="165" type="line"/>
      <point x="275" y="165" type="line"/>
      <point x="242" y="0" type="line"/>
    </contour>
    <contour>
      <point x="132" y="249" type="line"/>
      <point x="274" y="424" type="line" smooth="yes"/>
      <point x="299" y="457"/>
      <point x="324" y="496"/>
      <point x="349" y="534" type="curve"/>
      <point x="353" y="534" type="line"/>
      <point x="343" y="489"/>
      <point x="330" y="442"/>
      <point x="322" y="400" type="curve" smooth="yes"/>
      <point x="291" y="249" type="line"/>
    </contour>
  </outline>
</glyph>
<glyph name="fraction" format="1">
  <advance width="89"/>
  <outline>
    <contour>
      <point x="-213" y="-12" type="line"/>
      <point x="-147" y="-12" type="line"/>
      <point x="332" y="672" type="line"/>
      <point x="266" y="672" type="line"/>
    </contour>
  </outline>
</glyph>
<glyph name="g.supa" format="1">
  <advance width="332"/>
  <outline>
    <contour>
      <point x="81" y="463" type="curve" smooth="yes"/>
      <point x="81" y="431"/>
      <point x="94" y="408"/>
      <point x="115" y="389" type="curve"/>
      <point x="115" y="386" type="line"/>
      <point x="90" y="371"/>
      <point x="72" y="350"/>
      <point x="72" y="325" type="curve" smooth="yes"/>
      <point x="72" y="306"/>
      <point x="80" y="290"/>
      <point x="90" y="282" type="curve"/>
      <point x="90" y="278" type="line"/>
      <point x="53" y="262"/>
      <point x="19" y="237"/>
      <point x="19" y="198" type="curve" smooth="yes"/>
      <point x="19" y="132"/>
      <point x="92" y="121"/>
      <point x="140" y="121" type="curve" smooth="yes"/>
      <point x="224" y="121"/>
      <point x="314" y="158"/>
      <point x="314" y="234" type="curve" smooth="yes"/>
      <point x="314" y="276"/>
      <point x="287" y="297"/>
      <point x="193" y="310" type="curve" smooth="yes"/>
      <point x="144" y="317"/>
      <point x="136" y="323"/>
      <point x="136" y="342" type="curve" smooth="yes"/>
      <point x="136" y="353"/>
      <point x="145" y="363"/>
      <point x="154" y="369" type="curve"/>
      <point x="161" y="367"/>
      <point x="173" y="365"/>
      <point x="185" y="365" type="curve" smooth="yes"/>
      <point x="268" y="365"/>
      <point x="326" y="419"/>
      <point x="326" y="494" type="curve" smooth="yes"/>
      <point x="326" y="507"/>
      <point x="324" y="520"/>
      <point x="318" y="531" type="curve"/>
      <point x="371" y="531" type="line"/>
      <point x="382" y="589" type="line"/>
      <point x="265" y="589" type="line"/>
      <point x="252" y="594"/>
      <point x="237" y="597"/>
      <point x="220" y="597" type="curve" smooth="yes"/>
      <point x="143" y="597"/>
      <point x="81" y="539"/>
    </contour>
    <contour>
      <point x="131" y="260" type="curve"/>
      <point x="148" y="256"/>
      <point x="160" y="253"/>
      <point x="170" y="252" type="curve" smooth="yes"/>
      <point x="212" y="248"/>
      <point x="237" y="239"/>
      <point x="237" y="216" type="curve" smooth="yes"/>
      <point x="237" y="189"/>
      <point x="199" y="171"/>
      <point x="147" y="171" type="curve" smooth="yes"/>
      <point x="109" y="171"/>
      <point x="86" y="183"/>
      <point x="86" y="211" type="curve" smooth="yes"/>
      <point x="86" y="232"/>
      <point x="108" y="249"/>
    </contour>
    <contour>
      <point x="218" y="543" type="curve" smooth="yes"/>
      <point x="245" y="543"/>
      <point x="260" y="525"/>
      <point x="260" y="494" type="curve" smooth="yes"/>
      <point x="260" y="454"/>
      <point x="232" y="414"/>
      <point x="193" y="414" type="curve" smooth="yes"/>
      <point x="166" y="414"/>
      <point x="151" y="432"/>
      <point x="151" y="464" type="curve" smooth="yes"/>
      <point x="151" y="503"/>
      <point x="179" y="543"/>
    </contour>
  </outline>
</glyph>
<glyph name="g.sups" format="1">
  <advance width="360"/>
  <outline>
    <contour>
      <point x="323" y="590" type="line"/>
      <point x="308" y="552" type="line"/>
      <point x="304" y="552" type="line"/>
      <point x="290" y="581"/>
      <point x="264" y="598"/>
      <point x="234" y="598" type="curve" smooth="yes"/>
      <point x="142" y="598"/>
      <point x="58" y="500"/>
      <point x="58" y="382" type="curve" smooth="yes"/>
      <point x="58" y="310"/>
      <point x="94" y="269"/>
      <point x="152" y="269" type="curve" smooth="yes"/>
      <point x="190" y="269"/>
      <point x="224" y="284"/>
      <point x="256" y="309" type="curve"/>
      <point x="260" y="309" type="line"/>
      <point x="246" y="258" type="line" smooth="yes"/>
      <point x="231" y="207"/>
      <point x="201" y="176"/>
      <point x="157" y="176" type="curve" smooth="yes"/>
      <point x="123" y="176"/>
      <point x="90" y="193"/>
      <point x="63" y="212" type="curve"/>
      <point x="30" y="160" type="line"/>
      <point x="69" y="129"/>
      <point x="116" y="115"/>
      <point x="154" y="115" type="curve" smooth="yes"/>
      <point x="241" y="115"/>
      <point x="300" y="166"/>
      <point x="319" y="260" type="curve" smooth="yes"/>
      <point x="385" y="590" type="line"/>
    </contour>
    <contour>
      <point x="182" y="332" type="curve" smooth="yes"/>
      <point x="156" y="332"/>
      <point x="137" y="351"/>
      <point x="137" y="392" type="curve" smooth="yes"/>
      <point x="137" y="468"/>
      <point x="186" y="534"/>
      <point x="238" y="534" type="curve" smooth="yes"/>
      <point x="256" y="534"/>
      <point x="275" y="524"/>
      <point x="288" y="496" type="curve"/>
      <point x="265" y="374" type="line"/>
      <point x="240" y="345"/>
      <point x="208" y="332"/>
    </contour>
  </outline>
</glyph>
<glyph name="germandbls" format="1">
  <advance width="583"/>
  <outline>
    <contour>
      <point x="357" y="-12" type="curve" smooth="yes"/>
      <point x="457" y="-12"/>
      <point x="533" y="62"/>
      <point x="533" y="154" type="curve" smooth="yes"/>
      <point x="533" y="274"/>
      <point x="395" y="296"/>
      <point x="395" y="364" type="curve" smooth="yes"/>
      <point x="395" y="433"/>
      <point x="518" y="459"/>
      <point x="518" y="578" type="curve" smooth="yes"/>
      <point x="518" y="674"/>
      <point x="440" y="718"/>
      <point x="353" y="718" type="curve" smooth="yes"/>
      <point x="228" y="718"/>
      <point x="149" y="628"/>
      <point x="126" y="515" type="curve" smooth="yes"/>
      <point x="22" y="0" type="line"/>
      <point x="130" y="0" type="line"/>
      <point x="228" y="493" type="line" smooth="yes"/>
      <point x="245" y="570"/>
      <point x="287" y="632"/>
      <point x="348" y="632" type="curve" smooth="yes"/>
      <point x="395" y="632"/>
      <point x="414" y="604"/>
      <point x="414" y="563" type="curve" smooth="yes"/>
      <point x="414" y="467"/>
      <point x="290" y="443"/>
      <point x="290" y="345" type="curve" smooth="yes"/>
      <point x="290" y="243"/>
      <point x="433" y="223"/>
      <point x="433" y="142" type="curve" smooth="yes"/>
      <point x="433" y="100"/>
      <point x="400" y="69"/>
      <point x="356" y="69" type="curve" smooth="yes"/>
      <point x="319" y="69"/>
      <point x="288" y="85"/>
      <point x="259" y="106" type="curve"/>
      <point x="213" y="35" type="line"/>
      <point x="256" y="3"/>
      <point x="307" y="-12"/>
    </contour>
  </outline>
</glyph>
<glyph name="gravecmb.cap" format="1">
  <advance width="0"/>
  <outline>
    <contour>
      <point x="136" y="682" type="move" name="_aboveUC"/>
    </contour>
    <contour>
      <point x="153" y="684" type="line"/>
      <point x="214" y="737" type="line"/>
      <point x="79" y="883" type="line"/>
      <point x="4" y="815" type="line"/>
    </contour>
  </outline>
</glyph>
<glyph name="gravecmb" format="1">
  <advance width="0"/>
  <outline>
    <contour>
      <point x="110" y="514" type="move" name="_aboveLC"/>
    </contour>
    <contour>
      <point x="142" y="569" type="line"/>
      <point x="210" y="615" type="line"/>
      <point x="112" y="788" type="line"/>
      <point x="17" y="727" type="line"/>
    </contour>
  </outline>
</glyph>
<glyph name="greaterequal" format="1">
  <advance width="494"/>
  <outline>
    <contour>
      <point x="48" y="154" type="line"/>
      <point x="474" y="303" type="line"/>
      <point x="474" y="392" type="line"/>
      <point x="48" y="540" type="line"/>
      <point x="48" y="451" type="line"/>
      <point x="234" y="388" type="line"/>
      <point x="363" y="349" type="line"/>
      <point x="363" y="345" type="line"/>
      <point x="234" y="306" type="line"/>
      <point x="48" y="244" type="line"/>
    </contour>
    <contour>
      <point x="48" y="0" type="line"/>
      <point x="472" y="0" type="line"/>
      <point x="472" y="78" type="line"/>
      <point x="48" y="78" type="line"/>
    </contour>
  </outline>
</glyph>
<glyph name="guarani" format="1">
  <advance width="494"/>
  <outline>
    <contour>
      <point x="244" y="-12" type="curve" smooth="yes"/>
      <point x="320" y="-12"/>
      <point x="379" y="24"/>
      <point x="422" y="64" type="curve"/>
      <point x="477" y="343" type="line"/>
      <point x="300" y="343" type="line"/>
      <point x="282" y="255" type="line"/>
      <point x="364" y="255" type="line"/>
      <point x="333" y="104" type="line"/>
      <point x="318" y="88"/>
      <point x="291" y="75"/>
      <point x="262" y="75" type="curve" smooth="yes"/>
      <point x="191" y="75"/>
      <point x="152" y="139"/>
      <point x="152" y="242" type="curve" smooth="yes"/>
      <point x="152" y="423"/>
      <point x="242" y="567"/>
      <point x="362" y="567" type="curve" smooth="yes"/>
      <point x="401" y="567"/>
      <point x="423" y="543"/>
      <point x="441" y="506" type="curve"/>
      <point x="519" y="557" type="line"/>
      <point x="489" y="612"/>
      <point x="445" y="654"/>
      <point x="372" y="654" type="curve" smooth="yes"/>
      <point x="198" y="654"/>
      <point x="44" y="484"/>
      <point x="44" y="234" type="curve" smooth="yes"/>
      <point x="44" y="80"/>
      <point x="119" y="-12"/>
    </contour>
    <contour>
      <point x="178" y="-110" type="line"/>
      <point x="252" y="-110" type="line"/>
      <point x="280" y="29" type="line"/>
      <point x="206" y="29" type="line"/>
    </contour>
    <contour>
      <point x="323" y="617" type="line"/>
      <point x="397" y="617" type="line"/>
      <point x="423" y="752" type="line"/>
      <point x="350" y="752" type="line"/>
    </contour>
  </outline>
</glyph>
<glyph name="guilsinglright" format="1">
  <advance width="262"/>
  <outline>
    <contour>
      <point x="60" y="62" type="line"/>
      <point x="214" y="206" type="line"/>
      <point x="229" y="286" type="line"/>
      <point x="126" y="440" type="line"/>
      <point x="80" y="411" type="line"/>
      <point x="162" y="254" type="line"/>
      <point x="25" y="100" type="line"/>
    </contour>
  </outline>
</glyph>
<glyph name="h.sups" format="1">
  <advance width="361"/>
  <outline>
    <contour>
      <point x="49" y="264" type="line"/>
      <point x="127" y="264" type="line"/>
      <point x="170" y="482" type="line"/>
      <point x="202" y="516"/>
      <point x="227" y="532"/>
      <point x="252" y="532" type="curve" smooth="yes"/>
      <point x="275" y="532"/>
      <point x="288" y="518"/>
      <point x="288" y="491" type="curve" smooth="yes"/>
      <point x="288" y="482"/>
      <point x="286" y="474"/>
      <point x="282" y="459" type="curve" smooth="yes"/>
      <point x="244" y="264" type="line"/>
      <point x="321" y="264" type="line"/>
      <point x="362" y="469" type="line" smooth="yes"/>
      <point x="365" y="482"/>
      <point x="368" y="498"/>
      <point x="368" y="513" type="curve" smooth="yes"/>
      <point x="368" y="566"/>
      <point x="345" y="598"/>
      <point x="290" y="598" type="curve" smooth="yes"/>
      <point x="250" y="598"/>
      <point x="214" y="575"/>
      <point x="183" y="549" type="curve"/>
      <point x="180" y="549" type="line"/>
      <point x="198" y="619" type="line"/>
      <point x="220" y="730" type="line"/>
      <point x="142" y="730" type="line"/>
    </contour>
  </outline>
</glyph>
<glyph name="hbar" format="1">
  <advance width="533"/>
  <outline>
    <contour>
      <point x="22" y="0" type="line"/>
      <point x="130" y="0" type="line"/>
      <point x="192" y="315" type="line"/>
      <point x="244" y="368"/>
      <point x="282" y="391"/>
      <point x="316" y="391" type="curve" smooth="yes"/>
      <point x="358" y="391"/>
      <point x="378" y="370"/>
      <point x="378" y="328" type="curve" smooth="yes"/>
      <point x="378" y="313"/>
      <point x="374" y="299"/>
      <point x="370" y="276" type="curve" smooth="yes"/>
      <point x="314" y="0" type="line"/>
      <point x="421" y="0" type="line"/>
      <point x="479" y="290" type="line" smooth="yes"/>
      <point x="485" y="316"/>
      <point x="487" y="336"/>
      <point x="487" y="359" type="curve" smooth="yes"/>
      <point x="487" y="438"/>
      <point x="453" y="483"/>
      <point x="371" y="483" type="curve" smooth="yes"/>
      <point x="312" y="483"/>
      <point x="259" y="450"/>
      <point x="209" y="407" type="curve"/>
      <point x="205" y="407" type="line"/>
      <point x="224" y="478" type="line"/>
      <point x="271" y="706" type="line"/>
      <point x="164" y="706" type="line"/>
    </contour>
    <contour>
      <point x="66" y="565" type="line"/>
      <point x="410" y="565" type="line"/>
      <point x="422" y="621" type="line"/>
      <point x="150" y="621" type="line"/>
      <point x="76" y="616" type="line"/>
    </contour>
  </outline>
</glyph>
<glyph name="hoicmb.cap" format="1">
  <advance width="0"/>
  <outline>
    <contour>
      <point x="136" y="682" type="move" name="_aboveUC"/>
    </contour>
    <contour>
      <point x="78" y="697" type="line"/>
      <point x="150" y="703"/>
      <point x="212" y="728"/>
      <point x="219" y="791" type="curve" smooth="yes"/>
      <point x="225" y="836"/>
      <point x="193" y="871"/>
      <point x="83" y="882" type="curve"/>
      <point x="61" y="825" type="line"/>
      <point x="119" y="817"/>
      <point x="135" y="804"/>
      <point x="134" y="784" type="curve" smooth="yes"/>
      <point x="133" y="762"/>
      <point x="110" y="753"/>
      <point x="75" y="745" type="curve"/>
    </contour>
  </outline>
</glyph>
<glyph name="hoicmb" format="1">
  <outline>
    <contour>
      <point x="73" y="570" type="line"/>
      <point x="141" y="578"/>
      <point x="206" y="606"/>
      <point x="218" y="669" type="curve" smooth="yes"/>
      <point x="230" y="734"/>
      <point x="188" y="774"/>
      <point x="77" y="777" type="curve"/>
      <point x="57" y="704" type="line"/>
      <point x="112" y="701"/>
      <point x="135" y="686"/>
      <point x="129" y="660" type="curve" smooth="yes"/>
      <point x="125" y="636"/>
      <point x="101" y="626"/>
      <point x="72" y="619" type="curve"/>
    </contour>
    <contour>
      <point x="110" y="514" type="move" name="_aboveLC"/>
    </contour>
  </outline>
</glyph>
<glyph name="horncmb" format="1">
  <outline>
    <contour>
      <point x="81" y="432" type="line"/>
      <point x="201" y="439"/>
      <point x="256" y="495"/>
      <point x="256" y="561" type="curve" smooth="yes"/>
      <point x="256" y="579"/>
      <point x="252" y="596"/>
      <point x="244" y="615" type="curve"/>
      <point x="163" y="588" type="line"/>
      <point x="167" y="576"/>
      <point x="169" y="565"/>
      <point x="169" y="554" type="curve" smooth="yes"/>
      <point x="169" y="515"/>
      <point x="132" y="485"/>
      <point x="80" y="481" type="curve"/>
    </contour>
    <contour>
      <point x="98" y="491" type="move" name="_hornLC"/>
    </contour>
  </outline>
</glyph>
<glyph name="hungarumlautcmb.cap" format="1">
  <advance width="0"/>
  <outline>
    <contour>
      <point x="136" y="682" type="move" name="_aboveUC"/>
    </contour>
    <contour>
      <point x="67" y="700" type="line"/>
      <point x="198" y="820" type="line"/>
      <point x="126" y="861" type="line"/>
      <point x="11" y="728" type="line"/>
    </contour>
    <contour>
      <point x="239" y="700" type="line"/>
      <point x="370" y="820" type="line"/>
      <point x="298" y="861" type="line"/>
      <point x="183" y="728" type="line"/>
    </contour>
  </outline>
</glyph>
<glyph name="hungarumlautcmb" format="1">
  <advance width="0"/>
  <outline>
    <contour>
      <point x="110" y="514" type="move" name="_aboveLC"/>
    </contour>
    <contour>
      <point x="64" y="568" type="line"/>
      <point x="196" y="719" type="line"/>
      <point x="118" y="755" type="line"/>
      <point x="4" y="596" type="line"/>
    </contour>
    <contour>
      <point x="228" y="568" type="line"/>
      <point x="359" y="719" type="line"/>
      <point x="282" y="755" type="line"/>
      <point x="168" y="596" type="line"/>
    </contour>
  </outline>
</glyph>
<glyph name="hungarumlautcmb.cap" format="1">
  <advance width="0"/>
  <outline>
    <contour>
      <point x="136" y="682" type="move" name="_aboveUC"/>
    </contour>
    <contour>
      <point x="69" y="701" type="line"/>
      <point x="207" y="832" type="line"/>
      <point x="140" y="881" type="line"/>
      <point x="16" y="734" type="line"/>
    </contour>
    <contour>
      <point x="243" y="701" type="line"/>
      <point x="381" y="832" type="line"/>
      <point x="314" y="881" type="line"/>
      <point x="190" y="734" type="line"/>
    </contour>
  </outline>
</glyph>
<glyph name="i" format="1">
  <advance width="251"/>
  <outline>
    <contour>
      <point x="70" y="0" type="move" name="ogonekLC"/>
    </contour>
    <contour>
      <point x="223" y="710" type="move" name="aboveLC"/>
    </contour>
    <contour>
      <point x="82" y="-22" type="move" name="belowLC"/>
    </contour>
    <contour>
      <point x="22" y="0" type="line"/>
      <point x="130" y="0" type="line"/>
      <point x="228" y="491" type="line"/>
      <point x="121" y="491" type="line"/>
    </contour>
    <contour>
      <point x="200" y="578" type="curve" smooth="yes"/>
      <point x="240" y="578"/>
      <point x="272" y="608"/>
      <point x="272" y="648" type="curve" smooth="yes"/>
      <point x="272" y="684"/>
      <point x="242" y="704"/>
      <point x="211" y="704" type="curve" smooth="yes"/>
      <point x="171" y="704"/>
      <point x="139" y="672"/>
      <point x="139" y="634" type="curve" smooth="yes"/>
      <point x="139" y="598"/>
      <point x="169" y="578"/>
    </contour>
  </outline>
</glyph>
<glyph name="i.sups" format="1">
  <advance width="172"/>
  <outline>
    <contour>
      <point x="169" y="644" type="curve" smooth="yes"/>
      <point x="197" y="644"/>
      <point x="220" y="666"/>
      <point x="220" y="692" type="curve" smooth="yes"/>
      <point x="220" y="718"/>
      <point x="199" y="732"/>
      <point x="176" y="732" type="curve" smooth="yes"/>
      <point x="148" y="732"/>
      <point x="125" y="709"/>
      <point x="125" y="684" type="curve" smooth="yes"/>
      <point x="125" y="658"/>
      <point x="146" y="644"/>
    </contour>
    <contour>
      <point x="49" y="264" type="line"/>
      <point x="127" y="264" type="line"/>
      <point x="191" y="590" type="line"/>
      <point x="114" y="590" type="line"/>
    </contour>
  </outline>
</glyph>
<glyph name="i.sups" format="1">
  <advance width="172"/>
  <outline>
    <contour>
      <point x="169" y="765" type="curve" smooth="yes"/>
      <point x="197" y="765"/>
      <point x="220" y="787"/>
      <point x="220" y="813" type="curve" smooth="yes"/>
      <point x="220" y="839"/>
      <point x="199" y="852"/>
      <point x="176" y="852" type="curve" smooth="yes"/>
      <point x="148" y="852"/>
      <point x="125" y="830"/>
      <point x="125" y="804" type="curve" smooth="yes"/>
      <point x="125" y="778"/>
      <point x="146" y="765"/>
    </contour>
    <contour>
      <point x="49" y="385" type="line"/>
      <point x="127" y="385" type="line"/>
      <point x="191" y="710" type="line"/>
      <point x="114" y="710" type="line"/>
    </contour>
  </outline>
</glyph>
<glyph name="integral" format="1">
  <advance width="348"/>
  <outline>
    <contour>
      <point x="20" y="-158" type="curve" smooth="yes"/>
      <point x="146" y="-158"/>
      <point x="190" y="-58"/>
      <point x="217" y="78" type="curve" smooth="yes"/>
      <point x="246" y="232"/>
      <point x="245" y="406"/>
      <point x="274" y="555" type="curve" smooth="yes"/>
      <point x="293" y="654"/>
      <point x="316" y="708"/>
      <point x="368" y="708" type="curve" smooth="yes"/>
      <point x="384" y="708"/>
      <point x="398" y="706"/>
      <point x="406" y="704" type="curve"/>
      <point x="427" y="783" type="line"/>
      <point x="416" y="787"/>
      <point x="395" y="790"/>
      <point x="373" y="790" type="curve" smooth="yes"/>
      <point x="246" y="790"/>
      <point x="203" y="688"/>
      <point x="177" y="554" type="curve" smooth="yes"/>
      <point x="147" y="399"/>
      <point x="150" y="225"/>
      <point x="120" y="76" type="curve" smooth="yes"/>
      <point x="100" y="-25"/>
      <point x="80" y="-77"/>
      <point x="26" y="-77" type="curve" smooth="yes"/>
      <point x="12" y="-77"/>
      <point x="1" y="-75"/>
      <point x="-7" y="-73" type="curve"/>
      <point x="-29" y="-151" type="line"/>
      <point x="-18" y="-156"/>
      <point x="0" y="-158"/>
    </contour>
  </outline>
</glyph>
<glyph name="iogonek" format="1">
  <advance width="251"/>
  <outline>
    <contour>
      <point x="40" y="-208" type="curve" smooth="yes"/>
      <point x="68" y="-208"/>
      <point x="105" y="-195"/>
      <point x="130" y="-178" type="curve"/>
      <point x="110" y="-130" type="line"/>
      <point x="99" y="-137"/>
      <point x="88" y="-141"/>
      <point x="76" y="-141" type="curve" smooth="yes"/>
      <point x="56" y="-141"/>
      <point x="40" y="-129"/>
      <point x="40" y="-108" type="curve" smooth="yes"/>
      <point x="40" y="-69"/>
      <point x="69" y="-31"/>
      <point x="130" y="0" type="curve"/>
      <point x="228" y="491" type="line"/>
      <point x="121" y="491" type="line"/>
      <point x="22" y="0" type="line"/>
      <point x="51" y="0" type="line"/>
      <point x="17" y="-23"/>
      <point x="-40" y="-77"/>
      <point x="-40" y="-138" type="curve" smooth="yes"/>
      <point x="-40" y="-184"/>
      <point x="-6" y="-208"/>
    </contour>
    <contour>
      <point x="200" y="578" type="curve" smooth="yes"/>
      <point x="240" y="578"/>
      <point x="272" y="608"/>
      <point x="272" y="648" type="curve" smooth="yes"/>
      <point x="272" y="684"/>
      <point x="242" y="704"/>
      <point x="211" y="704" type="curve" smooth="yes"/>
      <point x="171" y="704"/>
      <point x="139" y="672"/>
      <point x="139" y="634" type="curve" smooth="yes"/>
      <point x="139" y="598"/>
      <point x="169" y="578"/>
    </contour>
  </outline>
</glyph>
<glyph name="j.sups" format="1">
  <advance width="172"/>
  <outline>
    <contour>
      <point x="8" y="124" type="curve" smooth="yes"/>
      <point x="75" y="124"/>
      <point x="108" y="169"/>
      <point x="121" y="233" type="curve" smooth="yes"/>
      <point x="191" y="590" type="line"/>
      <point x="114" y="590" type="line"/>
      <point x="44" y="239" type="line" smooth="yes"/>
      <point x="37" y="203"/>
      <point x="27" y="185"/>
      <point x="2" y="185" type="curve" smooth="yes"/>
      <point x="-9" y="185"/>
      <point x="-19" y="189"/>
      <point x="-28" y="193" type="curve"/>
      <point x="-53" y="139" type="line"/>
      <point x="-32" y="128"/>
      <point x="-13" y="124"/>
    </contour>
    <contour>
      <point x="169" y="644" type="curve" smooth="yes"/>
      <point x="197" y="644"/>
      <point x="220" y="666"/>
      <point x="220" y="692" type="curve" smooth="yes"/>
      <point x="220" y="718"/>
      <point x="199" y="732"/>
      <point x="176" y="732" type="curve" smooth="yes"/>
      <point x="148" y="732"/>
      <point x="125" y="709"/>
      <point x="125" y="684" type="curve" smooth="yes"/>
      <point x="125" y="658"/>
      <point x="146" y="644"/>
    </contour>
  </outline>
</glyph>
<glyph name="j.sups" format="1">
  <advance width="172"/>
  <outline>
    <contour>
      <point x="8" y="245" type="curve" smooth="yes"/>
      <point x="75" y="245"/>
      <point x="108" y="289"/>
      <point x="121" y="354" type="curve" smooth="yes"/>
      <point x="191" y="710" type="line"/>
      <point x="114" y="710" type="line"/>
      <point x="44" y="360" type="line" smooth="yes"/>
      <point x="37" y="324"/>
      <point x="27" y="306"/>
      <point x="2" y="306" type="curve" smooth="yes"/>
      <point x="-9" y="306"/>
      <point x="-19" y="310"/>
      <point x="-28" y="314" type="curve"/>
      <point x="-53" y="259" type="line"/>
      <point x="-32" y="249"/>
      <point x="-13" y="245"/>
    </contour>
    <contour>
      <point x="169" y="765" type="curve" smooth="yes"/>
      <point x="197" y="765"/>
      <point x="220" y="787"/>
      <point x="220" y="813" type="curve" smooth="yes"/>
      <point x="220" y="839"/>
      <point x="199" y="852"/>
      <point x="176" y="852" type="curve" smooth="yes"/>
      <point x="148" y="852"/>
      <point x="125" y="830"/>
      <point x="125" y="804" type="curve" smooth="yes"/>
      <point x="125" y="778"/>
      <point x="146" y="765"/>
    </contour>
  </outline>
</glyph>
<glyph name="k" format="1">
  <advance width="501"/>
  <outline>
    <contour>
      <point x="22" y="0" type="line"/>
      <point x="130" y="0" type="line"/>
      <point x="154" y="121" type="line"/>
      <point x="250" y="218" type="line"/>
      <point x="334" y="0" type="line"/>
      <point x="442" y="0" type="line"/>
      <point x="325" y="281" type="line"/>
      <point x="523" y="491" type="line"/>
      <point x="403" y="491" type="line"/>
      <point x="186" y="262" type="line"/>
      <point x="182" y="262" type="line"/>
      <point x="271" y="706" type="line"/>
      <point x="164" y="706" type="line"/>
    </contour>
    <contour>
      <point x="227" y="730" type="move" name="aboveLC"/>
    </contour>
    <contour>
      <point x="231" y="-22" type="move" name="belowLC"/>
    </contour>
  </outline>
</glyph>
<glyph name="k.sups" format="1">
  <advance width="340"/>
  <outline>
    <contour>
      <point x="49" y="264" type="line"/>
      <point x="127" y="264" type="line"/>
      <point x="143" y="346" type="line"/>
      <point x="204" y="406" type="line"/>
      <point x="260" y="264" type="line"/>
      <point x="337" y="264" type="line"/>
      <point x="257" y="450" type="line"/>
      <point x="389" y="590" type="line"/>
      <point x="304" y="590" type="line"/>
      <point x="166" y="444" type="line"/>
      <point x="162" y="444" type="line"/>
      <point x="220" y="730" type="line"/>
      <point x="142" y="730" type="line"/>
    </contour>
  </outline>
</glyph>
<glyph name="k.sups" format="1">
  <advance width="340"/>
  <outline>
    <contour>
      <point x="49" y="385" type="line"/>
      <point x="127" y="385" type="line"/>
      <point x="143" y="467" type="line"/>
      <point x="204" y="526" type="line"/>
      <point x="260" y="385" type="line"/>
      <point x="337" y="385" type="line"/>
      <point x="257" y="571" type="line"/>
      <point x="389" y="710" type="line"/>
      <point x="304" y="710" type="line"/>
      <point x="166" y="565" type="line"/>
      <point x="162" y="565" type="line"/>
      <point x="220" y="850" type="line"/>
      <point x="142" y="850" type="line"/>
    </contour>
  </outline>
</glyph>
<glyph name="kgreenlandic" format="1">
  <advance width="501"/>
  <outline>
    <contour>
      <point x="22" y="0" type="line"/>
      <point x="130" y="0" type="line"/>
      <point x="154" y="121" type="line"/>
      <point x="250" y="218" type="line"/>
      <point x="334" y="0" type="line"/>
      <point x="442" y="0" type="line"/>
      <point x="325" y="281" type="line"/>
      <point x="523" y="491" type="line"/>
      <point x="403" y="491" type="line"/>
      <point x="186" y="262" type="line"/>
      <point x="182" y="262" type="line"/>
      <point x="227" y="491" type="line"/>
      <point x="120" y="491" type="line"/>
    </contour>
  </outline>
</glyph>
<glyph name="l.alt" format="1">
  <advance width="252"/>
  <outline>
    <contour>
      <point x="226" y="730" type="move" name="aboveLC"/>
    </contour>
    <contour>
      <point x="78" y="-22" type="move" name="belowLC"/>
    </contour>
    <contour>
      <point x="22" y="0" type="line"/>
      <point x="130" y="0" type="line"/>
      <point x="271" y="706" type="line"/>
      <point x="164" y="706" type="line"/>
    </contour>
  </outline>
</glyph>
<glyph name="l" format="1">
  <advance width="262"/>
  <outline>
    <contour>
      <point x="123" y="-12" type="curve" smooth="yes"/>
      <point x="150" y="-12"/>
      <point x="169" y="-8"/>
      <point x="184" y="-2" type="curve"/>
      <point x="186" y="78" type="line"/>
      <point x="177" y="75"/>
      <point x="174" y="75"/>
      <point x="168" y="75" type="curve" smooth="yes"/>
      <point x="158" y="75"/>
      <point x="151" y="81"/>
      <point x="151" y="96" type="curve" smooth="yes"/>
      <point x="151" y="100"/>
      <point x="151" y="105"/>
      <point x="153" y="115" type="curve" smooth="yes"/>
      <point x="271" y="706" type="line"/>
      <point x="164" y="706" type="line"/>
      <point x="47" y="120" type="line" smooth="yes"/>
      <point x="42" y="99"/>
      <point x="40" y="83"/>
      <point x="40" y="68" type="curve" smooth="yes"/>
      <point x="40" y="18"/>
      <point x="66" y="-12"/>
    </contour>
    <contour>
      <point x="226" y="730" type="move" name="aboveLC"/>
    </contour>
    <contour>
      <point x="78" y="-22" type="move" name="belowLC"/>
    </contour>
  </outline>
</glyph>
<glyph name="l.supa" format="1">
  <advance width="172"/>
  <outline>
    <contour>
      <point x="49" y="264" type="line"/>
      <point x="127" y="264" type="line"/>
      <point x="220" y="730" type="line"/>
      <point x="142" y="730" type="line"/>
    </contour>
  </outline>
</glyph>
<glyph name="l.sups" format="1">
  <advance width="172"/>
  <outline>
    <contour>
      <point x="67" y="352" type="line"/>
      <point x="64" y="337"/>
      <point x="62" y="325"/>
      <point x="62" y="314" type="curve" smooth="yes"/>
      <point x="62" y="278"/>
      <point x="80" y="256"/>
      <point x="121" y="256" type="curve" smooth="yes"/>
      <point x="139" y="256"/>
      <point x="155" y="259"/>
      <point x="165" y="263" type="curve"/>
      <point x="165" y="321" type="line"/>
      <point x="160" y="319"/>
      <point x="157" y="319"/>
      <point x="154" y="319" type="curve" smooth="yes"/>
      <point x="147" y="319"/>
      <point x="141" y="321"/>
      <point x="141" y="332" type="curve" smooth="yes"/>
      <point x="141" y="336"/>
      <point x="141" y="340"/>
      <point x="143" y="345" type="curve" smooth="yes"/>
      <point x="220" y="730" type="line"/>
      <point x="142" y="730" type="line"/>
    </contour>
  </outline>
</glyph>
<glyph name="l.supa" format="1">
  <advance width="172"/>
  <outline>
    <contour>
      <point x="49" y="385" type="line"/>
      <point x="127" y="385" type="line"/>
      <point x="220" y="850" type="line"/>
      <point x="142" y="850" type="line"/>
    </contour>
  </outline>
</glyph>
<glyph name="less" format="1">
  <advance width="494"/>
  <outline>
    <contour>
      <point x="472" y="121" type="line"/>
      <point x="472" y="212" type="line"/>
      <point x="285" y="282" type="line"/>
      <point x="158" y="329" type="line"/>
      <point x="158" y="333" type="line"/>
      <point x="285" y="381" type="line"/>
      <point x="472" y="451" type="line"/>
      <point x="472" y="540" type="line"/>
      <point x="46" y="369" type="line"/>
      <point x="46" y="292" type="line"/>
    </contour>
  </outline>
</glyph>
<glyph name="lessequal" format="1">
  <advance width="494"/>
  <outline>
    <contour>
      <point x="472" y="154" type="line"/>
      <point x="472" y="244" type="line"/>
      <point x="288" y="306" type="line"/>
      <point x="158" y="345" type="line"/>
      <point x="158" y="349" type="line"/>
      <point x="288" y="388" type="line"/>
      <point x="472" y="451" type="line"/>
      <point x="472" y="540" type="line"/>
      <point x="46" y="392" type="line"/>
      <point x="46" y="303" type="line"/>
    </contour>
    <contour>
      <point x="48" y="0" type="line"/>
      <point x="472" y="0" type="line"/>
      <point x="472" y="78" type="line"/>
      <point x="48" y="78" type="line"/>
    </contour>
  </outline>
</glyph>
<glyph name="liraturkish" format="1">
  <advance width="494"/>
  <outline>
    <contour>
      <point x="208" y="88" type="curve"/>
      <point x="250" y="302" type="line"/>
      <point x="417" y="369" type="line"/>
      <point x="430" y="432" type="line"/>
      <point x="264" y="365" type="line"/>
      <point x="276" y="431" type="line"/>
      <point x="444" y="498" type="line"/>
      <point x="457" y="561" type="line"/>
      <point x="290" y="494" type="line"/>
      <point x="318" y="637" type="line"/>
      <point x="211" y="637" type="line"/>
      <point x="176" y="459" type="line"/>
      <point x="85" y="423" type="line"/>
      <point x="72" y="360" type="line"/>
      <point x="162" y="396" type="line"/>
      <point x="149" y="330" type="line"/>
      <point x="59" y="294" type="line"/>
      <point x="46" y="231" type="line"/>
      <point x="136" y="267" type="line"/>
      <point x="80" y="-12" type="line"/>
      <point x="301" y="-14"/>
      <point x="499" y="69"/>
      <point x="497" y="299" type="curve"/>
      <point x="404" y="277" type="line"/>
      <point x="401" y="164"/>
      <point x="315" y="96"/>
    </contour>
  </outline>
</glyph>
<glyph name="litre" format="1">
  <advance width="422"/>
  <outline>
    <contour>
      <point x="226" y="-12" type="curve" smooth="yes"/>
      <point x="289" y="-12"/>
      <point x="343" y="21"/>
      <point x="390" y="56" type="curve"/>
      <point x="361" y="122" type="line"/>
      <point x="332" y="102"/>
      <point x="298" y="78"/>
      <point x="257" y="78" type="curve" smooth="yes"/>
      <point x="211" y="78"/>
      <point x="181" y="110"/>
      <point x="199" y="200" type="curve" smooth="yes"/>
      <point x="261" y="508" type="line" smooth="yes"/>
      <point x="280" y="602"/>
      <point x="316" y="640"/>
      <point x="344" y="640" type="curve" smooth="yes"/>
      <point x="366" y="640"/>
      <point x="379" y="621"/>
      <point x="379" y="584" type="curve" smooth="yes"/>
      <point x="379" y="467"/>
      <point x="246" y="309"/>
      <point x="4" y="185" type="curve"/>
      <point x="30" y="116" type="line"/>
      <point x="340" y="278"/>
      <point x="468" y="450"/>
      <point x="468" y="596" type="curve" smooth="yes"/>
      <point x="468" y="671"/>
      <point x="426" y="720"/>
      <point x="355" y="720" type="curve" smooth="yes"/>
      <point x="266" y="720"/>
      <point x="184" y="651"/>
      <point x="152" y="491" type="curve" smooth="yes"/>
      <point x="90" y="178" type="line" smooth="yes"/>
      <point x="65" y="54"/>
      <point x="132" y="-12"/>
    </contour>
  </outline>
</glyph>
<glyph name="lozenge" format="1">
  <advance width="513"/>
  <outline>
    <contour>
      <point x="225" y="-10" type="line"/>
      <point x="316" y="-10" type="line"/>
      <point x="474" y="330" type="line"/>
      <point x="316" y="670" type="line"/>
      <point x="225" y="670" type="line"/>
      <point x="68" y="330" type="line"/>
    </contour>
    <contour>
      <point x="269" y="79" type="line"/>
      <point x="212" y="207" type="line"/>
      <point x="158" y="330" type="line"/>
      <point x="212" y="452" type="line"/>
      <point x="269" y="581" type="line"/>
      <point x="273" y="581" type="line"/>
      <point x="329" y="452" type="line"/>
      <point x="383" y="330" type="line"/>
      <point x="329" y="207" type="line"/>
      <point x="273" y="79" type="line"/>
    </contour>
  </outline>
</glyph>
<glyph name="lslash.alt" format="1">
  <advance width="265"/>
  <outline>
    <contour>
      <point x="38" y="282" type="line"/>
      <point x="99" y="316" type="line"/>
      <point x="190" y="354" type="line"/>
      <point x="314" y="423" type="line"/>
      <point x="287" y="488" type="line"/>
      <point x="209" y="442" type="line"/>
      <point x="117" y="403" type="line"/>
      <point x="13" y="347" type="line"/>
    </contour>
    <component base="l.alt" xOffset="7"/>
  </outline>
</glyph>
<glyph name="lslash" format="1">
  <advance width="269"/>
  <outline>
    <contour>
      <point x="38" y="282" type="line"/>
      <point x="99" y="316" type="line"/>
      <point x="190" y="354" type="line"/>
      <point x="314" y="423" type="line"/>
      <point x="287" y="488" type="line"/>
      <point x="209" y="442" type="line"/>
      <point x="117" y="403" type="line"/>
      <point x="13" y="347" type="line"/>
    </contour>
    <component base="l" xOffset="7"/>
  </outline>
</glyph>
